<svg width="700" height="400" viewBox="0 0 700 400" fill="none" xmlns="http://www.w3.org/2000/svg">
<g clip-path="url(#clip0_17_118)">
<line class="transparent-fill transparent-stroke" x1="698.495" y1="199.608" x2="670.21" y2="227.892" stroke="#D9D9D9" stroke-width="4"/>
<line class="transparent-fill transparent-stroke" x1="680.469" y1="181.582" x2="652.184" y2="209.867" stroke="#D9D9D9" stroke-width="4"/>
<line class="transparent-fill transparent-stroke" x1="662.443" y1="163.556" x2="634.159" y2="191.841" stroke="#D9D9D9" stroke-width="4"/>
<line class="transparent-fill primary-stroke" x1="644.417" y1="145.53" x2="587.848" y2="202.099" stroke="#D9D9D9" stroke-width="4"/>
<line class="transparent-fill transparent-stroke" x1="503.376" y1="250.434" x2="428.358" y2="325.452" stroke="#D9D9D9" stroke-width="4"/>
<line class="transparent-fill transparent-stroke" x1="626.391" y1="127.505" x2="513.254" y2="240.642" stroke="#D9D9D9" stroke-width="4"/>
<line class="transparent-fill transparent-stroke" x1="608.365" y1="109.478" x2="551.796" y2="166.047" stroke="#D9D9D9" stroke-width="4"/>
<line class="transparent-fill transparent-stroke" x1="539.395" y1="178.973" x2="511.111" y2="207.257" stroke="#D9D9D9" stroke-width="4"/>
<line class="transparent-fill primary-stroke" x1="590.339" y1="91.4525" x2="562.055" y2="119.737" stroke="#D9D9D9" stroke-width="4"/>
<path class="transparent-fill primary-stroke" d="M549.295 132.304L515.707 165.891C514.926 166.672 513.66 166.672 512.879 165.891L498.737 151.749C497.956 150.968 496.689 150.968 495.908 151.749L449.472 198.186C449.096 198.561 448.886 199.07 448.886 199.6L448.886 227.224" stroke="#D9D9D9" stroke-width="4"/>
<line class="transparent-fill transparent-stroke" x1="572.313" y1="73.4267" x2="515.744" y2="129.995" stroke="#D9D9D9" stroke-width="4"/>
<path class="transparent-fill transparent-stroke" d="M477.17 105.434C476.389 104.653 475.123 104.653 474.342 105.434C473.561 106.215 473.561 107.481 474.342 108.262L477.17 105.434ZM552.873 53.9864L489.298 117.561L492.126 120.39L555.701 56.8148L552.873 53.9864ZM489.298 117.561L477.17 105.434L474.342 108.262L486.469 120.39L489.298 117.561ZM489.298 117.561L489.298 117.561L486.469 120.39C488.032 121.952 490.564 121.952 492.126 120.39L489.298 117.561Z" fill="#D9D9D9"/>
<path class="primary-fill transparent-stroke" d="M464.136 106.671C463.355 107.452 463.355 108.719 464.136 109.5C464.917 110.281 466.184 110.281 466.965 109.5L464.136 106.671ZM534.847 35.9605L464.136 106.671L466.965 109.5L537.675 38.789L534.847 35.9605Z" fill="#D9D9D9"/>
<path class="primary-fill transparent-stroke" d="M225.591 106.085C224.486 106.085 223.591 106.981 223.591 108.085C223.591 109.19 224.486 110.085 225.591 110.085V106.085ZM465.591 106.085L225.591 106.085V110.085L465.591 110.085V106.085Z" fill="#D9D9D9"/>
<line class="transparent-fill transparent-stroke" x1="516.821" y1="20.763" x2="463.081" y2="74.5031" stroke="#D9D9D9" stroke-width="4" stroke-linecap="round"/>
<line class="transparent-fill transparent-stroke" x1="498.795" y1="2.73712" x2="445.055" y2="56.4772" stroke="#D9D9D9" stroke-width="4" stroke-linecap="round"/>
<path class="transparent-fill transparent-stroke" d="M462.891 74.3152L444.888 56.3122" stroke="#D9D9D9" stroke-width="12"/>
<path class="primary-fill transparent-stroke" d="M228.32 123.184C228.693 123.184 229.08 123.291 229.48 123.504C229.906 123.691 230.226 123.944 230.44 124.264L240.16 139.224L238.16 139.144L248.12 124.264C248.626 123.544 249.28 123.184 250.08 123.184C250.72 123.184 251.293 123.411 251.8 123.864C252.306 124.317 252.56 124.904 252.56 125.624V148.784C252.56 149.477 252.333 150.064 251.88 150.544C251.426 150.997 250.826 151.224 250.08 151.224C249.333 151.224 248.72 150.997 248.24 150.544C247.786 150.064 247.56 149.477 247.56 148.784V129.944L249.12 130.304L240.96 142.744C240.72 143.037 240.413 143.291 240.04 143.504C239.693 143.717 239.333 143.811 238.96 143.784C238.613 143.811 238.253 143.717 237.88 143.504C237.533 143.291 237.24 143.037 237 142.744L229.36 130.664L230.4 128.544V148.784C230.4 149.477 230.186 150.064 229.76 150.544C229.333 150.997 228.773 151.224 228.08 151.224C227.413 151.224 226.866 150.997 226.44 150.544C226.013 150.064 225.8 149.477 225.8 148.784V125.624C225.8 124.957 226.04 124.384 226.52 123.904C227.026 123.424 227.626 123.184 228.32 123.184ZM284.333 137.224C284.333 139.224 284 141.091 283.333 142.824C282.666 144.557 281.72 146.091 280.493 147.424C279.293 148.731 277.853 149.757 276.173 150.504C274.52 151.251 272.706 151.624 270.733 151.624C268.76 151.624 266.946 151.251 265.293 150.504C263.64 149.757 262.2 148.731 260.973 147.424C259.773 146.091 258.84 144.557 258.173 142.824C257.506 141.091 257.173 139.224 257.173 137.224C257.173 135.224 257.506 133.357 258.173 131.624C258.84 129.891 259.773 128.371 260.973 127.064C262.2 125.731 263.64 124.691 265.293 123.944C266.946 123.197 268.76 122.824 270.733 122.824C272.706 122.824 274.52 123.197 276.173 123.944C277.853 124.691 279.293 125.731 280.493 127.064C281.72 128.371 282.666 129.891 283.333 131.624C284 133.357 284.333 135.224 284.333 137.224ZM279.133 137.224C279.133 135.437 278.773 133.824 278.053 132.384C277.333 130.917 276.346 129.757 275.093 128.904C273.84 128.051 272.386 127.624 270.733 127.624C269.08 127.624 267.626 128.051 266.373 128.904C265.12 129.757 264.133 130.904 263.413 132.344C262.72 133.784 262.373 135.411 262.373 137.224C262.373 139.011 262.72 140.637 263.413 142.104C264.133 143.544 265.12 144.691 266.373 145.544C267.626 146.397 269.08 146.824 270.733 146.824C272.386 146.824 273.84 146.397 275.093 145.544C276.346 144.691 277.333 143.544 278.053 142.104C278.773 140.637 279.133 139.011 279.133 137.224ZM300.925 123.224C302.845 123.224 304.551 123.584 306.045 124.304C307.538 125.024 308.791 126.037 309.805 127.344C310.845 128.624 311.618 130.117 312.125 131.824C312.658 133.504 312.925 135.304 312.925 137.224C312.925 139.811 312.458 142.171 311.525 144.304C310.591 146.411 309.231 148.091 307.445 149.344C305.685 150.597 303.511 151.224 300.925 151.224H291.365C290.671 151.224 290.085 150.997 289.605 150.544C289.151 150.064 288.925 149.477 288.925 148.784V125.664C288.925 124.971 289.151 124.397 289.605 123.944C290.085 123.464 290.671 123.224 291.365 123.224L300.925 123.224ZM300.525 146.624C302.205 146.624 303.578 146.197 304.645 145.344C305.711 144.464 306.485 143.317 306.965 141.904C307.471 140.464 307.725 138.904 307.725 137.224C307.725 135.971 307.578 134.784 307.285 133.664C307.018 132.517 306.591 131.517 306.005 130.664C305.418 129.784 304.671 129.091 303.765 128.584C302.858 128.077 301.778 127.824 300.525 127.824H293.525L293.925 127.464V147.064L293.685 146.624H300.525ZM319.958 123.224H333.358C334.052 123.224 334.625 123.451 335.078 123.904C335.558 124.331 335.798 124.891 335.798 125.584C335.798 126.251 335.558 126.797 335.078 127.224C334.625 127.624 334.052 127.824 333.358 127.824H322.158L322.518 127.144V134.944L322.198 134.624H331.558C332.252 134.624 332.825 134.851 333.278 135.304C333.758 135.731 333.998 136.291 333.998 136.984C333.998 137.651 333.758 138.197 333.278 138.624C332.825 139.024 332.252 139.224 331.558 139.224H322.318L322.518 138.904V146.984L322.198 146.624H333.358C334.052 146.624 334.625 146.864 335.078 147.344C335.558 147.797 335.798 148.331 335.798 148.944C335.798 149.611 335.558 150.157 335.078 150.584C334.625 151.011 334.052 151.224 333.358 151.224H319.958C319.265 151.224 318.678 150.997 318.198 150.544C317.745 150.064 317.518 149.477 317.518 148.784V125.664C317.518 124.971 317.745 124.397 318.198 123.944C318.678 123.464 319.265 123.224 319.958 123.224ZM355.849 146.544C356.542 146.544 357.116 146.771 357.569 147.224C358.049 147.651 358.289 148.211 358.289 148.904C358.289 149.571 358.049 150.131 357.569 150.584C357.116 151.011 356.542 151.224 355.849 151.224H342.849C342.156 151.224 341.569 150.997 341.089 150.544C340.636 150.064 340.409 149.477 340.409 148.784V125.664C340.409 124.971 340.649 124.397 341.129 123.944C341.609 123.464 342.222 123.224 342.969 123.224C343.609 123.224 344.169 123.464 344.649 123.944C345.156 124.397 345.409 124.971 345.409 125.664V147.224L344.529 146.544H355.849ZM367.87 148.784C367.87 149.477 367.617 150.064 367.11 150.544C366.603 150.997 366.017 151.224 365.35 151.224C364.603 151.224 364.003 150.997 363.55 150.544C363.097 150.064 362.87 149.477 362.87 148.784V125.664C362.87 124.971 363.11 124.397 363.59 123.944C364.07 123.464 364.683 123.224 365.43 123.224C366.07 123.224 366.63 123.464 367.11 123.944C367.617 124.397 367.87 124.971 367.87 125.664V148.784ZM395.125 123.224C395.765 123.224 396.285 123.437 396.685 123.864C397.085 124.291 397.285 124.824 397.285 125.464V148.784C397.285 149.477 397.045 150.064 396.565 150.544C396.112 150.997 395.539 151.224 394.845 151.224C394.499 151.224 394.139 151.171 393.765 151.064C393.419 150.931 393.152 150.757 392.965 150.544L377.245 130.584L378.285 129.944V148.984C378.285 149.624 378.072 150.157 377.645 150.584C377.245 151.011 376.712 151.224 376.045 151.224C375.405 151.224 374.885 151.011 374.485 150.584C374.085 150.157 373.885 149.624 373.885 148.984V125.664C373.885 124.971 374.112 124.397 374.565 123.944C375.045 123.464 375.632 123.224 376.325 123.224C376.699 123.224 377.085 123.304 377.485 123.464C377.885 123.597 378.179 123.811 378.365 124.104L393.605 143.544L392.925 144.024V125.464C392.925 124.824 393.125 124.291 393.525 123.864C393.925 123.437 394.459 123.224 395.125 123.224ZM416.5 151.624C414.473 151.624 412.58 151.251 410.82 150.504C409.06 149.757 407.513 148.731 406.18 147.424C404.846 146.091 403.793 144.557 403.02 142.824C402.273 141.091 401.9 139.224 401.9 137.224C401.9 135.224 402.273 133.357 403.02 131.624C403.793 129.891 404.846 128.371 406.18 127.064C407.513 125.731 409.06 124.691 410.82 123.944C412.58 123.197 414.473 122.824 416.5 122.824C417.753 122.824 418.966 122.957 420.14 123.224C421.313 123.491 422.393 123.891 423.38 124.424C423.78 124.637 424.073 124.931 424.26 125.304C424.473 125.651 424.58 126.011 424.58 126.384C424.58 127.024 424.366 127.597 423.94 128.104C423.513 128.611 422.966 128.864 422.3 128.864C422.086 128.864 421.86 128.837 421.62 128.784C421.406 128.731 421.193 128.651 420.98 128.544C420.313 128.251 419.606 128.024 418.86 127.864C418.113 127.704 417.326 127.624 416.5 127.624C414.766 127.624 413.18 128.064 411.74 128.944C410.326 129.797 409.193 130.957 408.34 132.424C407.513 133.864 407.1 135.464 407.1 137.224C407.1 138.957 407.513 140.557 408.34 142.024C409.193 143.491 410.326 144.664 411.74 145.544C413.18 146.397 414.766 146.824 416.5 146.824C417.3 146.824 418.18 146.744 419.14 146.584C420.1 146.424 420.886 146.211 421.5 145.944L421.14 147.144V140.304L421.82 140.904H417.38C416.686 140.904 416.1 140.677 415.62 140.224C415.166 139.771 414.94 139.197 414.94 138.504C414.94 137.811 415.166 137.237 415.62 136.784C416.1 136.331 416.686 136.104 417.38 136.104H423.94C424.633 136.104 425.206 136.344 425.66 136.824C426.113 137.277 426.34 137.851 426.34 138.544V147.024C426.34 147.557 426.206 147.997 425.94 148.344C425.7 148.691 425.42 148.971 425.1 149.184C423.873 149.931 422.526 150.531 421.06 150.984C419.62 151.411 418.1 151.624 416.5 151.624Z" fill="#D9D9D9"/>
<circle class="primary-fill transparent-stroke" cx="560.391" cy="121.315" r="4" transform="rotate(-180 560.391 121.315)" fill="#D9D9D9"/>
<circle class="primary-fill transparent-stroke" cx="549.295" cy="132.789" r="4" transform="rotate(180 549.295 132.789)" fill="#D9D9D9"/>
<path class="transparent-fill transparent-stroke" d="M466.564 97.6555L437.219 68.3105L324.081 68.3106" stroke="#D9D9D9" stroke-width="4" stroke-linecap="round"/>
<circle class="transparent-fill transparent-stroke" cx="511.606" cy="134.213" r="6" transform="rotate(-135 511.606 134.213)" stroke="#D9D9D9" stroke-width="4"/>
<circle class="transparent-fill transparent-stroke" cx="508.486" cy="244.91" r="6" transform="rotate(-135 508.486 244.91)" stroke="#D9D9D9" stroke-width="4"/>
<circle class="transparent-fill transparent-stroke" cx="507.576" cy="210.793" r="6" transform="rotate(-135 507.576 210.793)" stroke="#D9D9D9" stroke-width="4"/>
<rect class="transparent-fill transparent-stroke" x="542.931" y="182.508" width="11" height="18" transform="rotate(-135 542.931 182.508)" fill="#D9D9D9"/>
<path class="primary-fill transparent-stroke" d="M442.664 253.224C442.253 253.224 441.916 253.099 441.652 252.85C441.388 252.586 441.256 252.263 441.256 251.882V239.122H444.116V251.882C444.116 252.263 443.976 252.586 443.698 252.85C443.434 253.099 443.089 253.224 442.664 253.224ZM437.802 240.354C437.42 240.354 437.098 240.237 436.834 240.002C436.584 239.767 436.46 239.459 436.46 239.078C436.46 238.697 436.584 238.396 436.834 238.176C437.098 237.941 437.42 237.824 437.802 237.824H447.57C447.951 237.824 448.266 237.941 448.516 238.176C448.78 238.411 448.912 238.719 448.912 239.1C448.912 239.481 448.78 239.789 448.516 240.024C448.266 240.244 447.951 240.354 447.57 240.354H437.802ZM456.171 253.444C455.144 253.444 454.22 253.319 453.399 253.07C452.578 252.806 451.793 252.351 451.045 251.706C450.854 251.545 450.708 251.361 450.605 251.156C450.502 250.951 450.451 250.745 450.451 250.54C450.451 250.203 450.568 249.909 450.803 249.66C451.052 249.396 451.36 249.264 451.727 249.264C452.006 249.264 452.255 249.352 452.475 249.528C453.032 249.983 453.582 250.327 454.125 250.562C454.682 250.797 455.364 250.914 456.171 250.914C456.714 250.914 457.212 250.833 457.667 250.672C458.122 250.496 458.488 250.269 458.767 249.99C459.046 249.697 459.185 249.367 459.185 249C459.185 248.56 459.053 248.186 458.789 247.878C458.525 247.57 458.122 247.313 457.579 247.108C457.036 246.888 456.347 246.719 455.511 246.602C454.719 246.485 454.022 246.309 453.421 246.074C452.82 245.825 452.314 245.517 451.903 245.15C451.507 244.769 451.206 244.329 451.001 243.83C450.796 243.317 450.693 242.745 450.693 242.114C450.693 241.161 450.935 240.347 451.419 239.672C451.918 238.997 452.585 238.484 453.421 238.132C454.257 237.78 455.181 237.604 456.193 237.604C457.146 237.604 458.026 237.751 458.833 238.044C459.654 238.323 460.322 238.682 460.835 239.122C461.26 239.459 461.473 239.848 461.473 240.288C461.473 240.611 461.348 240.904 461.099 241.168C460.85 241.432 460.556 241.564 460.219 241.564C459.999 241.564 459.801 241.498 459.625 241.366C459.39 241.161 459.075 240.97 458.679 240.794C458.283 240.603 457.865 240.449 457.425 240.332C456.985 240.2 456.574 240.134 456.193 240.134C455.562 240.134 455.027 240.215 454.587 240.376C454.162 240.537 453.839 240.757 453.619 241.036C453.399 241.315 453.289 241.637 453.289 242.004C453.289 242.444 453.414 242.811 453.663 243.104C453.927 243.383 454.301 243.61 454.785 243.786C455.269 243.947 455.848 244.094 456.523 244.226C457.403 244.387 458.173 244.578 458.833 244.798C459.508 245.018 460.065 245.304 460.505 245.656C460.945 245.993 461.275 246.426 461.495 246.954C461.715 247.467 461.825 248.098 461.825 248.846C461.825 249.799 461.561 250.621 461.033 251.31C460.505 251.999 459.808 252.527 458.943 252.894C458.092 253.261 457.168 253.444 456.171 253.444Z" fill="#D9D9D9"/>
<rect class="transparent-fill primary-stroke" x="465.8" y="262.224" width="34" height="34" transform="rotate(180 465.8 262.224)" stroke="#D9D9D9" stroke-width="2"/>
<path class="transparent-fill primary-stroke" d="M430.8 245.224L413.8 245.224H404.8" stroke="#D9D9D9" stroke-width="2"/>
<path class="transparent-fill primary-stroke" d="M430.8 255.224H413.8V281.224H406.8" stroke="#D9D9D9" stroke-width="2"/>
<path class="transparent-fill primary-stroke" d="M430.8 235.224H413.8V209.224H406.8" stroke="#D9D9D9" stroke-width="2"/>
<path class="primary-fill transparent-stroke" d="M343.564 285.224C343.34 285.224 343.14 285.156 342.964 285.02C342.788 284.876 342.7 284.7 342.7 284.492V277.556C342.7 277.348 342.768 277.176 342.904 277.04C343.048 276.896 343.224 276.824 343.432 276.824H346.888C347.304 276.824 347.692 276.936 348.052 277.16C348.42 277.376 348.716 277.68 348.94 278.072C349.164 278.456 349.276 278.9 349.276 279.404C349.276 279.708 349.212 280.004 349.084 280.292C348.964 280.58 348.796 280.84 348.58 281.072C348.372 281.304 348.136 281.484 347.872 281.612L347.884 281.336C348.108 281.456 348.292 281.6 348.436 281.768C348.588 281.928 348.704 282.104 348.784 282.296C348.872 282.48 348.924 282.68 348.94 282.896C348.972 283.096 348.992 283.272 349 283.424C349.016 283.576 349.04 283.704 349.072 283.808C349.112 283.912 349.184 283.992 349.288 284.048C349.464 284.152 349.572 284.304 349.612 284.504C349.66 284.696 349.616 284.868 349.48 285.02C349.392 285.124 349.28 285.192 349.144 285.224C349.008 285.248 348.872 285.248 348.736 285.224C348.6 285.192 348.488 285.152 348.4 285.104C348.264 285.024 348.128 284.908 347.992 284.756C347.856 284.596 347.744 284.384 347.656 284.12C347.576 283.856 347.536 283.516 347.536 283.1C347.536 282.964 347.512 282.84 347.464 282.728C347.416 282.608 347.348 282.508 347.26 282.428C347.172 282.34 347.06 282.276 346.924 282.236C346.788 282.188 346.628 282.164 346.444 282.164H344.02L344.2 281.888V284.492C344.2 284.7 344.144 284.876 344.032 285.02C343.92 285.156 343.764 285.224 343.564 285.224ZM344.032 280.928H346.828C346.972 280.928 347.112 280.864 347.248 280.736C347.384 280.6 347.496 280.42 347.584 280.196C347.672 279.964 347.716 279.712 347.716 279.44C347.716 279.088 347.62 278.796 347.428 278.564C347.244 278.324 347.044 278.204 346.828 278.204H344.056L344.2 277.82V281.216L344.032 280.928ZM351.67 276.824H355.69C355.898 276.824 356.07 276.892 356.206 277.028C356.35 277.156 356.422 277.324 356.422 277.532C356.422 277.732 356.35 277.896 356.206 278.024C356.07 278.144 355.898 278.204 355.69 278.204H352.33L352.438 278V280.34L352.342 280.244H355.15C355.358 280.244 355.53 280.312 355.666 280.448C355.81 280.576 355.882 280.744 355.882 280.952C355.882 281.152 355.81 281.316 355.666 281.444C355.53 281.564 355.358 281.624 355.15 281.624H352.378L352.438 281.528V283.952L352.342 283.844H355.69C355.898 283.844 356.07 283.916 356.206 284.06C356.35 284.196 356.422 284.356 356.422 284.54C356.422 284.74 356.35 284.904 356.206 285.032C356.07 285.16 355.898 285.224 355.69 285.224H351.67C351.462 285.224 351.286 285.156 351.142 285.02C351.006 284.876 350.938 284.7 350.938 284.492V277.556C350.938 277.348 351.006 277.176 351.142 277.04C351.286 276.896 351.462 276.824 351.67 276.824ZM360.889 278.708L358.297 284.804C358.241 284.956 358.153 285.076 358.033 285.164C357.921 285.244 357.797 285.284 357.661 285.284C357.445 285.284 357.285 285.224 357.181 285.104C357.077 284.984 357.025 284.836 357.025 284.66C357.025 284.588 357.037 284.512 357.061 284.432L360.049 277.256C360.113 277.096 360.209 276.972 360.337 276.884C360.473 276.796 360.617 276.76 360.769 276.776C360.913 276.776 361.045 276.82 361.165 276.908C361.293 276.988 361.385 277.104 361.441 277.256L364.393 284.288C364.433 284.392 364.453 284.488 364.453 284.576C364.453 284.792 364.381 284.964 364.237 285.092C364.101 285.22 363.949 285.284 363.781 285.284C363.637 285.284 363.505 285.24 363.385 285.152C363.273 285.064 363.185 284.944 363.121 284.792L360.541 278.78L360.889 278.708ZM358.669 283.34L359.329 281.96H362.569L362.797 283.34H358.669ZM371.29 277.232C371.498 277.336 371.618 277.5 371.65 277.724C371.69 277.948 371.634 278.152 371.482 278.336C371.378 278.48 371.242 278.56 371.074 278.576C370.914 278.592 370.75 278.56 370.582 278.48C370.39 278.392 370.186 278.324 369.97 278.276C369.762 278.228 369.542 278.204 369.31 278.204C368.878 278.204 368.49 278.272 368.146 278.408C367.81 278.544 367.522 278.74 367.282 278.996C367.042 279.244 366.858 279.54 366.73 279.884C366.61 280.228 366.55 280.608 366.55 281.024C366.55 281.512 366.618 281.936 366.754 282.296C366.898 282.656 367.094 282.956 367.342 283.196C367.59 283.436 367.882 283.616 368.218 283.736C368.554 283.848 368.918 283.904 369.31 283.904C369.526 283.904 369.742 283.884 369.958 283.844C370.174 283.804 370.382 283.732 370.582 283.628C370.75 283.548 370.914 283.52 371.074 283.544C371.242 283.568 371.382 283.652 371.494 283.796C371.654 283.996 371.71 284.204 371.662 284.42C371.622 284.628 371.502 284.78 371.302 284.876C371.094 284.98 370.878 285.068 370.654 285.14C370.438 285.204 370.218 285.252 369.994 285.284C369.77 285.324 369.542 285.344 369.31 285.344C368.734 285.344 368.186 285.252 367.666 285.068C367.154 284.884 366.694 284.612 366.286 284.252C365.886 283.892 365.57 283.444 365.338 282.908C365.106 282.364 364.99 281.736 364.99 281.024C364.99 280.408 365.094 279.84 365.302 279.32C365.518 278.8 365.818 278.352 366.202 277.976C366.594 277.592 367.054 277.296 367.582 277.088C368.11 276.872 368.686 276.764 369.31 276.764C369.662 276.764 370.006 276.804 370.342 276.884C370.678 276.964 370.994 277.08 371.29 277.232ZM375.778 285.224C375.554 285.224 375.37 285.156 375.226 285.02C375.082 284.876 375.01 284.7 375.01 284.492V277.532H376.57V284.492C376.57 284.7 376.494 284.876 376.342 285.02C376.198 285.156 376.01 285.224 375.778 285.224ZM373.126 278.204C372.918 278.204 372.742 278.14 372.598 278.012C372.462 277.884 372.394 277.716 372.394 277.508C372.394 277.3 372.462 277.136 372.598 277.016C372.742 276.888 372.918 276.824 373.126 276.824H378.454C378.662 276.824 378.834 276.888 378.97 277.016C379.114 277.144 379.186 277.312 379.186 277.52C379.186 277.728 379.114 277.896 378.97 278.024C378.834 278.144 378.662 278.204 378.454 278.204H373.126Z" fill="#D9D9D9"/>
<rect class="transparent-fill primary-stroke" x="405.8" y="294.224" width="90" height="26" transform="rotate(180 405.8 294.224)" stroke="#D9D9D9" stroke-width="2"/>
<path class="primary-fill transparent-stroke" d="M345.072 240.824C345.264 240.824 345.42 240.888 345.54 241.016C345.66 241.144 345.72 241.304 345.72 241.496V248.492C345.72 248.7 345.648 248.876 345.504 249.02C345.368 249.156 345.196 249.224 344.988 249.224C344.884 249.224 344.776 249.208 344.664 249.176C344.56 249.136 344.48 249.084 344.424 249.02L339.708 243.032L340.02 242.84V248.552C340.02 248.744 339.956 248.904 339.828 249.032C339.708 249.16 339.548 249.224 339.348 249.224C339.156 249.224 339 249.16 338.88 249.032C338.76 248.904 338.7 248.744 338.7 248.552V241.556C338.7 241.348 338.768 241.176 338.904 241.04C339.048 240.896 339.224 240.824 339.432 240.824C339.544 240.824 339.66 240.848 339.78 240.896C339.9 240.936 339.988 241 340.044 241.088L344.616 246.92L344.412 247.064V241.496C344.412 241.304 344.472 241.144 344.592 241.016C344.712 240.888 344.872 240.824 345.072 240.824ZM348.256 240.824H352.276C352.484 240.824 352.656 240.892 352.792 241.028C352.936 241.156 353.008 241.324 353.008 241.532C353.008 241.732 352.936 241.896 352.792 242.024C352.656 242.144 352.484 242.204 352.276 242.204H348.916L349.024 242V244.34L348.928 244.244H351.736C351.944 244.244 352.116 244.312 352.252 244.448C352.396 244.576 352.468 244.744 352.468 244.952C352.468 245.152 352.396 245.316 352.252 245.444C352.116 245.564 351.944 245.624 351.736 245.624H348.964L349.024 245.528V247.952L348.928 247.844H352.276C352.484 247.844 352.656 247.916 352.792 248.06C352.936 248.196 353.008 248.356 353.008 248.54C353.008 248.74 352.936 248.904 352.792 249.032C352.656 249.16 352.484 249.224 352.276 249.224H348.256C348.048 249.224 347.872 249.156 347.728 249.02C347.592 248.876 347.524 248.7 347.524 248.492V241.556C347.524 241.348 347.592 241.176 347.728 241.04C347.872 240.896 348.048 240.824 348.256 240.824ZM360.139 240.812C360.323 240.812 360.479 240.884 360.607 241.028C360.743 241.172 360.811 241.324 360.811 241.484C360.811 241.636 360.759 241.78 360.655 241.916L358.243 245.096L357.427 243.98L359.551 241.16C359.719 240.928 359.915 240.812 360.139 240.812ZM354.787 240.788C355.019 240.788 355.215 240.892 355.375 241.1L360.655 248.12C360.751 248.248 360.799 248.396 360.799 248.564C360.799 248.788 360.719 248.964 360.559 249.092C360.399 249.22 360.239 249.284 360.079 249.284C359.847 249.284 359.651 249.18 359.491 248.972L354.211 241.952C354.107 241.824 354.055 241.68 354.055 241.52C354.055 241.312 354.131 241.14 354.283 241.004C354.443 240.86 354.611 240.788 354.787 240.788ZM354.679 249.284C354.503 249.284 354.351 249.22 354.223 249.092C354.095 248.956 354.031 248.808 354.031 248.648C354.031 248.472 354.091 248.308 354.211 248.156L356.647 244.856L357.439 246.02L355.279 248.948C355.119 249.172 354.919 249.284 354.679 249.284ZM365.098 249.224C364.874 249.224 364.69 249.156 364.546 249.02C364.402 248.876 364.33 248.7 364.33 248.492V241.532H365.89V248.492C365.89 248.7 365.814 248.876 365.662 249.02C365.518 249.156 365.33 249.224 365.098 249.224ZM362.446 242.204C362.238 242.204 362.062 242.14 361.918 242.012C361.782 241.884 361.714 241.716 361.714 241.508C361.714 241.3 361.782 241.136 361.918 241.016C362.062 240.888 362.238 240.824 362.446 240.824H367.774C367.982 240.824 368.154 240.888 368.29 241.016C368.434 241.144 368.506 241.312 368.506 241.52C368.506 241.728 368.434 241.896 368.29 242.024C368.154 242.144 367.982 242.204 367.774 242.204H362.446ZM370.937 249.344C370.481 249.344 370.057 249.252 369.665 249.068C369.273 248.884 368.953 248.62 368.705 248.276C368.609 248.132 368.561 247.992 368.561 247.856C368.561 247.656 368.637 247.488 368.789 247.352C368.949 247.216 369.105 247.148 369.257 247.148C369.377 247.148 369.493 247.184 369.605 247.256C369.725 247.328 369.833 247.412 369.929 247.508C370.089 247.652 370.245 247.756 370.397 247.82C370.557 247.876 370.737 247.904 370.937 247.904C371.177 247.904 371.401 247.844 371.609 247.724C371.817 247.604 371.985 247.444 372.113 247.244C372.241 247.044 372.305 246.828 372.305 246.596V241.556C372.305 241.348 372.381 241.176 372.533 241.04C372.685 240.896 372.861 240.824 373.061 240.824C373.285 240.824 373.465 240.896 373.601 241.04C373.737 241.176 373.805 241.348 373.805 241.556V246.596C373.805 247.084 373.677 247.536 373.421 247.952C373.165 248.368 372.821 248.704 372.389 248.96C371.957 249.216 371.473 249.344 370.937 249.344ZM378.302 249.344C377.742 249.344 377.238 249.276 376.79 249.14C376.342 248.996 375.914 248.748 375.506 248.396C375.402 248.308 375.322 248.208 375.266 248.096C375.21 247.984 375.182 247.872 375.182 247.76C375.182 247.576 375.246 247.416 375.374 247.28C375.51 247.136 375.678 247.064 375.878 247.064C376.03 247.064 376.166 247.112 376.286 247.208C376.59 247.456 376.89 247.644 377.186 247.772C377.49 247.9 377.862 247.964 378.302 247.964C378.598 247.964 378.87 247.92 379.118 247.832C379.366 247.736 379.566 247.612 379.718 247.46C379.87 247.3 379.946 247.12 379.946 246.92C379.946 246.68 379.874 246.476 379.73 246.308C379.586 246.14 379.366 246 379.07 245.888C378.774 245.768 378.398 245.676 377.942 245.612C377.51 245.548 377.13 245.452 376.802 245.324C376.474 245.188 376.198 245.02 375.974 244.82C375.758 244.612 375.594 244.372 375.482 244.1C375.37 243.82 375.314 243.508 375.314 243.164C375.314 242.644 375.446 242.2 375.71 241.832C375.982 241.464 376.346 241.184 376.802 240.992C377.258 240.8 377.762 240.704 378.314 240.704C378.834 240.704 379.314 240.784 379.754 240.944C380.202 241.096 380.566 241.292 380.846 241.532C381.078 241.716 381.194 241.928 381.194 242.168C381.194 242.344 381.126 242.504 380.99 242.648C380.854 242.792 380.694 242.864 380.51 242.864C380.39 242.864 380.282 242.828 380.186 242.756C380.058 242.644 379.886 242.54 379.67 242.444C379.454 242.34 379.226 242.256 378.986 242.192C378.746 242.12 378.522 242.084 378.314 242.084C377.97 242.084 377.678 242.128 377.438 242.216C377.206 242.304 377.03 242.424 376.91 242.576C376.79 242.728 376.73 242.904 376.73 243.104C376.73 243.344 376.798 243.544 376.934 243.704C377.078 243.856 377.282 243.98 377.546 244.076C377.81 244.164 378.126 244.244 378.494 244.316C378.974 244.404 379.394 244.508 379.754 244.628C380.122 244.748 380.426 244.904 380.666 245.096C380.906 245.28 381.086 245.516 381.206 245.804C381.326 246.084 381.386 246.428 381.386 246.836C381.386 247.356 381.242 247.804 380.954 248.18C380.666 248.556 380.286 248.844 379.814 249.044C379.35 249.244 378.846 249.344 378.302 249.344Z" fill="#D9D9D9"/>
<rect class="transparent-fill primary-stroke" x="405.8" y="232.224" width="26" height="90" transform="rotate(90 405.8 232.224)" stroke="#D9D9D9" stroke-width="2"/>
<path class="primary-fill transparent-stroke" d="M336.784 206.708L334.192 212.804C334.136 212.956 334.048 213.076 333.928 213.164C333.816 213.244 333.692 213.284 333.556 213.284C333.34 213.284 333.18 213.224 333.076 213.104C332.972 212.984 332.92 212.836 332.92 212.66C332.92 212.588 332.932 212.512 332.956 212.432L335.944 205.256C336.008 205.096 336.104 204.972 336.232 204.884C336.368 204.796 336.512 204.76 336.664 204.776C336.808 204.776 336.94 204.82 337.06 204.908C337.188 204.988 337.28 205.104 337.336 205.256L340.288 212.288C340.328 212.392 340.348 212.488 340.348 212.576C340.348 212.792 340.276 212.964 340.132 213.092C339.996 213.22 339.844 213.284 339.676 213.284C339.532 213.284 339.4 213.24 339.28 213.152C339.168 213.064 339.08 212.944 339.016 212.792L336.436 206.78L336.784 206.708ZM334.564 211.34L335.224 209.96H338.464L338.692 211.34H334.564ZM347.736 204.824C347.928 204.824 348.084 204.888 348.204 205.016C348.324 205.144 348.384 205.304 348.384 205.496V212.492C348.384 212.7 348.312 212.876 348.168 213.02C348.032 213.156 347.86 213.224 347.652 213.224C347.548 213.224 347.44 213.208 347.328 213.176C347.224 213.136 347.144 213.084 347.088 213.02L342.372 207.032L342.684 206.84V212.552C342.684 212.744 342.62 212.904 342.492 213.032C342.372 213.16 342.212 213.224 342.012 213.224C341.82 213.224 341.664 213.16 341.544 213.032C341.424 212.904 341.364 212.744 341.364 212.552V205.556C341.364 205.348 341.432 205.176 341.568 205.04C341.712 204.896 341.888 204.824 342.096 204.824C342.208 204.824 342.324 204.848 342.444 204.896C342.564 204.936 342.652 205 342.708 205.088L347.28 210.92L347.076 211.064V205.496C347.076 205.304 347.136 205.144 347.256 205.016C347.376 204.888 347.536 204.824 347.736 204.824ZM354.148 213.344C353.54 213.344 352.972 213.232 352.444 213.008C351.916 212.784 351.452 212.476 351.052 212.084C350.652 211.684 350.336 211.224 350.104 210.704C349.88 210.184 349.768 209.624 349.768 209.024C349.768 208.424 349.88 207.864 350.104 207.344C350.336 206.824 350.652 206.368 351.052 205.976C351.452 205.576 351.916 205.264 352.444 205.04C352.972 204.816 353.54 204.704 354.148 204.704C354.524 204.704 354.888 204.744 355.24 204.824C355.592 204.904 355.916 205.024 356.212 205.184C356.332 205.248 356.42 205.336 356.476 205.448C356.54 205.552 356.572 205.66 356.572 205.772C356.572 205.964 356.508 206.136 356.38 206.288C356.252 206.44 356.088 206.516 355.888 206.516C355.824 206.516 355.756 206.508 355.684 206.492C355.62 206.476 355.556 206.452 355.492 206.42C355.292 206.332 355.08 206.264 354.856 206.216C354.632 206.168 354.396 206.144 354.148 206.144C353.628 206.144 353.152 206.276 352.72 206.54C352.296 206.796 351.956 207.144 351.7 207.584C351.452 208.016 351.328 208.496 351.328 209.024C351.328 209.544 351.452 210.024 351.7 210.464C351.956 210.904 352.296 211.256 352.72 211.52C353.152 211.776 353.628 211.904 354.148 211.904C354.388 211.904 354.652 211.88 354.94 211.832C355.228 211.784 355.464 211.72 355.648 211.64L355.54 212V209.948L355.744 210.128H354.412C354.204 210.128 354.028 210.06 353.884 209.924C353.748 209.788 353.68 209.616 353.68 209.408C353.68 209.2 353.748 209.028 353.884 208.892C354.028 208.756 354.204 208.688 354.412 208.688H356.38C356.588 208.688 356.76 208.76 356.896 208.904C357.032 209.04 357.1 209.212 357.1 209.42V211.964C357.1 212.124 357.06 212.256 356.98 212.36C356.908 212.464 356.824 212.548 356.728 212.612C356.36 212.836 355.956 213.016 355.516 213.152C355.084 213.28 354.628 213.344 354.148 213.344ZM364.507 204.812C364.715 204.812 364.883 204.884 365.011 205.028C365.139 205.164 365.203 205.336 365.203 205.544V209.888C365.203 210.552 365.059 211.14 364.771 211.652C364.491 212.164 364.103 212.564 363.607 212.852C363.111 213.14 362.535 213.284 361.879 213.284C361.223 213.284 360.643 213.14 360.139 212.852C359.643 212.564 359.251 212.164 358.963 211.652C358.683 211.14 358.543 210.552 358.543 209.888V205.544C358.543 205.336 358.615 205.164 358.759 205.028C358.903 204.884 359.087 204.812 359.311 204.812C359.495 204.812 359.659 204.884 359.803 205.028C359.955 205.164 360.031 205.336 360.031 205.544V209.888C360.031 210.288 360.115 210.636 360.283 210.932C360.459 211.22 360.687 211.444 360.967 211.604C361.255 211.764 361.559 211.844 361.879 211.844C362.223 211.844 362.543 211.764 362.839 211.604C363.135 211.444 363.375 211.22 363.559 210.932C363.743 210.636 363.835 210.288 363.835 209.888V205.544C363.835 205.336 363.895 205.164 364.015 205.028C364.135 204.884 364.299 204.812 364.507 204.812ZM371.636 211.82C371.844 211.82 372.016 211.888 372.152 212.024C372.296 212.152 372.368 212.32 372.368 212.528C372.368 212.728 372.296 212.896 372.152 213.032C372.016 213.16 371.844 213.224 371.636 213.224H367.736C367.528 213.224 367.352 213.156 367.208 213.02C367.072 212.876 367.004 212.7 367.004 212.492V205.556C367.004 205.348 367.076 205.176 367.22 205.04C367.364 204.896 367.548 204.824 367.772 204.824C367.964 204.824 368.132 204.896 368.276 205.04C368.428 205.176 368.504 205.348 368.504 205.556V212.024L368.24 211.82H371.636ZM376.827 206.708L374.235 212.804C374.179 212.956 374.091 213.076 373.971 213.164C373.859 213.244 373.735 213.284 373.599 213.284C373.383 213.284 373.223 213.224 373.119 213.104C373.015 212.984 372.963 212.836 372.963 212.66C372.963 212.588 372.975 212.512 372.999 212.432L375.987 205.256C376.051 205.096 376.147 204.972 376.275 204.884C376.411 204.796 376.555 204.76 376.707 204.776C376.851 204.776 376.983 204.82 377.103 204.908C377.231 204.988 377.323 205.104 377.379 205.256L380.331 212.288C380.371 212.392 380.391 212.488 380.391 212.576C380.391 212.792 380.319 212.964 380.175 213.092C380.039 213.22 379.887 213.284 379.719 213.284C379.575 213.284 379.443 213.24 379.323 213.152C379.211 213.064 379.123 212.944 379.059 212.792L376.479 206.78L376.827 206.708ZM374.607 211.34L375.267 209.96H378.507L378.735 211.34H374.607ZM382.271 213.224C382.047 213.224 381.847 213.156 381.671 213.02C381.495 212.876 381.407 212.7 381.407 212.492V205.556C381.407 205.348 381.475 205.176 381.611 205.04C381.755 204.896 381.931 204.824 382.139 204.824H385.595C386.011 204.824 386.399 204.936 386.759 205.16C387.127 205.376 387.423 205.68 387.647 206.072C387.871 206.456 387.983 206.9 387.983 207.404C387.983 207.708 387.919 208.004 387.791 208.292C387.671 208.58 387.503 208.84 387.287 209.072C387.079 209.304 386.843 209.484 386.579 209.612L386.591 209.336C386.815 209.456 386.999 209.6 387.143 209.768C387.295 209.928 387.411 210.104 387.491 210.296C387.579 210.48 387.631 210.68 387.647 210.896C387.679 211.096 387.699 211.272 387.707 211.424C387.723 211.576 387.747 211.704 387.779 211.808C387.819 211.912 387.891 211.992 387.995 212.048C388.171 212.152 388.279 212.304 388.319 212.504C388.367 212.696 388.323 212.868 388.187 213.02C388.099 213.124 387.987 213.192 387.851 213.224C387.715 213.248 387.579 213.248 387.443 213.224C387.307 213.192 387.195 213.152 387.107 213.104C386.971 213.024 386.835 212.908 386.699 212.756C386.563 212.596 386.451 212.384 386.363 212.12C386.283 211.856 386.243 211.516 386.243 211.1C386.243 210.964 386.219 210.84 386.171 210.728C386.123 210.608 386.055 210.508 385.967 210.428C385.879 210.34 385.767 210.276 385.631 210.236C385.495 210.188 385.335 210.164 385.151 210.164H382.727L382.907 209.888V212.492C382.907 212.7 382.851 212.876 382.739 213.02C382.627 213.156 382.471 213.224 382.271 213.224ZM382.739 208.928H385.535C385.679 208.928 385.819 208.864 385.955 208.736C386.091 208.6 386.203 208.42 386.291 208.196C386.379 207.964 386.423 207.712 386.423 207.44C386.423 207.088 386.327 206.796 386.135 206.564C385.951 206.324 385.751 206.204 385.535 206.204H382.763L382.907 205.82V209.216L382.739 208.928Z" fill="#D9D9D9"/>
<rect class="transparent-fill primary-stroke" x="405.8" y="222.224" width="90" height="26" transform="rotate(180 405.8 222.224)" stroke="#D9D9D9" stroke-width="2"/>
<path class="primary-fill transparent-stroke" d="M534.966 248.64C535.26 248.346 535.619 248.156 536.044 248.071C536.474 247.981 536.912 248 537.359 248.131C537.806 248.261 538.207 248.504 538.564 248.86C538.914 249.211 539.155 249.61 539.285 250.057C539.415 250.504 539.438 250.945 539.353 251.38C539.268 251.805 539.079 252.164 538.784 252.458L537.223 254.019L537.155 253.782L538.912 255.538C539.059 255.685 539.138 255.855 539.149 256.047C539.155 256.234 539.084 256.401 538.937 256.548C538.796 256.689 538.632 256.757 538.445 256.752C538.253 256.74 538.083 256.661 537.936 256.514L533.031 251.61C532.884 251.462 532.811 251.293 532.811 251.1C532.811 250.897 532.884 250.721 533.031 250.574L534.966 248.64ZM537.817 251.491C537.925 251.383 537.984 251.233 537.995 251.041C538.007 250.849 537.975 250.648 537.902 250.439C537.823 250.224 537.704 250.037 537.546 249.879C537.381 249.714 537.195 249.596 536.986 249.522C536.776 249.449 536.578 249.42 536.392 249.437C536.199 249.449 536.049 249.508 535.942 249.615L534.364 251.194L534.313 250.939L536.476 253.103L536.247 253.061L537.817 251.491ZM541.385 242.169C541.516 242.039 541.682 241.974 541.886 241.974C542.09 241.963 542.268 242.034 542.421 242.186C542.472 242.237 542.517 242.299 542.556 242.373C542.596 242.435 542.624 242.509 542.641 242.594L543.473 247.277L543.04 246.539L545.475 248.975C545.622 249.122 545.696 249.297 545.696 249.501C545.696 249.693 545.631 249.854 545.501 249.984C545.359 250.126 545.19 250.199 544.992 250.205C544.794 250.199 544.621 250.123 544.474 249.976L542.107 247.608L542.446 247.812L538.178 247.21C538.048 247.193 537.938 247.161 537.847 247.116C537.757 247.071 537.683 247.02 537.626 246.964C537.474 246.811 537.409 246.627 537.431 246.412C537.454 246.197 537.527 246.027 537.652 245.903C537.81 245.744 538.028 245.685 538.305 245.725L542.183 246.344L541.912 246.548L541.216 242.848C541.165 242.56 541.221 242.333 541.385 242.169ZM550.715 244.77C550.556 244.929 550.378 245.011 550.18 245.016C549.977 245.016 549.801 244.943 549.654 244.796L544.733 239.874L545.836 238.771L550.757 243.693C550.904 243.84 550.975 244.018 550.969 244.227C550.964 244.425 550.879 244.606 550.715 244.77ZM543.876 241.682C543.729 241.829 543.559 241.908 543.367 241.919C543.18 241.925 543.013 241.854 542.866 241.707C542.719 241.56 542.651 241.396 542.662 241.215C542.674 241.023 542.753 240.853 542.9 240.706L546.667 236.938C546.814 236.791 546.981 236.715 547.168 236.709C547.36 236.698 547.53 236.766 547.677 236.913C547.824 237.06 547.892 237.23 547.881 237.422C547.869 237.603 547.79 237.767 547.643 237.914L543.876 241.682ZM548.619 234.987C548.754 234.851 548.924 234.783 549.128 234.783C549.331 234.772 549.507 234.84 549.654 234.987L554.558 239.891C554.705 240.039 554.776 240.217 554.771 240.426C554.759 240.63 554.683 240.802 554.541 240.944C554.383 241.102 554.208 241.181 554.015 241.181C553.817 241.176 553.645 241.099 553.498 240.952L548.593 236.048C548.446 235.901 548.375 235.728 548.381 235.53C548.381 235.326 548.46 235.145 548.619 234.987ZM552.378 231.228C552.536 231.07 552.714 230.993 552.912 230.999C553.105 230.999 553.274 231.072 553.421 231.22L558.326 236.124C558.473 236.271 558.546 236.446 558.546 236.65C558.546 236.842 558.464 237.021 558.3 237.185C558.165 237.32 557.995 237.394 557.791 237.405C557.588 237.405 557.412 237.332 557.265 237.185L552.361 232.28C552.214 232.133 552.146 231.958 552.157 231.754C552.163 231.545 552.236 231.369 552.378 231.228ZM551.062 237.482L554.847 233.697L555.823 234.673L552.038 238.457L551.062 237.482ZM562.609 226.937C563.033 227.361 563.358 227.828 563.585 228.337C563.811 228.846 563.935 229.372 563.958 229.915C563.981 230.447 563.893 230.97 563.695 231.485C563.503 231.994 563.197 232.458 562.779 232.876C562.36 233.295 561.896 233.6 561.387 233.793C560.878 233.985 560.355 234.073 559.817 234.056C559.28 234.027 558.756 233.9 558.247 233.674C557.738 233.448 557.272 233.122 556.847 232.698C556.423 232.274 556.098 231.807 555.871 231.298C555.645 230.789 555.521 230.268 555.498 229.737C555.476 229.194 555.56 228.668 555.753 228.158C555.945 227.649 556.251 227.185 556.669 226.767C557.088 226.348 557.552 226.043 558.061 225.85C558.575 225.652 559.102 225.568 559.639 225.596C560.176 225.613 560.7 225.735 561.209 225.961C561.718 226.187 562.185 226.512 562.609 226.937ZM561.506 228.04C561.127 227.661 560.708 227.395 560.25 227.242C559.786 227.084 559.331 227.047 558.884 227.132C558.437 227.217 558.038 227.434 557.687 227.785C557.337 228.136 557.119 228.535 557.034 228.982C556.949 229.428 556.983 229.881 557.136 230.339C557.294 230.792 557.566 231.21 557.95 231.595C558.329 231.974 558.748 232.246 559.206 232.41C559.664 232.562 560.117 232.596 560.564 232.511C561.011 232.427 561.41 232.209 561.76 231.858C562.111 231.507 562.329 231.109 562.414 230.662C562.498 230.215 562.465 229.762 562.312 229.304C562.153 228.84 561.885 228.419 561.506 228.04ZM565.119 218.487C565.254 218.351 565.41 218.286 565.585 218.292C565.761 218.298 565.916 218.368 566.052 218.504L570.999 223.451C571.146 223.598 571.22 223.773 571.22 223.977C571.22 224.169 571.146 224.339 570.999 224.486C570.925 224.56 570.838 224.625 570.736 224.681C570.634 224.727 570.541 224.746 570.456 224.741L562.887 223.841L562.972 223.485L567.011 227.524C567.147 227.66 567.215 227.818 567.215 227.999C567.22 228.174 567.152 228.333 567.011 228.474C566.875 228.61 566.72 228.675 566.544 228.669C566.369 228.664 566.213 228.593 566.077 228.457L561.131 223.51C560.983 223.363 560.91 223.194 560.91 223.001C560.91 222.798 560.983 222.622 561.131 222.475C561.21 222.396 561.309 222.331 561.428 222.28C561.541 222.223 561.648 222.206 561.75 222.229L569.107 223.12L569.064 223.366L565.127 219.429C564.991 219.293 564.921 219.138 564.915 218.962C564.909 218.787 564.977 218.628 565.119 218.487Z" fill="#D9D9D9"/>
<rect class="transparent-fill primary-stroke" x="597.214" y="210.999" width="90" height="26" transform="rotate(135 597.214 210.999)" stroke="#D9D9D9" stroke-width="2"/>
<path class="transparent-fill transparent-stroke" d="M504.8 134.224H487.3L454.8 164.724H282.3" stroke="#D9D9D9" stroke-width="4"/>
<path class="transparent-fill transparent-stroke" d="M501.404 167.706C501.624 166.623 500.926 165.567 499.844 165.346C498.762 165.125 497.705 165.823 497.484 166.906L501.404 167.706ZM492.536 201.154L490.577 200.754L492.536 201.154ZM467.21 201.954L467.21 203.954L467.21 201.954ZM504.747 239.077L467.917 202.247L465.089 205.075L501.919 241.905L504.747 239.077ZM467.21 203.954L491.556 203.954L491.556 199.954L467.21 199.954L467.21 203.954ZM494.496 201.554L501.404 167.706L497.484 166.906L490.577 200.754L494.496 201.554ZM491.556 203.954C492.982 203.954 494.211 202.951 494.496 201.554L490.577 200.754C490.672 200.288 491.081 199.954 491.556 199.954L491.556 203.954ZM467.917 202.247C468.547 202.877 468.101 203.954 467.21 203.954L467.21 199.954C464.537 199.954 463.199 203.185 465.089 205.075L467.917 202.247Z" fill="#D9D9D9"/>
</g>
<defs>
<clipPath id="clip0_17_118">
<rect width="700" height="400" fill="white"/>
</clipPath>
</defs>
</svg>
