<svg width="700" height="400" viewBox="0 0 700 400" fill="none" xmlns="http://www.w3.org/2000/svg">
<g clip-path="url(#clip0_17_121)">
<line class="transparent-fill transparent-stroke" y1="-2" x2="40" y2="-2" transform="matrix(0.707107 0.707107 0.707107 -0.707107 2.71924 198.194)" stroke="#D9D9D9" stroke-width="4"/>
<line class="transparent-fill transparent-stroke" y1="-2" x2="40" y2="-2" transform="matrix(0.707107 0.707107 0.707107 -0.707107 20.7451 180.168)" stroke="#D9D9D9" stroke-width="4"/>
<line class="transparent-fill transparent-stroke" y1="-2" x2="40" y2="-2" transform="matrix(0.707107 0.707107 0.707107 -0.707107 38.771 162.142)" stroke="#D9D9D9" stroke-width="4"/>
<line class="transparent-fill primary-stroke" y1="-2" x2="80" y2="-2" transform="matrix(0.707107 0.707107 0.707107 -0.707107 56.7971 144.116)" stroke="#D9D9D9" stroke-width="4"/>
<line class="transparent-fill transparent-stroke" y1="-2" x2="106.091" y2="-2" transform="matrix(0.707107 0.707107 0.707107 -0.707107 197.838 249.019)" stroke="#D9D9D9" stroke-width="4"/>
<line class="transparent-fill transparent-stroke" y1="-2" x2="160" y2="-2" transform="matrix(0.707107 0.707107 0.707107 -0.707107 74.823 126.09)" stroke="#D9D9D9" stroke-width="4"/>
<line class="transparent-fill transparent-stroke" y1="-2" x2="80" y2="-2" transform="matrix(0.707107 0.707107 0.707107 -0.707107 92.8489 108.064)" stroke="#D9D9D9" stroke-width="4"/>
<line class="transparent-fill transparent-stroke" y1="-2" x2="40" y2="-2" transform="matrix(0.707107 0.707107 0.707107 -0.707107 161.818 177.559)" stroke="#D9D9D9" stroke-width="4"/>
<line class="transparent-fill primary-stroke" y1="-2" x2="40" y2="-2" transform="matrix(0.707107 0.707107 0.707107 -0.707107 110.875 90.0383)" stroke="#D9D9D9" stroke-width="4"/>
<path class="transparent-fill primary-stroke" d="M150.505 132.304L184.092 165.891C184.873 166.672 186.14 166.672 186.921 165.891L201.063 151.749C201.844 150.968 203.11 150.968 203.891 151.749L250.328 198.186C250.703 198.561 250.914 199.07 250.914 199.6L250.914 227.224" stroke="#D9D9D9" stroke-width="4"/>
<line class="transparent-fill transparent-stroke" y1="-2" x2="80" y2="-2" transform="matrix(0.707107 0.707107 0.707107 -0.707107 128.901 72.0125)" stroke="#D9D9D9" stroke-width="4"/>
<path class="transparent-fill transparent-stroke" d="M222.629 105.434C223.41 104.653 224.677 104.653 225.458 105.434C226.239 106.215 226.239 107.481 225.458 108.262L222.629 105.434ZM146.927 53.9864L210.502 117.561L207.673 120.39L144.098 56.8148L146.927 53.9864ZM210.502 117.561L222.629 105.434L225.458 108.262L213.33 120.39L210.502 117.561ZM210.502 117.561L210.502 117.561L213.33 120.39C211.768 121.952 209.235 121.952 207.673 120.39L210.502 117.561Z" fill="#D9D9D9"/>
<path class="primary-fill transparent-stroke" d="M235.663 106.671C236.444 107.452 236.444 108.719 235.663 109.5C234.882 110.281 233.616 110.281 232.835 109.5L235.663 106.671ZM164.953 35.9605L235.663 106.671L232.835 109.5L162.124 38.789L164.953 35.9605Z" fill="#D9D9D9"/>
<path class="primary-fill transparent-stroke" d="M474.209 106.085C475.313 106.085 476.209 106.981 476.209 108.085C476.209 109.19 475.313 110.085 474.209 110.085V106.085ZM234.209 106.085L474.209 106.085V110.085L234.209 110.085V106.085Z" fill="#D9D9D9"/>
<line class="transparent-fill transparent-stroke" x1="2" y1="-2" x2="78" y2="-2" transform="matrix(0.707107 0.707107 0.707107 -0.707107 182.979 17.9346)" stroke="#D9D9D9" stroke-width="4" stroke-linecap="round"/>
<line class="transparent-fill transparent-stroke" x1="2" y1="-2" x2="78" y2="-2" transform="matrix(0.707107 0.707107 0.707107 -0.707107 201.005 -0.0913086)" stroke="#D9D9D9" stroke-width="4" stroke-linecap="round"/>
<path class="transparent-fill transparent-stroke" d="M236.909 74.3152L254.912 56.3122" stroke="#D9D9D9" stroke-width="12"/>
<path class="primary-fill transparent-stroke" d="M260 151.624C258.133 151.624 256.453 151.397 254.96 150.944C253.467 150.464 252.04 149.637 250.68 148.464C250.333 148.171 250.067 147.837 249.88 147.464C249.693 147.091 249.6 146.717 249.6 146.344C249.6 145.731 249.813 145.197 250.24 144.744C250.693 144.264 251.253 144.024 251.92 144.024C252.427 144.024 252.88 144.184 253.28 144.504C254.293 145.331 255.293 145.957 256.28 146.384C257.293 146.811 258.533 147.024 260 147.024C260.987 147.024 261.893 146.877 262.72 146.584C263.547 146.264 264.213 145.851 264.72 145.344C265.227 144.811 265.48 144.211 265.48 143.544C265.48 142.744 265.24 142.064 264.76 141.504C264.28 140.944 263.547 140.477 262.56 140.104C261.573 139.704 260.32 139.397 258.8 139.184C257.36 138.971 256.093 138.651 255 138.224C253.907 137.771 252.987 137.211 252.24 136.544C251.52 135.851 250.973 135.051 250.6 134.144C250.227 133.211 250.04 132.171 250.04 131.024C250.04 129.291 250.48 127.811 251.36 126.584C252.267 125.357 253.48 124.424 255 123.784C256.52 123.144 258.2 122.824 260.04 122.824C261.773 122.824 263.373 123.091 264.84 123.624C266.333 124.131 267.547 124.784 268.48 125.584C269.253 126.197 269.64 126.904 269.64 127.704C269.64 128.291 269.413 128.824 268.96 129.304C268.507 129.784 267.973 130.024 267.36 130.024C266.96 130.024 266.6 129.904 266.28 129.664C265.853 129.291 265.28 128.944 264.56 128.624C263.84 128.277 263.08 127.997 262.28 127.784C261.48 127.544 260.733 127.424 260.04 127.424C258.893 127.424 257.92 127.571 257.12 127.864C256.347 128.157 255.76 128.557 255.36 129.064C254.96 129.571 254.76 130.157 254.76 130.824C254.76 131.624 254.987 132.291 255.44 132.824C255.92 133.331 256.6 133.744 257.48 134.064C258.36 134.357 259.413 134.624 260.64 134.864C262.24 135.157 263.64 135.504 264.84 135.904C266.067 136.304 267.08 136.824 267.88 137.464C268.68 138.077 269.28 138.864 269.68 139.824C270.08 140.757 270.28 141.904 270.28 143.264C270.28 144.997 269.8 146.491 268.84 147.744C267.88 148.997 266.613 149.957 265.04 150.624C263.493 151.291 261.813 151.624 260 151.624ZM300.627 137.224C300.627 139.224 300.294 141.091 299.627 142.824C298.961 144.557 298.014 146.091 296.787 147.424C295.587 148.731 294.147 149.757 292.467 150.504C290.814 151.251 289.001 151.624 287.027 151.624C285.054 151.624 283.241 151.251 281.587 150.504C279.934 149.757 278.494 148.731 277.267 147.424C276.067 146.091 275.134 144.557 274.467 142.824C273.801 141.091 273.467 139.224 273.467 137.224C273.467 135.224 273.801 133.357 274.467 131.624C275.134 129.891 276.067 128.371 277.267 127.064C278.494 125.731 279.934 124.691 281.587 123.944C283.241 123.197 285.054 122.824 287.027 122.824C289.001 122.824 290.814 123.197 292.467 123.944C294.147 124.691 295.587 125.731 296.787 127.064C298.014 128.371 298.961 129.891 299.627 131.624C300.294 133.357 300.627 135.224 300.627 137.224ZM295.427 137.224C295.427 135.437 295.067 133.824 294.347 132.384C293.627 130.917 292.641 129.757 291.387 128.904C290.134 128.051 288.681 127.624 287.027 127.624C285.374 127.624 283.921 128.051 282.667 128.904C281.414 129.757 280.427 130.904 279.707 132.344C279.014 133.784 278.667 135.411 278.667 137.224C278.667 139.011 279.014 140.637 279.707 142.104C280.427 143.544 281.414 144.691 282.667 145.544C283.921 146.397 285.374 146.824 287.027 146.824C288.681 146.824 290.134 146.397 291.387 145.544C292.641 144.691 293.627 143.544 294.347 142.104C295.067 140.637 295.427 139.011 295.427 137.224ZM307.739 151.224C306.992 151.224 306.379 150.997 305.899 150.544C305.445 150.064 305.219 149.477 305.219 148.784V125.664C305.219 124.971 305.445 124.397 305.899 123.944C306.379 123.464 306.965 123.224 307.659 123.224L320.659 123.224C321.352 123.224 321.925 123.451 322.379 123.904C322.859 124.331 323.099 124.891 323.099 125.584C323.099 126.171 322.859 126.691 322.379 127.144C321.925 127.597 321.352 127.824 320.659 127.824H309.859L310.219 127.344V135.384L309.939 134.864H318.859C319.552 134.864 320.125 135.091 320.579 135.544C321.059 135.971 321.299 136.531 321.299 137.224C321.299 137.811 321.059 138.331 320.579 138.784C320.125 139.237 319.552 139.464 318.859 139.464H309.859L310.219 139.104V148.784C310.219 149.477 309.965 150.064 309.459 150.544C308.979 150.997 308.405 151.224 307.739 151.224ZM337.746 151.224C336.999 151.224 336.386 150.997 335.906 150.544C335.426 150.064 335.186 149.477 335.186 148.784V125.584H340.386V148.784C340.386 149.477 340.132 150.064 339.626 150.544C339.146 150.997 338.519 151.224 337.746 151.224ZM328.906 127.824C328.212 127.824 327.626 127.611 327.146 127.184C326.692 126.757 326.466 126.197 326.466 125.504C326.466 124.811 326.692 124.264 327.146 123.864C327.626 123.437 328.212 123.224 328.906 123.224H346.666C347.359 123.224 347.932 123.437 348.386 123.864C348.866 124.291 349.106 124.851 349.106 125.544C349.106 126.237 348.866 126.797 348.386 127.224C347.932 127.624 347.359 127.824 346.666 127.824H328.906ZM373.516 151.624C371.649 151.624 369.969 151.397 368.476 150.944C366.982 150.464 365.556 149.637 364.196 148.464C363.849 148.171 363.582 147.837 363.396 147.464C363.209 147.091 363.116 146.717 363.116 146.344C363.116 145.731 363.329 145.197 363.756 144.744C364.209 144.264 364.769 144.024 365.436 144.024C365.942 144.024 366.396 144.184 366.796 144.504C367.809 145.331 368.809 145.957 369.796 146.384C370.809 146.811 372.049 147.024 373.516 147.024C374.502 147.024 375.409 146.877 376.236 146.584C377.062 146.264 377.729 145.851 378.236 145.344C378.742 144.811 378.996 144.211 378.996 143.544C378.996 142.744 378.756 142.064 378.276 141.504C377.796 140.944 377.062 140.477 376.076 140.104C375.089 139.704 373.836 139.397 372.316 139.184C370.876 138.971 369.609 138.651 368.516 138.224C367.422 137.771 366.502 137.211 365.756 136.544C365.036 135.851 364.489 135.051 364.116 134.144C363.742 133.211 363.556 132.171 363.556 131.024C363.556 129.291 363.996 127.811 364.876 126.584C365.782 125.357 366.996 124.424 368.516 123.784C370.036 123.144 371.716 122.824 373.556 122.824C375.289 122.824 376.889 123.091 378.356 123.624C379.849 124.131 381.062 124.784 381.996 125.584C382.769 126.197 383.156 126.904 383.156 127.704C383.156 128.291 382.929 128.824 382.476 129.304C382.022 129.784 381.489 130.024 380.876 130.024C380.476 130.024 380.116 129.904 379.796 129.664C379.369 129.291 378.796 128.944 378.076 128.624C377.356 128.277 376.596 127.997 375.796 127.784C374.996 127.544 374.249 127.424 373.556 127.424C372.409 127.424 371.436 127.571 370.636 127.864C369.862 128.157 369.276 128.557 368.876 129.064C368.476 129.571 368.276 130.157 368.276 130.824C368.276 131.624 368.502 132.291 368.956 132.824C369.436 133.331 370.116 133.744 370.996 134.064C371.876 134.357 372.929 134.624 374.156 134.864C375.756 135.157 377.156 135.504 378.356 135.904C379.582 136.304 380.596 136.824 381.396 137.464C382.196 138.077 382.796 138.864 383.196 139.824C383.596 140.757 383.796 141.904 383.796 143.264C383.796 144.997 383.316 146.491 382.356 147.744C381.396 148.997 380.129 149.957 378.556 150.624C377.009 151.291 375.329 151.624 373.516 151.624ZM407.663 151.224C406.916 151.224 406.316 150.917 405.863 150.304L396.623 138.144L400.263 134.424L409.823 147.064C410.196 147.571 410.383 148.117 410.383 148.704C410.383 149.451 410.103 150.064 409.543 150.544C408.983 150.997 408.356 151.224 407.663 151.224ZM408.143 123.024C408.783 123.024 409.303 123.291 409.703 123.824C410.129 124.331 410.343 124.851 410.343 125.384C410.343 125.944 410.103 126.464 409.623 126.944L392.863 142.984L392.663 137.264L406.183 123.944C406.796 123.331 407.449 123.024 408.143 123.024ZM390.863 151.224C390.116 151.224 389.516 150.997 389.063 150.544C388.609 150.064 388.383 149.477 388.383 148.784V125.664C388.383 124.971 388.623 124.397 389.103 123.944C389.583 123.464 390.196 123.224 390.943 123.224C391.689 123.224 392.276 123.464 392.703 123.944C393.156 124.397 393.383 124.971 393.383 125.664V148.784C393.383 149.477 393.156 150.064 392.703 150.544C392.249 150.997 391.636 151.224 390.863 151.224ZM419.594 148.784C419.594 149.477 419.34 150.064 418.834 150.544C418.327 150.997 417.74 151.224 417.074 151.224C416.327 151.224 415.727 150.997 415.274 150.544C414.82 150.064 414.594 149.477 414.594 148.784V125.664C414.594 124.971 414.834 124.397 415.314 123.944C415.794 123.464 416.407 123.224 417.154 123.224C417.794 123.224 418.354 123.464 418.834 123.944C419.34 124.397 419.594 124.971 419.594 125.664V148.784ZM441.049 146.544C441.743 146.544 442.316 146.771 442.769 147.224C443.249 147.651 443.489 148.211 443.489 148.904C443.489 149.571 443.249 150.131 442.769 150.584C442.316 151.011 441.743 151.224 441.049 151.224H428.049C427.356 151.224 426.769 150.997 426.289 150.544C425.836 150.064 425.609 149.477 425.609 148.784V125.664C425.609 124.971 425.849 124.397 426.329 123.944C426.809 123.464 427.423 123.224 428.169 123.224C428.809 123.224 429.369 123.464 429.849 123.944C430.356 124.397 430.609 124.971 430.609 125.664V147.224L429.729 146.544H441.049ZM463.51 146.544C464.204 146.544 464.777 146.771 465.23 147.224C465.71 147.651 465.95 148.211 465.95 148.904C465.95 149.571 465.71 150.131 465.23 150.584C464.777 151.011 464.204 151.224 463.51 151.224H450.51C449.817 151.224 449.23 150.997 448.75 150.544C448.297 150.064 448.07 149.477 448.07 148.784V125.664C448.07 124.971 448.31 124.397 448.79 123.944C449.27 123.464 449.884 123.224 450.63 123.224C451.27 123.224 451.83 123.464 452.31 123.944C452.817 124.397 453.07 124.971 453.07 125.664V147.224L452.19 146.544H463.51Z" fill="#D9D9D9"/>
<circle class="primary-fill transparent-stroke" cx="4" cy="4" r="4" transform="matrix(1 0 0 -1 135.409 125.315)" fill="#D9D9D9"/>
<circle class="primary-fill transparent-stroke" cx="4" cy="4" r="4" transform="matrix(1 0 0 -1 146.505 136.789)" fill="#D9D9D9"/>
<path class="transparent-fill transparent-stroke" d="M233.236 97.6555L262.581 68.3105L375.718 68.3106" stroke="#D9D9D9" stroke-width="4" stroke-linecap="round"/>
<circle class="transparent-fill transparent-stroke" cx="8" cy="8" r="6" transform="matrix(0.707107 -0.707107 -0.707107 -0.707107 188.193 145.527)" stroke="#D9D9D9" stroke-width="4"/>
<circle class="transparent-fill transparent-stroke" cx="8" cy="8" r="6" transform="matrix(0.707107 -0.707107 -0.707107 -0.707107 191.314 256.224)" stroke="#D9D9D9" stroke-width="4"/>
<circle class="transparent-fill transparent-stroke" cx="8" cy="8" r="6" transform="matrix(0.707107 -0.707107 -0.707107 -0.707107 192.224 222.106)" stroke="#D9D9D9" stroke-width="4"/>
<rect class="transparent-fill transparent-stroke" width="11" height="18" transform="matrix(0.707107 -0.707107 -0.707107 -0.707107 156.869 182.508)" fill="#D9D9D9"/>
<path class="primary-fill transparent-stroke" d="M243.864 253.224C243.453 253.224 243.116 253.099 242.852 252.85C242.588 252.586 242.456 252.263 242.456 251.882V239.122H245.316V251.882C245.316 252.263 245.177 252.586 244.898 252.85C244.634 253.099 244.289 253.224 243.864 253.224ZM239.002 240.354C238.621 240.354 238.298 240.237 238.034 240.002C237.785 239.767 237.66 239.459 237.66 239.078C237.66 238.697 237.785 238.396 238.034 238.176C238.298 237.941 238.621 237.824 239.002 237.824H248.77C249.151 237.824 249.467 237.941 249.716 238.176C249.98 238.411 250.112 238.719 250.112 239.1C250.112 239.481 249.98 239.789 249.716 240.024C249.467 240.244 249.151 240.354 248.77 240.354H239.002ZM257.371 253.444C256.345 253.444 255.421 253.319 254.599 253.07C253.778 252.806 252.993 252.351 252.245 251.706C252.055 251.545 251.908 251.361 251.805 251.156C251.703 250.951 251.651 250.745 251.651 250.54C251.651 250.203 251.769 249.909 252.003 249.66C252.253 249.396 252.561 249.264 252.927 249.264C253.206 249.264 253.455 249.352 253.675 249.528C254.233 249.983 254.783 250.327 255.325 250.562C255.883 250.797 256.565 250.914 257.371 250.914C257.914 250.914 258.413 250.833 258.867 250.672C259.322 250.496 259.689 250.269 259.967 249.99C260.246 249.697 260.385 249.367 260.385 249C260.385 248.56 260.253 248.186 259.989 247.878C259.725 247.57 259.322 247.313 258.779 247.108C258.237 246.888 257.547 246.719 256.711 246.602C255.919 246.485 255.223 246.309 254.621 246.074C254.02 245.825 253.514 245.517 253.103 245.15C252.707 244.769 252.407 244.329 252.201 243.83C251.996 243.317 251.893 242.745 251.893 242.114C251.893 241.161 252.135 240.347 252.619 239.672C253.118 238.997 253.785 238.484 254.621 238.132C255.457 237.78 256.381 237.604 257.393 237.604C258.347 237.604 259.227 237.751 260.033 238.044C260.855 238.323 261.522 238.682 262.035 239.122C262.461 239.459 262.673 239.848 262.673 240.288C262.673 240.611 262.549 240.904 262.299 241.168C262.05 241.432 261.757 241.564 261.419 241.564C261.199 241.564 261.001 241.498 260.825 241.366C260.591 241.161 260.275 240.97 259.879 240.794C259.483 240.603 259.065 240.449 258.625 240.332C258.185 240.2 257.775 240.134 257.393 240.134C256.763 240.134 256.227 240.215 255.787 240.376C255.362 240.537 255.039 240.757 254.819 241.036C254.599 241.315 254.489 241.637 254.489 242.004C254.489 242.444 254.614 242.811 254.863 243.104C255.127 243.383 255.501 243.61 255.985 243.786C256.469 243.947 257.049 244.094 257.723 244.226C258.603 244.387 259.373 244.578 260.033 244.798C260.708 245.018 261.265 245.304 261.705 245.656C262.145 245.993 262.475 246.426 262.695 246.954C262.915 247.467 263.025 248.098 263.025 248.846C263.025 249.799 262.761 250.621 262.233 251.31C261.705 251.999 261.009 252.527 260.143 252.894C259.293 253.261 258.369 253.444 257.371 253.444Z" fill="#D9D9D9"/>
<rect class="transparent-fill primary-stroke" x="-1" y="1" width="34" height="34" transform="matrix(1 0 0 -1 235 263.224)" stroke="#D9D9D9" stroke-width="2"/>
<path class="transparent-fill primary-stroke" d="M269 245.224L286 245.224H295" stroke="#D9D9D9" stroke-width="2"/>
<path class="transparent-fill primary-stroke" d="M269 255.224H286V281.224H293" stroke="#D9D9D9" stroke-width="2"/>
<path class="transparent-fill primary-stroke" d="M269 235.224H286V209.224H293" stroke="#D9D9D9" stroke-width="2"/>
<path class="primary-fill transparent-stroke" d="M321.764 285.224C321.54 285.224 321.34 285.156 321.164 285.02C320.988 284.876 320.9 284.7 320.9 284.492V277.556C320.9 277.348 320.968 277.176 321.104 277.04C321.248 276.896 321.424 276.824 321.632 276.824H325.088C325.504 276.824 325.892 276.936 326.252 277.16C326.62 277.376 326.916 277.68 327.14 278.072C327.364 278.456 327.476 278.9 327.476 279.404C327.476 279.708 327.412 280.004 327.284 280.292C327.164 280.58 326.996 280.84 326.78 281.072C326.572 281.304 326.336 281.484 326.072 281.612L326.084 281.336C326.308 281.456 326.492 281.6 326.636 281.768C326.788 281.928 326.904 282.104 326.984 282.296C327.072 282.48 327.124 282.68 327.14 282.896C327.172 283.096 327.192 283.272 327.2 283.424C327.216 283.576 327.24 283.704 327.272 283.808C327.312 283.912 327.384 283.992 327.488 284.048C327.664 284.152 327.772 284.304 327.812 284.504C327.86 284.696 327.816 284.868 327.68 285.02C327.592 285.124 327.48 285.192 327.344 285.224C327.208 285.248 327.072 285.248 326.936 285.224C326.8 285.192 326.688 285.152 326.6 285.104C326.464 285.024 326.328 284.908 326.192 284.756C326.056 284.596 325.944 284.384 325.856 284.12C325.776 283.856 325.736 283.516 325.736 283.1C325.736 282.964 325.712 282.84 325.664 282.728C325.616 282.608 325.548 282.508 325.46 282.428C325.372 282.34 325.26 282.276 325.124 282.236C324.988 282.188 324.828 282.164 324.644 282.164H322.22L322.4 281.888V284.492C322.4 284.7 322.344 284.876 322.232 285.02C322.12 285.156 321.964 285.224 321.764 285.224ZM322.232 280.928H325.028C325.172 280.928 325.312 280.864 325.448 280.736C325.584 280.6 325.696 280.42 325.784 280.196C325.872 279.964 325.916 279.712 325.916 279.44C325.916 279.088 325.82 278.796 325.628 278.564C325.444 278.324 325.244 278.204 325.028 278.204H322.256L322.4 277.82V281.216L322.232 280.928ZM329.87 276.824H333.89C334.098 276.824 334.27 276.892 334.406 277.028C334.55 277.156 334.622 277.324 334.622 277.532C334.622 277.732 334.55 277.896 334.406 278.024C334.27 278.144 334.098 278.204 333.89 278.204H330.53L330.638 278V280.34L330.542 280.244H333.35C333.558 280.244 333.73 280.312 333.866 280.448C334.01 280.576 334.082 280.744 334.082 280.952C334.082 281.152 334.01 281.316 333.866 281.444C333.73 281.564 333.558 281.624 333.35 281.624H330.578L330.638 281.528V283.952L330.542 283.844H333.89C334.098 283.844 334.27 283.916 334.406 284.06C334.55 284.196 334.622 284.356 334.622 284.54C334.622 284.74 334.55 284.904 334.406 285.032C334.27 285.16 334.098 285.224 333.89 285.224H329.87C329.662 285.224 329.486 285.156 329.342 285.02C329.206 284.876 329.138 284.7 329.138 284.492V277.556C329.138 277.348 329.206 277.176 329.342 277.04C329.486 276.896 329.662 276.824 329.87 276.824ZM339.089 278.708L336.497 284.804C336.441 284.956 336.353 285.076 336.233 285.164C336.121 285.244 335.997 285.284 335.861 285.284C335.645 285.284 335.485 285.224 335.381 285.104C335.277 284.984 335.225 284.836 335.225 284.66C335.225 284.588 335.237 284.512 335.261 284.432L338.249 277.256C338.313 277.096 338.409 276.972 338.537 276.884C338.673 276.796 338.817 276.76 338.969 276.776C339.113 276.776 339.245 276.82 339.365 276.908C339.493 276.988 339.585 277.104 339.641 277.256L342.593 284.288C342.633 284.392 342.653 284.488 342.653 284.576C342.653 284.792 342.581 284.964 342.437 285.092C342.301 285.22 342.149 285.284 341.981 285.284C341.837 285.284 341.705 285.24 341.585 285.152C341.473 285.064 341.385 284.944 341.321 284.792L338.741 278.78L339.089 278.708ZM336.869 283.34L337.529 281.96H340.769L340.997 283.34H336.869ZM349.491 277.232C349.699 277.336 349.819 277.5 349.851 277.724C349.891 277.948 349.835 278.152 349.683 278.336C349.579 278.48 349.443 278.56 349.275 278.576C349.115 278.592 348.951 278.56 348.783 278.48C348.591 278.392 348.387 278.324 348.171 278.276C347.963 278.228 347.743 278.204 347.511 278.204C347.079 278.204 346.691 278.272 346.347 278.408C346.011 278.544 345.723 278.74 345.483 278.996C345.243 279.244 345.059 279.54 344.931 279.884C344.811 280.228 344.751 280.608 344.751 281.024C344.751 281.512 344.819 281.936 344.955 282.296C345.099 282.656 345.295 282.956 345.543 283.196C345.791 283.436 346.083 283.616 346.419 283.736C346.755 283.848 347.119 283.904 347.511 283.904C347.727 283.904 347.943 283.884 348.159 283.844C348.375 283.804 348.583 283.732 348.783 283.628C348.951 283.548 349.115 283.52 349.275 283.544C349.443 283.568 349.583 283.652 349.695 283.796C349.855 283.996 349.911 284.204 349.863 284.42C349.823 284.628 349.703 284.78 349.503 284.876C349.295 284.98 349.079 285.068 348.855 285.14C348.639 285.204 348.419 285.252 348.195 285.284C347.971 285.324 347.743 285.344 347.511 285.344C346.935 285.344 346.387 285.252 345.867 285.068C345.355 284.884 344.895 284.612 344.487 284.252C344.087 283.892 343.771 283.444 343.539 282.908C343.307 282.364 343.191 281.736 343.191 281.024C343.191 280.408 343.295 279.84 343.503 279.32C343.719 278.8 344.019 278.352 344.403 277.976C344.795 277.592 345.255 277.296 345.783 277.088C346.311 276.872 346.887 276.764 347.511 276.764C347.863 276.764 348.207 276.804 348.543 276.884C348.879 276.964 349.195 277.08 349.491 277.232ZM353.978 285.224C353.754 285.224 353.57 285.156 353.426 285.02C353.282 284.876 353.21 284.7 353.21 284.492V277.532H354.77V284.492C354.77 284.7 354.694 284.876 354.542 285.02C354.398 285.156 354.21 285.224 353.978 285.224ZM351.326 278.204C351.118 278.204 350.942 278.14 350.798 278.012C350.662 277.884 350.594 277.716 350.594 277.508C350.594 277.3 350.662 277.136 350.798 277.016C350.942 276.888 351.118 276.824 351.326 276.824H356.654C356.862 276.824 357.034 276.888 357.17 277.016C357.314 277.144 357.386 277.312 357.386 277.52C357.386 277.728 357.314 277.896 357.17 278.024C357.034 278.144 356.862 278.204 356.654 278.204H351.326Z" fill="#D9D9D9"/>
<rect class="transparent-fill primary-stroke" x="-1" y="1" width="90" height="26" transform="matrix(1 0 0 -1 295 295.224)" stroke="#D9D9D9" stroke-width="2"/>
<path class="primary-fill transparent-stroke" d="M324.272 240.824C324.464 240.824 324.62 240.888 324.74 241.016C324.86 241.144 324.92 241.304 324.92 241.496V248.492C324.92 248.7 324.848 248.876 324.704 249.02C324.568 249.156 324.396 249.224 324.188 249.224C324.084 249.224 323.976 249.208 323.864 249.176C323.76 249.136 323.68 249.084 323.624 249.02L318.908 243.032L319.22 242.84V248.552C319.22 248.744 319.156 248.904 319.028 249.032C318.908 249.16 318.748 249.224 318.548 249.224C318.356 249.224 318.2 249.16 318.08 249.032C317.96 248.904 317.9 248.744 317.9 248.552V241.556C317.9 241.348 317.968 241.176 318.104 241.04C318.248 240.896 318.424 240.824 318.632 240.824C318.744 240.824 318.86 240.848 318.98 240.896C319.1 240.936 319.188 241 319.244 241.088L323.816 246.92L323.612 247.064V241.496C323.612 241.304 323.672 241.144 323.792 241.016C323.912 240.888 324.072 240.824 324.272 240.824ZM327.456 240.824H331.476C331.684 240.824 331.856 240.892 331.992 241.028C332.136 241.156 332.208 241.324 332.208 241.532C332.208 241.732 332.136 241.896 331.992 242.024C331.856 242.144 331.684 242.204 331.476 242.204H328.116L328.224 242V244.34L328.128 244.244H330.936C331.144 244.244 331.316 244.312 331.452 244.448C331.596 244.576 331.668 244.744 331.668 244.952C331.668 245.152 331.596 245.316 331.452 245.444C331.316 245.564 331.144 245.624 330.936 245.624H328.164L328.224 245.528V247.952L328.128 247.844H331.476C331.684 247.844 331.856 247.916 331.992 248.06C332.136 248.196 332.208 248.356 332.208 248.54C332.208 248.74 332.136 248.904 331.992 249.032C331.856 249.16 331.684 249.224 331.476 249.224H327.456C327.248 249.224 327.072 249.156 326.928 249.02C326.792 248.876 326.724 248.7 326.724 248.492V241.556C326.724 241.348 326.792 241.176 326.928 241.04C327.072 240.896 327.248 240.824 327.456 240.824ZM339.339 240.812C339.523 240.812 339.679 240.884 339.807 241.028C339.943 241.172 340.011 241.324 340.011 241.484C340.011 241.636 339.959 241.78 339.855 241.916L337.443 245.096L336.627 243.98L338.751 241.16C338.919 240.928 339.115 240.812 339.339 240.812ZM333.987 240.788C334.219 240.788 334.415 240.892 334.575 241.1L339.855 248.12C339.951 248.248 339.999 248.396 339.999 248.564C339.999 248.788 339.919 248.964 339.759 249.092C339.599 249.22 339.439 249.284 339.279 249.284C339.047 249.284 338.851 249.18 338.691 248.972L333.411 241.952C333.307 241.824 333.255 241.68 333.255 241.52C333.255 241.312 333.331 241.14 333.483 241.004C333.643 240.86 333.811 240.788 333.987 240.788ZM333.879 249.284C333.703 249.284 333.551 249.22 333.423 249.092C333.295 248.956 333.231 248.808 333.231 248.648C333.231 248.472 333.291 248.308 333.411 248.156L335.847 244.856L336.639 246.02L334.479 248.948C334.319 249.172 334.119 249.284 333.879 249.284ZM344.299 249.224C344.075 249.224 343.891 249.156 343.747 249.02C343.603 248.876 343.531 248.7 343.531 248.492V241.532H345.091V248.492C345.091 248.7 345.015 248.876 344.863 249.02C344.719 249.156 344.531 249.224 344.299 249.224ZM341.647 242.204C341.439 242.204 341.263 242.14 341.119 242.012C340.983 241.884 340.915 241.716 340.915 241.508C340.915 241.3 340.983 241.136 341.119 241.016C341.263 240.888 341.439 240.824 341.647 240.824H346.975C347.183 240.824 347.355 240.888 347.491 241.016C347.635 241.144 347.707 241.312 347.707 241.52C347.707 241.728 347.635 241.896 347.491 242.024C347.355 242.144 347.183 242.204 346.975 242.204H341.647ZM350.137 249.344C349.681 249.344 349.257 249.252 348.865 249.068C348.473 248.884 348.153 248.62 347.905 248.276C347.809 248.132 347.761 247.992 347.761 247.856C347.761 247.656 347.837 247.488 347.989 247.352C348.149 247.216 348.305 247.148 348.457 247.148C348.577 247.148 348.693 247.184 348.805 247.256C348.925 247.328 349.033 247.412 349.129 247.508C349.289 247.652 349.445 247.756 349.597 247.82C349.757 247.876 349.937 247.904 350.137 247.904C350.377 247.904 350.601 247.844 350.809 247.724C351.017 247.604 351.185 247.444 351.313 247.244C351.441 247.044 351.505 246.828 351.505 246.596V241.556C351.505 241.348 351.581 241.176 351.733 241.04C351.885 240.896 352.061 240.824 352.261 240.824C352.485 240.824 352.665 240.896 352.801 241.04C352.937 241.176 353.005 241.348 353.005 241.556V246.596C353.005 247.084 352.877 247.536 352.621 247.952C352.365 248.368 352.021 248.704 351.589 248.96C351.157 249.216 350.673 249.344 350.137 249.344ZM357.502 249.344C356.942 249.344 356.438 249.276 355.99 249.14C355.542 248.996 355.114 248.748 354.706 248.396C354.602 248.308 354.522 248.208 354.466 248.096C354.41 247.984 354.382 247.872 354.382 247.76C354.382 247.576 354.446 247.416 354.574 247.28C354.71 247.136 354.878 247.064 355.078 247.064C355.23 247.064 355.366 247.112 355.486 247.208C355.79 247.456 356.09 247.644 356.386 247.772C356.69 247.9 357.062 247.964 357.502 247.964C357.798 247.964 358.07 247.92 358.318 247.832C358.566 247.736 358.766 247.612 358.918 247.46C359.07 247.3 359.146 247.12 359.146 246.92C359.146 246.68 359.074 246.476 358.93 246.308C358.786 246.14 358.566 246 358.27 245.888C357.974 245.768 357.598 245.676 357.142 245.612C356.71 245.548 356.33 245.452 356.002 245.324C355.674 245.188 355.398 245.02 355.174 244.82C354.958 244.612 354.794 244.372 354.682 244.1C354.57 243.82 354.514 243.508 354.514 243.164C354.514 242.644 354.646 242.2 354.91 241.832C355.182 241.464 355.546 241.184 356.002 240.992C356.458 240.8 356.962 240.704 357.514 240.704C358.034 240.704 358.514 240.784 358.954 240.944C359.402 241.096 359.766 241.292 360.046 241.532C360.278 241.716 360.394 241.928 360.394 242.168C360.394 242.344 360.326 242.504 360.19 242.648C360.054 242.792 359.894 242.864 359.71 242.864C359.59 242.864 359.482 242.828 359.386 242.756C359.258 242.644 359.086 242.54 358.87 242.444C358.654 242.34 358.426 242.256 358.186 242.192C357.946 242.12 357.722 242.084 357.514 242.084C357.17 242.084 356.878 242.128 356.638 242.216C356.406 242.304 356.23 242.424 356.11 242.576C355.99 242.728 355.93 242.904 355.93 243.104C355.93 243.344 355.998 243.544 356.134 243.704C356.278 243.856 356.482 243.98 356.746 244.076C357.01 244.164 357.326 244.244 357.694 244.316C358.174 244.404 358.594 244.508 358.954 244.628C359.322 244.748 359.626 244.904 359.866 245.096C360.106 245.28 360.286 245.516 360.406 245.804C360.526 246.084 360.586 246.428 360.586 246.836C360.586 247.356 360.442 247.804 360.154 248.18C359.866 248.556 359.486 248.844 359.014 249.044C358.55 249.244 358.046 249.344 357.502 249.344Z" fill="#D9D9D9"/>
<rect class="transparent-fill primary-stroke" x="-1" y="-1" width="26" height="90" transform="matrix(0 1 1 0 295 233.224)" stroke="#D9D9D9" stroke-width="2"/>
<path class="primary-fill transparent-stroke" d="M314.984 206.708L312.392 212.804C312.336 212.956 312.248 213.076 312.128 213.164C312.016 213.244 311.892 213.284 311.756 213.284C311.54 213.284 311.38 213.224 311.276 213.104C311.172 212.984 311.12 212.836 311.12 212.66C311.12 212.588 311.132 212.512 311.156 212.432L314.144 205.256C314.208 205.096 314.304 204.972 314.432 204.884C314.568 204.796 314.712 204.76 314.864 204.776C315.008 204.776 315.14 204.82 315.26 204.908C315.388 204.988 315.48 205.104 315.536 205.256L318.488 212.288C318.528 212.392 318.548 212.488 318.548 212.576C318.548 212.792 318.476 212.964 318.332 213.092C318.196 213.22 318.044 213.284 317.876 213.284C317.732 213.284 317.6 213.24 317.48 213.152C317.368 213.064 317.28 212.944 317.216 212.792L314.636 206.78L314.984 206.708ZM312.764 211.34L313.424 209.96H316.664L316.892 211.34H312.764ZM325.936 204.824C326.128 204.824 326.284 204.888 326.404 205.016C326.524 205.144 326.584 205.304 326.584 205.496V212.492C326.584 212.7 326.512 212.876 326.368 213.02C326.232 213.156 326.06 213.224 325.852 213.224C325.748 213.224 325.64 213.208 325.528 213.176C325.424 213.136 325.344 213.084 325.288 213.02L320.572 207.032L320.884 206.84V212.552C320.884 212.744 320.82 212.904 320.692 213.032C320.572 213.16 320.412 213.224 320.212 213.224C320.02 213.224 319.864 213.16 319.744 213.032C319.624 212.904 319.564 212.744 319.564 212.552V205.556C319.564 205.348 319.632 205.176 319.768 205.04C319.912 204.896 320.088 204.824 320.296 204.824C320.408 204.824 320.524 204.848 320.644 204.896C320.764 204.936 320.852 205 320.908 205.088L325.48 210.92L325.276 211.064V205.496C325.276 205.304 325.336 205.144 325.456 205.016C325.576 204.888 325.736 204.824 325.936 204.824ZM332.348 213.344C331.74 213.344 331.172 213.232 330.644 213.008C330.116 212.784 329.652 212.476 329.252 212.084C328.852 211.684 328.536 211.224 328.304 210.704C328.08 210.184 327.968 209.624 327.968 209.024C327.968 208.424 328.08 207.864 328.304 207.344C328.536 206.824 328.852 206.368 329.252 205.976C329.652 205.576 330.116 205.264 330.644 205.04C331.172 204.816 331.74 204.704 332.348 204.704C332.724 204.704 333.088 204.744 333.44 204.824C333.792 204.904 334.116 205.024 334.412 205.184C334.532 205.248 334.62 205.336 334.676 205.448C334.74 205.552 334.772 205.66 334.772 205.772C334.772 205.964 334.708 206.136 334.58 206.288C334.452 206.44 334.288 206.516 334.088 206.516C334.024 206.516 333.956 206.508 333.884 206.492C333.82 206.476 333.756 206.452 333.692 206.42C333.492 206.332 333.28 206.264 333.056 206.216C332.832 206.168 332.596 206.144 332.348 206.144C331.828 206.144 331.352 206.276 330.92 206.54C330.496 206.796 330.156 207.144 329.9 207.584C329.652 208.016 329.528 208.496 329.528 209.024C329.528 209.544 329.652 210.024 329.9 210.464C330.156 210.904 330.496 211.256 330.92 211.52C331.352 211.776 331.828 211.904 332.348 211.904C332.588 211.904 332.852 211.88 333.14 211.832C333.428 211.784 333.664 211.72 333.848 211.64L333.74 212V209.948L333.944 210.128H332.612C332.404 210.128 332.228 210.06 332.084 209.924C331.948 209.788 331.88 209.616 331.88 209.408C331.88 209.2 331.948 209.028 332.084 208.892C332.228 208.756 332.404 208.688 332.612 208.688H334.58C334.788 208.688 334.96 208.76 335.096 208.904C335.232 209.04 335.3 209.212 335.3 209.42V211.964C335.3 212.124 335.26 212.256 335.18 212.36C335.108 212.464 335.024 212.548 334.928 212.612C334.56 212.836 334.156 213.016 333.716 213.152C333.284 213.28 332.828 213.344 332.348 213.344ZM342.708 204.812C342.916 204.812 343.084 204.884 343.212 205.028C343.34 205.164 343.404 205.336 343.404 205.544V209.888C343.404 210.552 343.26 211.14 342.972 211.652C342.692 212.164 342.304 212.564 341.808 212.852C341.312 213.14 340.736 213.284 340.08 213.284C339.424 213.284 338.844 213.14 338.34 212.852C337.844 212.564 337.452 212.164 337.164 211.652C336.884 211.14 336.744 210.552 336.744 209.888V205.544C336.744 205.336 336.816 205.164 336.96 205.028C337.104 204.884 337.288 204.812 337.512 204.812C337.696 204.812 337.86 204.884 338.004 205.028C338.156 205.164 338.232 205.336 338.232 205.544V209.888C338.232 210.288 338.316 210.636 338.484 210.932C338.66 211.22 338.888 211.444 339.168 211.604C339.456 211.764 339.76 211.844 340.08 211.844C340.424 211.844 340.744 211.764 341.04 211.604C341.336 211.444 341.576 211.22 341.76 210.932C341.944 210.636 342.036 210.288 342.036 209.888V205.544C342.036 205.336 342.096 205.164 342.216 205.028C342.336 204.884 342.5 204.812 342.708 204.812ZM349.837 211.82C350.045 211.82 350.217 211.888 350.353 212.024C350.497 212.152 350.569 212.32 350.569 212.528C350.569 212.728 350.497 212.896 350.353 213.032C350.217 213.16 350.045 213.224 349.837 213.224H345.937C345.729 213.224 345.553 213.156 345.409 213.02C345.273 212.876 345.205 212.7 345.205 212.492V205.556C345.205 205.348 345.277 205.176 345.421 205.04C345.565 204.896 345.749 204.824 345.973 204.824C346.165 204.824 346.333 204.896 346.477 205.04C346.629 205.176 346.705 205.348 346.705 205.556V212.024L346.441 211.82H349.837ZM355.027 206.708L352.435 212.804C352.379 212.956 352.291 213.076 352.171 213.164C352.059 213.244 351.935 213.284 351.799 213.284C351.583 213.284 351.423 213.224 351.319 213.104C351.215 212.984 351.163 212.836 351.163 212.66C351.163 212.588 351.175 212.512 351.199 212.432L354.187 205.256C354.251 205.096 354.347 204.972 354.475 204.884C354.611 204.796 354.755 204.76 354.907 204.776C355.051 204.776 355.183 204.82 355.303 204.908C355.431 204.988 355.523 205.104 355.579 205.256L358.531 212.288C358.571 212.392 358.591 212.488 358.591 212.576C358.591 212.792 358.519 212.964 358.375 213.092C358.239 213.22 358.087 213.284 357.919 213.284C357.775 213.284 357.643 213.24 357.523 213.152C357.411 213.064 357.323 212.944 357.259 212.792L354.679 206.78L355.027 206.708ZM352.807 211.34L353.467 209.96H356.707L356.935 211.34H352.807ZM360.471 213.224C360.247 213.224 360.047 213.156 359.871 213.02C359.695 212.876 359.607 212.7 359.607 212.492V205.556C359.607 205.348 359.675 205.176 359.811 205.04C359.955 204.896 360.131 204.824 360.339 204.824H363.795C364.211 204.824 364.599 204.936 364.959 205.16C365.327 205.376 365.623 205.68 365.847 206.072C366.071 206.456 366.183 206.9 366.183 207.404C366.183 207.708 366.119 208.004 365.991 208.292C365.871 208.58 365.703 208.84 365.487 209.072C365.279 209.304 365.043 209.484 364.779 209.612L364.791 209.336C365.015 209.456 365.199 209.6 365.343 209.768C365.495 209.928 365.611 210.104 365.691 210.296C365.779 210.48 365.831 210.68 365.847 210.896C365.879 211.096 365.899 211.272 365.907 211.424C365.923 211.576 365.947 211.704 365.979 211.808C366.019 211.912 366.091 211.992 366.195 212.048C366.371 212.152 366.479 212.304 366.519 212.504C366.567 212.696 366.523 212.868 366.387 213.02C366.299 213.124 366.187 213.192 366.051 213.224C365.915 213.248 365.779 213.248 365.643 213.224C365.507 213.192 365.395 213.152 365.307 213.104C365.171 213.024 365.035 212.908 364.899 212.756C364.763 212.596 364.651 212.384 364.563 212.12C364.483 211.856 364.443 211.516 364.443 211.1C364.443 210.964 364.419 210.84 364.371 210.728C364.323 210.608 364.255 210.508 364.167 210.428C364.079 210.34 363.967 210.276 363.831 210.236C363.695 210.188 363.535 210.164 363.351 210.164H360.927L361.107 209.888V212.492C361.107 212.7 361.051 212.876 360.939 213.02C360.827 213.156 360.671 213.224 360.471 213.224ZM360.939 208.928H363.735C363.879 208.928 364.019 208.864 364.155 208.736C364.291 208.6 364.403 208.42 364.491 208.196C364.579 207.964 364.623 207.712 364.623 207.44C364.623 207.088 364.527 206.796 364.335 206.564C364.151 206.324 363.951 206.204 363.735 206.204H360.963L361.107 205.82V209.216L360.939 208.928Z" fill="#D9D9D9"/>
<rect class="transparent-fill primary-stroke" x="-1" y="1" width="90" height="26" transform="matrix(1 0 0 -1 295 223.224)" stroke="#D9D9D9" stroke-width="2"/>
<path class="primary-fill transparent-stroke" d="M136.362 220.169C136.657 220.463 136.846 220.822 136.931 221.246C137.021 221.676 137.002 222.115 136.872 222.562C136.741 223.009 136.498 223.41 136.142 223.767C135.791 224.117 135.392 224.358 134.945 224.488C134.498 224.618 134.057 224.641 133.622 224.556C133.197 224.471 132.838 224.281 132.544 223.987L130.983 222.426L131.22 222.358L129.464 224.114C129.317 224.262 129.147 224.341 128.955 224.352C128.768 224.358 128.601 224.287 128.454 224.14C128.313 223.998 128.245 223.834 128.25 223.648C128.262 223.455 128.341 223.286 128.488 223.139L133.393 218.234C133.54 218.087 133.709 218.014 133.902 218.014C134.105 218.014 134.281 218.087 134.428 218.234L136.362 220.169ZM133.511 223.02C133.619 223.127 133.769 223.187 133.961 223.198C134.153 223.209 134.354 223.178 134.564 223.105C134.778 223.025 134.965 222.907 135.124 222.748C135.288 222.584 135.406 222.398 135.48 222.188C135.553 221.979 135.582 221.781 135.565 221.594C135.553 221.402 135.494 221.252 135.387 221.145L133.808 219.566L134.063 219.515L131.899 221.679L131.942 221.45L133.511 223.02ZM142.833 226.588C142.963 226.718 143.028 226.885 143.028 227.089C143.039 227.292 142.969 227.471 142.816 227.623C142.765 227.674 142.703 227.72 142.629 227.759C142.567 227.799 142.493 227.827 142.408 227.844L137.725 228.676L138.463 228.243L136.028 230.678C135.88 230.825 135.705 230.899 135.501 230.899C135.309 230.899 135.148 230.834 135.018 230.704C134.876 230.562 134.803 230.392 134.797 230.194C134.803 229.996 134.879 229.824 135.026 229.677L137.394 227.309L137.19 227.649L137.792 223.381C137.809 223.251 137.841 223.14 137.886 223.05C137.931 222.959 137.982 222.886 138.039 222.829C138.191 222.677 138.375 222.611 138.59 222.634C138.805 222.657 138.975 222.73 139.099 222.855C139.258 223.013 139.317 223.231 139.277 223.508L138.658 227.386L138.454 227.114L142.154 226.419C142.442 226.368 142.669 226.424 142.833 226.588ZM140.232 235.918C140.073 235.759 139.991 235.581 139.986 235.383C139.986 235.179 140.059 235.004 140.206 234.857L145.128 229.935L146.231 231.038L141.309 235.96C141.162 236.107 140.984 236.178 140.775 236.172C140.577 236.166 140.396 236.082 140.232 235.918ZM143.32 229.078C143.173 228.931 143.094 228.762 143.083 228.569C143.077 228.383 143.148 228.216 143.295 228.069C143.442 227.922 143.606 227.854 143.787 227.865C143.979 227.876 144.149 227.955 144.296 228.103L148.064 231.87C148.211 232.017 148.287 232.184 148.293 232.371C148.304 232.563 148.236 232.733 148.089 232.88C147.942 233.027 147.772 233.095 147.58 233.083C147.399 233.072 147.235 232.993 147.088 232.846L143.32 229.078ZM150.015 233.821C150.151 233.957 150.219 234.127 150.219 234.331C150.23 234.534 150.162 234.71 150.015 234.857L145.111 239.761C144.964 239.908 144.785 239.979 144.576 239.973C144.372 239.962 144.2 239.886 144.058 239.744C143.9 239.586 143.821 239.41 143.821 239.218C143.826 239.02 143.903 238.848 144.05 238.7L148.954 233.796C149.101 233.649 149.274 233.578 149.472 233.584C149.676 233.584 149.857 233.663 150.015 233.821ZM153.774 237.58C153.932 237.739 154.009 237.917 154.003 238.115C154.003 238.307 153.93 238.477 153.783 238.624L148.878 243.529C148.731 243.676 148.556 243.749 148.352 243.749C148.16 243.749 147.981 243.667 147.817 243.503C147.682 243.367 147.608 243.198 147.597 242.994C147.597 242.79 147.67 242.615 147.817 242.468L152.722 237.563C152.869 237.416 153.044 237.349 153.248 237.36C153.457 237.365 153.633 237.439 153.774 237.58ZM147.52 236.265L151.305 240.05L150.329 241.025L146.545 237.241L147.52 236.265ZM158.065 247.812C157.641 248.236 157.175 248.561 156.665 248.787C156.156 249.014 155.63 249.138 155.087 249.161C154.555 249.183 154.032 249.096 153.517 248.898C153.008 248.705 152.544 248.4 152.126 247.981C151.707 247.563 151.402 247.099 151.209 246.59C151.017 246.081 150.929 245.557 150.946 245.02C150.975 244.483 151.102 243.959 151.328 243.45C151.554 242.941 151.88 242.474 152.304 242.05C152.728 241.626 153.195 241.301 153.704 241.074C154.213 240.848 154.734 240.724 155.265 240.701C155.808 240.678 156.334 240.763 156.844 240.955C157.353 241.148 157.817 241.453 158.235 241.872C158.654 242.29 158.959 242.754 159.152 243.263C159.35 243.778 159.434 244.304 159.406 244.842C159.389 245.379 159.268 245.902 159.041 246.411C158.815 246.921 158.49 247.387 158.065 247.812ZM156.962 246.708C157.341 246.329 157.607 245.911 157.76 245.453C157.918 244.989 157.955 244.533 157.87 244.087C157.785 243.64 157.568 243.241 157.217 242.89C156.866 242.539 156.467 242.322 156.021 242.237C155.574 242.152 155.121 242.186 154.663 242.339C154.21 242.497 153.792 242.768 153.407 243.153C153.028 243.532 152.757 243.951 152.592 244.409C152.44 244.867 152.406 245.32 152.491 245.767C152.576 246.214 152.793 246.612 153.144 246.963C153.495 247.314 153.894 247.532 154.34 247.616C154.787 247.701 155.24 247.667 155.698 247.515C156.162 247.356 156.583 247.087 156.962 246.708ZM166.515 250.321C166.651 250.457 166.716 250.613 166.71 250.788C166.705 250.963 166.634 251.119 166.498 251.255L161.551 256.202C161.404 256.349 161.229 256.422 161.025 256.422C160.833 256.422 160.663 256.349 160.516 256.202C160.442 256.128 160.377 256.04 160.321 255.939C160.276 255.837 160.256 255.744 160.261 255.659L161.161 248.09L161.517 248.175L157.478 252.214C157.342 252.349 157.184 252.417 157.003 252.417C156.828 252.423 156.669 252.355 156.528 252.214C156.392 252.078 156.327 251.922 156.333 251.747C156.338 251.572 156.409 251.416 156.545 251.28L161.492 246.333C161.639 246.186 161.809 246.113 162.001 246.113C162.205 246.113 162.38 246.186 162.527 246.333C162.606 246.413 162.671 246.512 162.722 246.63C162.779 246.743 162.796 246.851 162.773 246.953L161.882 254.31L161.636 254.267L165.573 250.33C165.709 250.194 165.865 250.123 166.04 250.118C166.215 250.112 166.374 250.18 166.515 250.321Z" fill="#D9D9D9"/>
<rect class="transparent-fill primary-stroke" x="-1.41421" width="90" height="26" transform="matrix(0.707107 0.707107 0.707107 -0.707107 103.586 211.999)" stroke="#D9D9D9" stroke-width="2"/>
<path class="transparent-fill transparent-stroke" d="M195 134.224H212.5L245 164.724H417.5" stroke="#D9D9D9" stroke-width="4"/>
<path class="transparent-fill transparent-stroke" d="M198.396 167.706C198.175 166.623 198.873 165.567 199.956 165.346C201.038 165.125 202.094 165.823 202.315 166.906L198.396 167.706ZM207.263 201.154L209.223 200.754L207.263 201.154ZM232.59 201.954L232.59 203.954L232.59 201.954ZM195.052 239.077L231.883 202.247L234.711 205.075L197.881 241.905L195.052 239.077ZM232.59 203.954L208.243 203.954L208.243 199.954L232.59 199.954L232.59 203.954ZM205.304 201.554L198.396 167.706L202.315 166.906L209.223 200.754L205.304 201.554ZM208.243 203.954C206.818 203.954 205.589 202.951 205.304 201.554L209.223 200.754C209.128 200.288 208.718 199.954 208.243 199.954L208.243 203.954ZM231.883 202.247C231.253 202.877 231.699 203.954 232.59 203.954L232.59 199.954C235.262 199.954 236.601 203.185 234.711 205.075L231.883 202.247Z" fill="#D9D9D9"/>
</g>
<defs>
<clipPath id="clip0_17_121">
<rect width="700" height="400" fill="white"/>
</clipPath>
</defs>
</svg>
