<svg width="700" height="400" viewBox="0 0 700 400" fill="none" xmlns="http://www.w3.org/2000/svg">
<g clip-path="url(#clip0_14_260)">
<line class="transparent-fill transparent-stroke" y1="-2" x2="40" y2="-2" transform="matrix(-0.707107 -0.707107 -0.707107 0.707107 697.08 202.03)" stroke="#D9D9D9" stroke-width="4"/>
<line class="transparent-fill transparent-stroke" y1="-2" x2="40" y2="-2" transform="matrix(-0.707107 -0.707107 -0.707107 0.707107 679.054 220.056)" stroke="#D9D9D9" stroke-width="4"/>
<line class="transparent-fill transparent-stroke" y1="-2" x2="40" y2="-2" transform="matrix(-0.707107 -0.707107 -0.707107 0.707107 661.029 238.082)" stroke="#D9D9D9" stroke-width="4"/>
<line class="transparent-fill primary-stroke" y1="-2" x2="80" y2="-2" transform="matrix(-0.707107 -0.707107 -0.707107 0.707107 643.002 256.108)" stroke="#D9D9D9" stroke-width="4"/>
<line class="transparent-fill transparent-stroke" y1="-2" x2="106.091" y2="-2" transform="matrix(-0.707107 -0.707107 -0.707107 0.707107 501.962 151.205)" stroke="#D9D9D9" stroke-width="4"/>
<line class="transparent-fill transparent-stroke" y1="-2" x2="160" y2="-2" transform="matrix(-0.707107 -0.707107 -0.707107 0.707107 624.977 274.134)" stroke="#D9D9D9" stroke-width="4"/>
<line class="transparent-fill transparent-stroke" y1="-2" x2="80" y2="-2" transform="matrix(-0.707107 -0.707107 -0.707107 0.707107 606.951 292.16)" stroke="#D9D9D9" stroke-width="4"/>
<line class="transparent-fill transparent-stroke" y1="-2" x2="40" y2="-2" transform="matrix(-0.707107 -0.707107 -0.707107 0.707107 537.981 222.665)" stroke="#D9D9D9" stroke-width="4"/>
<line class="transparent-fill primary-stroke" y1="-2" x2="40" y2="-2" transform="matrix(-0.707107 -0.707107 -0.707107 0.707107 588.925 310.186)" stroke="#D9D9D9" stroke-width="4"/>
<path class="transparent-fill primary-stroke" d="M549.295 267.92L515.707 234.332C514.926 233.551 513.66 233.551 512.879 234.332L498.737 248.475C497.956 249.256 496.689 249.256 495.908 248.475L449.472 202.038C449.096 201.663 448.886 201.154 448.886 200.624L448.886 173" stroke="#D9D9D9" stroke-width="4"/>
<line class="transparent-fill transparent-stroke" y1="-2" x2="80" y2="-2" transform="matrix(-0.707107 -0.707107 -0.707107 0.707107 570.899 328.211)" stroke="#D9D9D9" stroke-width="4"/>
<path class="transparent-fill transparent-stroke" d="M477.17 294.79C476.389 295.571 475.123 295.571 474.342 294.79C473.561 294.009 473.561 292.743 474.342 291.962L477.17 294.79ZM552.873 346.237L489.298 282.662L492.126 279.834L555.701 343.409L552.873 346.237ZM489.298 282.662L477.17 294.79L474.342 291.962L486.469 279.834L489.298 282.662ZM489.298 282.662L489.298 282.662L486.469 279.834C488.032 278.272 490.564 278.272 492.126 279.834L489.298 282.662Z" fill="#D9D9D9"/>
<path class="primary-fill transparent-stroke" d="M464.136 293.553C463.355 292.772 463.355 291.505 464.136 290.724C464.917 289.943 466.184 289.943 466.965 290.724L464.136 293.553ZM534.847 364.263L464.136 293.553L466.965 290.724L537.675 361.435L534.847 364.263Z" fill="#D9D9D9"/>
<path class="primary-fill transparent-stroke" d="M225.591 294.139C224.486 294.139 223.591 293.243 223.591 292.139C223.591 291.034 224.486 290.139 225.591 290.139V294.139ZM465.591 294.139H225.591V290.139H465.591V294.139Z" fill="#D9D9D9"/>
<line class="transparent-fill transparent-stroke" x1="2" y1="-2" x2="78" y2="-2" transform="matrix(-0.707107 -0.707107 -0.707107 0.707107 516.821 382.289)" stroke="#D9D9D9" stroke-width="4" stroke-linecap="round"/>
<line class="transparent-fill transparent-stroke" x1="2" y1="-2" x2="78" y2="-2" transform="matrix(-0.707107 -0.707107 -0.707107 0.707107 498.795 400.315)" stroke="#D9D9D9" stroke-width="4" stroke-linecap="round"/>
<path class="transparent-fill transparent-stroke" d="M462.891 325.909L444.888 343.912" stroke="#D9D9D9" stroke-width="12"/>
<path class="primary-fill transparent-stroke" d="M237.8 251C239.72 251 241.426 251.36 242.92 252.08C244.413 252.8 245.666 253.813 246.68 255.12C247.72 256.4 248.493 257.893 249 259.6C249.533 261.28 249.8 263.08 249.8 265C249.8 267.587 249.333 269.947 248.4 272.08C247.466 274.187 246.106 275.867 244.32 277.12C242.56 278.373 240.386 279 237.8 279H228.24C227.546 279 226.96 278.773 226.48 278.32C226.026 277.84 225.8 277.253 225.8 276.56V253.44C225.8 252.747 226.026 252.173 226.48 251.72C226.96 251.24 227.546 251 228.24 251H237.8ZM237.4 274.4C239.08 274.4 240.453 273.973 241.52 273.12C242.586 272.24 243.36 271.093 243.84 269.68C244.346 268.24 244.6 266.68 244.6 265C244.6 263.747 244.453 262.56 244.16 261.44C243.893 260.293 243.466 259.293 242.88 258.44C242.293 257.56 241.546 256.867 240.64 256.36C239.733 255.853 238.653 255.6 237.4 255.6H230.4L230.8 255.24V274.84L230.56 274.4H237.4ZM256.833 251H270.233C270.927 251 271.5 251.227 271.953 251.68C272.433 252.107 272.673 252.667 272.673 253.36C272.673 254.027 272.433 254.573 271.953 255C271.5 255.4 270.927 255.6 270.233 255.6H259.033L259.393 254.92V262.72L259.073 262.4H268.433C269.127 262.4 269.7 262.627 270.153 263.08C270.633 263.507 270.873 264.067 270.873 264.76C270.873 265.427 270.633 265.973 270.153 266.4C269.7 266.8 269.127 267 268.433 267H259.193L259.393 266.68V274.76L259.073 274.4H270.233C270.927 274.4 271.5 274.64 271.953 275.12C272.433 275.573 272.673 276.107 272.673 276.72C272.673 277.387 272.433 277.933 271.953 278.36C271.5 278.787 270.927 279 270.233 279H256.833C256.14 279 255.553 278.773 255.073 278.32C254.62 277.84 254.393 277.253 254.393 276.56V253.44C254.393 252.747 254.62 252.173 255.073 251.72C255.553 251.24 256.14 251 256.833 251ZM286.284 279.4C284.417 279.4 282.737 279.173 281.244 278.72C279.751 278.24 278.324 277.413 276.964 276.24C276.617 275.947 276.351 275.613 276.164 275.24C275.977 274.867 275.884 274.493 275.884 274.12C275.884 273.507 276.097 272.973 276.524 272.52C276.977 272.04 277.537 271.8 278.204 271.8C278.711 271.8 279.164 271.96 279.564 272.28C280.577 273.107 281.577 273.733 282.564 274.16C283.577 274.587 284.817 274.8 286.284 274.8C287.271 274.8 288.177 274.653 289.004 274.36C289.831 274.04 290.497 273.627 291.004 273.12C291.511 272.587 291.764 271.987 291.764 271.32C291.764 270.52 291.524 269.84 291.044 269.28C290.564 268.72 289.831 268.253 288.844 267.88C287.857 267.48 286.604 267.173 285.084 266.96C283.644 266.747 282.377 266.427 281.284 266C280.191 265.547 279.271 264.987 278.524 264.32C277.804 263.627 277.257 262.827 276.884 261.92C276.511 260.987 276.324 259.947 276.324 258.8C276.324 257.067 276.764 255.587 277.644 254.36C278.551 253.133 279.764 252.2 281.284 251.56C282.804 250.92 284.484 250.6 286.324 250.6C288.057 250.6 289.657 250.867 291.124 251.4C292.617 251.907 293.831 252.56 294.764 253.36C295.537 253.973 295.924 254.68 295.924 255.48C295.924 256.067 295.697 256.6 295.244 257.08C294.791 257.56 294.257 257.8 293.644 257.8C293.244 257.8 292.884 257.68 292.564 257.44C292.137 257.067 291.564 256.72 290.844 256.4C290.124 256.053 289.364 255.773 288.564 255.56C287.764 255.32 287.017 255.2 286.324 255.2C285.177 255.2 284.204 255.347 283.404 255.64C282.631 255.933 282.044 256.333 281.644 256.84C281.244 257.347 281.044 257.933 281.044 258.6C281.044 259.4 281.271 260.067 281.724 260.6C282.204 261.107 282.884 261.52 283.764 261.84C284.644 262.133 285.697 262.4 286.924 262.64C288.524 262.933 289.924 263.28 291.124 263.68C292.351 264.08 293.364 264.6 294.164 265.24C294.964 265.853 295.564 266.64 295.964 267.6C296.364 268.533 296.564 269.68 296.564 271.04C296.564 272.773 296.084 274.267 295.124 275.52C294.164 276.773 292.897 277.733 291.324 278.4C289.777 279.067 288.097 279.4 286.284 279.4ZM306.151 276.56C306.151 277.253 305.898 277.84 305.391 278.32C304.884 278.773 304.298 279 303.631 279C302.884 279 302.284 278.773 301.831 278.32C301.378 277.84 301.151 277.253 301.151 276.56V253.44C301.151 252.747 301.391 252.173 301.871 251.72C302.351 251.24 302.964 251 303.711 251C304.351 251 304.911 251.24 305.391 251.72C305.898 252.173 306.151 252.747 306.151 253.44V276.56ZM325.367 279.4C323.34 279.4 321.447 279.027 319.687 278.28C317.927 277.533 316.38 276.507 315.047 275.2C313.713 273.867 312.66 272.333 311.887 270.6C311.14 268.867 310.767 267 310.767 265C310.767 263 311.14 261.133 311.887 259.4C312.66 257.667 313.713 256.147 315.047 254.84C316.38 253.507 317.927 252.467 319.687 251.72C321.447 250.973 323.34 250.6 325.367 250.6C326.62 250.6 327.833 250.733 329.007 251C330.18 251.267 331.26 251.667 332.247 252.2C332.647 252.413 332.94 252.707 333.127 253.08C333.34 253.427 333.447 253.787 333.447 254.16C333.447 254.8 333.233 255.373 332.807 255.88C332.38 256.387 331.833 256.64 331.167 256.64C330.953 256.64 330.727 256.613 330.487 256.56C330.273 256.507 330.06 256.427 329.847 256.32C329.18 256.027 328.473 255.8 327.727 255.64C326.98 255.48 326.193 255.4 325.367 255.4C323.633 255.4 322.047 255.84 320.607 256.72C319.193 257.573 318.06 258.733 317.207 260.2C316.38 261.64 315.967 263.24 315.967 265C315.967 266.733 316.38 268.333 317.207 269.8C318.06 271.267 319.193 272.44 320.607 273.32C322.047 274.173 323.633 274.6 325.367 274.6C326.167 274.6 327.047 274.52 328.007 274.36C328.967 274.2 329.753 273.987 330.367 273.72L330.007 274.92V268.08L330.687 268.68H326.247C325.553 268.68 324.967 268.453 324.487 268C324.033 267.547 323.807 266.973 323.807 266.28C323.807 265.587 324.033 265.013 324.487 264.56C324.967 264.107 325.553 263.88 326.247 263.88H332.807C333.5 263.88 334.073 264.12 334.527 264.6C334.98 265.053 335.207 265.627 335.207 266.32V274.8C335.207 275.333 335.073 275.773 334.807 276.12C334.567 276.467 334.287 276.747 333.967 276.96C332.74 277.707 331.393 278.307 329.927 278.76C328.487 279.187 326.967 279.4 325.367 279.4ZM361.258 251C361.898 251 362.418 251.213 362.818 251.64C363.218 252.067 363.418 252.6 363.418 253.24V276.56C363.418 277.253 363.178 277.84 362.698 278.32C362.245 278.773 361.672 279 360.978 279C360.632 279 360.272 278.947 359.898 278.84C359.552 278.707 359.285 278.533 359.098 278.32L343.378 258.36L344.418 257.72V276.76C344.418 277.4 344.205 277.933 343.778 278.36C343.378 278.787 342.845 279 342.178 279C341.538 279 341.018 278.787 340.618 278.36C340.218 277.933 340.018 277.4 340.018 276.76V253.44C340.018 252.747 340.245 252.173 340.698 251.72C341.178 251.24 341.765 251 342.458 251C342.832 251 343.218 251.08 343.618 251.24C344.018 251.373 344.312 251.587 344.498 251.88L359.738 271.32L359.058 271.8V253.24C359.058 252.6 359.258 252.067 359.658 251.64C360.058 251.213 360.592 251 361.258 251ZM371.872 251H385.272C385.966 251 386.539 251.227 386.992 251.68C387.472 252.107 387.712 252.667 387.712 253.36C387.712 254.027 387.472 254.573 386.992 255C386.539 255.4 385.966 255.6 385.272 255.6H374.072L374.432 254.92V262.72L374.112 262.4H383.472C384.166 262.4 384.739 262.627 385.192 263.08C385.672 263.507 385.912 264.067 385.912 264.76C385.912 265.427 385.672 265.973 385.192 266.4C384.739 266.8 384.166 267 383.472 267H374.232L374.432 266.68V274.76L374.112 274.4H385.272C385.966 274.4 386.539 274.64 386.992 275.12C387.472 275.573 387.712 276.107 387.712 276.72C387.712 277.387 387.472 277.933 386.992 278.36C386.539 278.787 385.966 279 385.272 279H371.872C371.179 279 370.592 278.773 370.112 278.32C369.659 277.84 369.432 277.253 369.432 276.56V253.44C369.432 252.747 369.659 252.173 370.112 251.72C370.592 251.24 371.179 251 371.872 251ZM395.203 279C394.456 279 393.79 278.773 393.203 278.32C392.616 277.84 392.323 277.253 392.323 276.56V253.44C392.323 252.747 392.55 252.173 393.003 251.72C393.483 251.24 394.07 251 394.763 251H406.283C407.67 251 408.963 251.373 410.163 252.12C411.39 252.84 412.376 253.853 413.123 255.16C413.87 256.44 414.243 257.92 414.243 259.6C414.243 260.613 414.03 261.6 413.603 262.56C413.203 263.52 412.643 264.387 411.923 265.16C411.23 265.933 410.443 266.533 409.563 266.96L409.603 266.04C410.35 266.44 410.963 266.92 411.443 267.48C411.95 268.013 412.336 268.6 412.603 269.24C412.896 269.853 413.07 270.52 413.123 271.24C413.23 271.907 413.296 272.493 413.323 273C413.376 273.507 413.456 273.933 413.563 274.28C413.696 274.627 413.936 274.893 414.283 275.08C414.87 275.427 415.23 275.933 415.363 276.6C415.523 277.24 415.376 277.813 414.923 278.32C414.63 278.667 414.256 278.893 413.803 279C413.35 279.08 412.896 279.08 412.443 279C411.99 278.893 411.616 278.76 411.323 278.6C410.87 278.333 410.416 277.947 409.963 277.44C409.51 276.907 409.136 276.2 408.843 275.32C408.576 274.44 408.443 273.307 408.443 271.92C408.443 271.467 408.363 271.053 408.203 270.68C408.043 270.28 407.816 269.947 407.523 269.68C407.23 269.387 406.856 269.173 406.403 269.04C405.95 268.88 405.416 268.8 404.803 268.8H396.723L397.323 267.88V276.56C397.323 277.253 397.136 277.84 396.763 278.32C396.39 278.773 395.87 279 395.203 279ZM396.763 264.68H406.083C406.563 264.68 407.03 264.467 407.483 264.04C407.936 263.587 408.31 262.987 408.603 262.24C408.896 261.467 409.043 260.627 409.043 259.72C409.043 258.547 408.723 257.573 408.083 256.8C407.47 256 406.803 255.6 406.083 255.6H396.843L397.323 254.32V265.64L396.763 264.68Z" fill="#D9D9D9"/>
<circle class="primary-fill transparent-stroke" cx="4" cy="4" r="4" transform="matrix(-1 0 0 1 564.391 274.909)" fill="#D9D9D9"/>
<circle class="primary-fill transparent-stroke" cx="4" cy="4" r="4" transform="matrix(-1 0 0 1 553.295 263.435)" fill="#D9D9D9"/>
<path class="transparent-fill transparent-stroke" d="M466.564 302.568L437.219 331.913L324.081 331.913" stroke="#D9D9D9" stroke-width="4" stroke-linecap="round"/>
<circle class="transparent-fill transparent-stroke" cx="8" cy="8" r="6" transform="matrix(-0.707107 0.707107 0.707107 0.707107 511.606 254.697)" stroke="#D9D9D9" stroke-width="4"/>
<circle class="transparent-fill transparent-stroke" cx="8" cy="8" r="6" transform="matrix(-0.707107 0.707107 0.707107 0.707107 508.486 144)" stroke="#D9D9D9" stroke-width="4"/>
<circle class="transparent-fill transparent-stroke" cx="8" cy="8" r="6" transform="matrix(-0.707107 0.707107 0.707107 0.707107 507.576 178.117)" stroke="#D9D9D9" stroke-width="4"/>
<rect class="transparent-fill transparent-stroke" width="11" height="18" transform="matrix(-0.707107 0.707107 0.707107 0.707107 542.931 217.715)" fill="#D9D9D9"/>
<path class="primary-fill transparent-stroke" d="M455.936 163C456.346 163 456.684 162.875 456.948 162.626C457.212 162.362 457.344 162.039 457.344 161.658V148.898H454.484V161.658C454.484 162.039 454.623 162.362 454.902 162.626C455.166 162.875 455.51 163 455.936 163ZM460.798 150.13C461.179 150.13 461.502 150.013 461.766 149.778C462.015 149.543 462.14 149.235 462.14 148.854C462.14 148.473 462.015 148.172 461.766 147.952C461.502 147.717 461.179 147.6 460.798 147.6H451.03C450.648 147.6 450.333 147.717 450.084 147.952C449.82 148.187 449.688 148.495 449.688 148.876C449.688 149.257 449.82 149.565 450.084 149.8C450.333 150.02 450.648 150.13 451.03 150.13H460.798ZM442.428 163.22C443.455 163.22 444.379 163.095 445.2 162.846C446.021 162.582 446.806 162.127 447.554 161.482C447.745 161.321 447.891 161.137 447.994 160.932C448.097 160.727 448.148 160.521 448.148 160.316C448.148 159.979 448.031 159.685 447.796 159.436C447.547 159.172 447.239 159.04 446.872 159.04C446.593 159.04 446.344 159.128 446.124 159.304C445.567 159.759 445.017 160.103 444.474 160.338C443.917 160.573 443.235 160.69 442.428 160.69C441.885 160.69 441.387 160.609 440.932 160.448C440.477 160.272 440.111 160.045 439.832 159.766C439.553 159.473 439.414 159.143 439.414 158.776C439.414 158.336 439.546 157.962 439.81 157.654C440.074 157.346 440.477 157.089 441.02 156.884C441.563 156.664 442.252 156.495 443.088 156.378C443.88 156.261 444.577 156.085 445.178 155.85C445.779 155.601 446.285 155.293 446.696 154.926C447.092 154.545 447.393 154.105 447.598 153.606C447.803 153.093 447.906 152.521 447.906 151.89C447.906 150.937 447.664 150.123 447.18 149.448C446.681 148.773 446.014 148.26 445.178 147.908C444.342 147.556 443.418 147.38 442.406 147.38C441.453 147.38 440.573 147.527 439.766 147.82C438.945 148.099 438.277 148.458 437.764 148.898C437.339 149.235 437.126 149.624 437.126 150.064C437.126 150.387 437.251 150.68 437.5 150.944C437.749 151.208 438.043 151.34 438.38 151.34C438.6 151.34 438.798 151.274 438.974 151.142C439.209 150.937 439.524 150.746 439.92 150.57C440.316 150.379 440.734 150.225 441.174 150.108C441.614 149.976 442.025 149.91 442.406 149.91C443.037 149.91 443.572 149.991 444.012 150.152C444.437 150.313 444.76 150.533 444.98 150.812C445.2 151.091 445.31 151.413 445.31 151.78C445.31 152.22 445.185 152.587 444.936 152.88C444.672 153.159 444.298 153.386 443.814 153.562C443.33 153.723 442.751 153.87 442.076 154.002C441.196 154.163 440.426 154.354 439.766 154.574C439.091 154.794 438.534 155.08 438.094 155.432C437.654 155.769 437.324 156.202 437.104 156.73C436.884 157.243 436.774 157.874 436.774 158.622C436.774 159.575 437.038 160.397 437.566 161.086C438.094 161.775 438.791 162.303 439.656 162.67C440.507 163.037 441.431 163.22 442.428 163.22Z" fill="#D9D9D9"/>
<rect class="transparent-fill primary-stroke" x="1" y="-1" width="34" height="34" transform="matrix(-1 0 0 1 466.8 139)" stroke="#D9D9D9" stroke-width="2"/>
<path class="transparent-fill primary-stroke" d="M430.8 155L413.8 155H404.8" stroke="#D9D9D9" stroke-width="2"/>
<path class="transparent-fill primary-stroke" d="M430.8 145H413.8V119H406.8" stroke="#D9D9D9" stroke-width="2"/>
<path class="transparent-fill primary-stroke" d="M430.8 165H413.8V191H406.8" stroke="#D9D9D9" stroke-width="2"/>
<path class="primary-fill transparent-stroke" d="M343.564 124C343.34 124 343.14 123.932 342.964 123.796C342.788 123.652 342.7 123.476 342.7 123.268V116.332C342.7 116.124 342.768 115.952 342.904 115.816C343.048 115.672 343.224 115.6 343.432 115.6H346.888C347.304 115.6 347.692 115.712 348.052 115.936C348.42 116.152 348.716 116.456 348.94 116.848C349.164 117.232 349.276 117.676 349.276 118.18C349.276 118.484 349.212 118.78 349.084 119.068C348.964 119.356 348.796 119.616 348.58 119.848C348.372 120.08 348.136 120.26 347.872 120.388L347.884 120.112C348.108 120.232 348.292 120.376 348.436 120.544C348.588 120.704 348.704 120.88 348.784 121.072C348.872 121.256 348.924 121.456 348.94 121.672C348.972 121.872 348.992 122.048 349 122.2C349.016 122.352 349.04 122.48 349.072 122.584C349.112 122.688 349.184 122.768 349.288 122.824C349.464 122.928 349.572 123.08 349.612 123.28C349.66 123.472 349.616 123.644 349.48 123.796C349.392 123.9 349.28 123.968 349.144 124C349.008 124.024 348.872 124.024 348.736 124C348.6 123.968 348.488 123.928 348.4 123.88C348.264 123.8 348.128 123.684 347.992 123.532C347.856 123.372 347.744 123.16 347.656 122.896C347.576 122.632 347.536 122.292 347.536 121.876C347.536 121.74 347.512 121.616 347.464 121.504C347.416 121.384 347.348 121.284 347.26 121.204C347.172 121.116 347.06 121.052 346.924 121.012C346.788 120.964 346.628 120.94 346.444 120.94H344.02L344.2 120.664V123.268C344.2 123.476 344.144 123.652 344.032 123.796C343.92 123.932 343.764 124 343.564 124ZM344.032 119.704H346.828C346.972 119.704 347.112 119.64 347.248 119.512C347.384 119.376 347.496 119.196 347.584 118.972C347.672 118.74 347.716 118.488 347.716 118.216C347.716 117.864 347.62 117.572 347.428 117.34C347.244 117.1 347.044 116.98 346.828 116.98H344.056L344.2 116.596V119.992L344.032 119.704ZM351.67 115.6H355.69C355.898 115.6 356.07 115.668 356.206 115.804C356.35 115.932 356.422 116.1 356.422 116.308C356.422 116.508 356.35 116.672 356.206 116.8C356.07 116.92 355.898 116.98 355.69 116.98H352.33L352.438 116.776V119.116L352.342 119.02H355.15C355.358 119.02 355.53 119.088 355.666 119.224C355.81 119.352 355.882 119.52 355.882 119.728C355.882 119.928 355.81 120.092 355.666 120.22C355.53 120.34 355.358 120.4 355.15 120.4H352.378L352.438 120.304V122.728L352.342 122.62H355.69C355.898 122.62 356.07 122.692 356.206 122.836C356.35 122.972 356.422 123.132 356.422 123.316C356.422 123.516 356.35 123.68 356.206 123.808C356.07 123.936 355.898 124 355.69 124H351.67C351.462 124 351.286 123.932 351.142 123.796C351.006 123.652 350.938 123.476 350.938 123.268V116.332C350.938 116.124 351.006 115.952 351.142 115.816C351.286 115.672 351.462 115.6 351.67 115.6ZM360.889 117.484L358.297 123.58C358.241 123.732 358.153 123.852 358.033 123.94C357.921 124.02 357.797 124.06 357.661 124.06C357.445 124.06 357.285 124 357.181 123.88C357.077 123.76 357.025 123.612 357.025 123.436C357.025 123.364 357.037 123.288 357.061 123.208L360.049 116.032C360.113 115.872 360.209 115.748 360.337 115.66C360.473 115.572 360.617 115.536 360.769 115.552C360.913 115.552 361.045 115.596 361.165 115.684C361.293 115.764 361.385 115.88 361.441 116.032L364.393 123.064C364.433 123.168 364.453 123.264 364.453 123.352C364.453 123.568 364.381 123.74 364.237 123.868C364.101 123.996 363.949 124.06 363.781 124.06C363.637 124.06 363.505 124.016 363.385 123.928C363.273 123.84 363.185 123.72 363.121 123.568L360.541 117.556L360.889 117.484ZM358.669 122.116L359.329 120.736H362.569L362.797 122.116H358.669ZM371.29 116.008C371.498 116.112 371.618 116.276 371.65 116.5C371.69 116.724 371.634 116.928 371.482 117.112C371.378 117.256 371.242 117.336 371.074 117.352C370.914 117.368 370.75 117.336 370.582 117.256C370.39 117.168 370.186 117.1 369.97 117.052C369.762 117.004 369.542 116.98 369.31 116.98C368.878 116.98 368.49 117.048 368.146 117.184C367.81 117.32 367.522 117.516 367.282 117.772C367.042 118.02 366.858 118.316 366.73 118.66C366.61 119.004 366.55 119.384 366.55 119.8C366.55 120.288 366.618 120.712 366.754 121.072C366.898 121.432 367.094 121.732 367.342 121.972C367.59 122.212 367.882 122.392 368.218 122.512C368.554 122.624 368.918 122.68 369.31 122.68C369.526 122.68 369.742 122.66 369.958 122.62C370.174 122.58 370.382 122.508 370.582 122.404C370.75 122.324 370.914 122.296 371.074 122.32C371.242 122.344 371.382 122.428 371.494 122.572C371.654 122.772 371.71 122.98 371.662 123.196C371.622 123.404 371.502 123.556 371.302 123.652C371.094 123.756 370.878 123.844 370.654 123.916C370.438 123.98 370.218 124.028 369.994 124.06C369.77 124.1 369.542 124.12 369.31 124.12C368.734 124.12 368.186 124.028 367.666 123.844C367.154 123.66 366.694 123.388 366.286 123.028C365.886 122.668 365.57 122.22 365.338 121.684C365.106 121.14 364.99 120.512 364.99 119.8C364.99 119.184 365.094 118.616 365.302 118.096C365.518 117.576 365.818 117.128 366.202 116.752C366.594 116.368 367.054 116.072 367.582 115.864C368.11 115.648 368.686 115.54 369.31 115.54C369.662 115.54 370.006 115.58 370.342 115.66C370.678 115.74 370.994 115.856 371.29 116.008ZM375.778 124C375.554 124 375.37 123.932 375.226 123.796C375.082 123.652 375.01 123.476 375.01 123.268V116.308H376.57V123.268C376.57 123.476 376.494 123.652 376.342 123.796C376.198 123.932 376.01 124 375.778 124ZM373.126 116.98C372.918 116.98 372.742 116.916 372.598 116.788C372.462 116.66 372.394 116.492 372.394 116.284C372.394 116.076 372.462 115.912 372.598 115.792C372.742 115.664 372.918 115.6 373.126 115.6H378.454C378.662 115.6 378.834 115.664 378.97 115.792C379.114 115.92 379.186 116.088 379.186 116.296C379.186 116.504 379.114 116.672 378.97 116.8C378.834 116.92 378.662 116.98 378.454 116.98H373.126Z" fill="#D9D9D9"/>
<rect class="transparent-fill primary-stroke" x="1" y="-1" width="90" height="26" transform="matrix(-1 0 0 1 406.8 107)" stroke="#D9D9D9" stroke-width="2"/>
<path class="primary-fill transparent-stroke" d="M345.072 151.6C345.264 151.6 345.42 151.664 345.54 151.792C345.66 151.92 345.72 152.08 345.72 152.272V159.268C345.72 159.476 345.648 159.652 345.504 159.796C345.368 159.932 345.196 160 344.988 160C344.884 160 344.776 159.984 344.664 159.952C344.56 159.912 344.48 159.86 344.424 159.796L339.708 153.808L340.02 153.616V159.328C340.02 159.52 339.956 159.68 339.828 159.808C339.708 159.936 339.548 160 339.348 160C339.156 160 339 159.936 338.88 159.808C338.76 159.68 338.7 159.52 338.7 159.328V152.332C338.7 152.124 338.768 151.952 338.904 151.816C339.048 151.672 339.224 151.6 339.432 151.6C339.544 151.6 339.66 151.624 339.78 151.672C339.9 151.712 339.988 151.776 340.044 151.864L344.616 157.696L344.412 157.84V152.272C344.412 152.08 344.472 151.92 344.592 151.792C344.712 151.664 344.872 151.6 345.072 151.6ZM348.256 151.6H352.276C352.484 151.6 352.656 151.668 352.792 151.804C352.936 151.932 353.008 152.1 353.008 152.308C353.008 152.508 352.936 152.672 352.792 152.8C352.656 152.92 352.484 152.98 352.276 152.98H348.916L349.024 152.776V155.116L348.928 155.02H351.736C351.944 155.02 352.116 155.088 352.252 155.224C352.396 155.352 352.468 155.52 352.468 155.728C352.468 155.928 352.396 156.092 352.252 156.22C352.116 156.34 351.944 156.4 351.736 156.4H348.964L349.024 156.304V158.728L348.928 158.62H352.276C352.484 158.62 352.656 158.692 352.792 158.836C352.936 158.972 353.008 159.132 353.008 159.316C353.008 159.516 352.936 159.68 352.792 159.808C352.656 159.936 352.484 160 352.276 160H348.256C348.048 160 347.872 159.932 347.728 159.796C347.592 159.652 347.524 159.476 347.524 159.268V152.332C347.524 152.124 347.592 151.952 347.728 151.816C347.872 151.672 348.048 151.6 348.256 151.6ZM360.139 151.588C360.323 151.588 360.479 151.66 360.607 151.804C360.743 151.948 360.811 152.1 360.811 152.26C360.811 152.412 360.759 152.556 360.655 152.692L358.243 155.872L357.427 154.756L359.551 151.936C359.719 151.704 359.915 151.588 360.139 151.588ZM354.787 151.564C355.019 151.564 355.215 151.668 355.375 151.876L360.655 158.896C360.751 159.024 360.799 159.172 360.799 159.34C360.799 159.564 360.719 159.74 360.559 159.868C360.399 159.996 360.239 160.06 360.079 160.06C359.847 160.06 359.651 159.956 359.491 159.748L354.211 152.728C354.107 152.6 354.055 152.456 354.055 152.296C354.055 152.088 354.131 151.916 354.283 151.78C354.443 151.636 354.611 151.564 354.787 151.564ZM354.679 160.06C354.503 160.06 354.351 159.996 354.223 159.868C354.095 159.732 354.031 159.584 354.031 159.424C354.031 159.248 354.091 159.084 354.211 158.932L356.647 155.632L357.439 156.796L355.279 159.724C355.119 159.948 354.919 160.06 354.679 160.06ZM365.098 160C364.874 160 364.69 159.932 364.546 159.796C364.402 159.652 364.33 159.476 364.33 159.268V152.308H365.89V159.268C365.89 159.476 365.814 159.652 365.662 159.796C365.518 159.932 365.33 160 365.098 160ZM362.446 152.98C362.238 152.98 362.062 152.916 361.918 152.788C361.782 152.66 361.714 152.492 361.714 152.284C361.714 152.076 361.782 151.912 361.918 151.792C362.062 151.664 362.238 151.6 362.446 151.6H367.774C367.982 151.6 368.154 151.664 368.29 151.792C368.434 151.92 368.506 152.088 368.506 152.296C368.506 152.504 368.434 152.672 368.29 152.8C368.154 152.92 367.982 152.98 367.774 152.98H362.446ZM370.937 160.12C370.481 160.12 370.057 160.028 369.665 159.844C369.273 159.66 368.953 159.396 368.705 159.052C368.609 158.908 368.561 158.768 368.561 158.632C368.561 158.432 368.637 158.264 368.789 158.128C368.949 157.992 369.105 157.924 369.257 157.924C369.377 157.924 369.493 157.96 369.605 158.032C369.725 158.104 369.833 158.188 369.929 158.284C370.089 158.428 370.245 158.532 370.397 158.596C370.557 158.652 370.737 158.68 370.937 158.68C371.177 158.68 371.401 158.62 371.609 158.5C371.817 158.38 371.985 158.22 372.113 158.02C372.241 157.82 372.305 157.604 372.305 157.372V152.332C372.305 152.124 372.381 151.952 372.533 151.816C372.685 151.672 372.861 151.6 373.061 151.6C373.285 151.6 373.465 151.672 373.601 151.816C373.737 151.952 373.805 152.124 373.805 152.332V157.372C373.805 157.86 373.677 158.312 373.421 158.728C373.165 159.144 372.821 159.48 372.389 159.736C371.957 159.992 371.473 160.12 370.937 160.12ZM378.302 160.12C377.742 160.12 377.238 160.052 376.79 159.916C376.342 159.772 375.914 159.524 375.506 159.172C375.402 159.084 375.322 158.984 375.266 158.872C375.21 158.76 375.182 158.648 375.182 158.536C375.182 158.352 375.246 158.192 375.374 158.056C375.51 157.912 375.678 157.84 375.878 157.84C376.03 157.84 376.166 157.888 376.286 157.984C376.59 158.232 376.89 158.42 377.186 158.548C377.49 158.676 377.862 158.74 378.302 158.74C378.598 158.74 378.87 158.696 379.118 158.608C379.366 158.512 379.566 158.388 379.718 158.236C379.87 158.076 379.946 157.896 379.946 157.696C379.946 157.456 379.874 157.252 379.73 157.084C379.586 156.916 379.366 156.776 379.07 156.664C378.774 156.544 378.398 156.452 377.942 156.388C377.51 156.324 377.13 156.228 376.802 156.1C376.474 155.964 376.198 155.796 375.974 155.596C375.758 155.388 375.594 155.148 375.482 154.876C375.37 154.596 375.314 154.284 375.314 153.94C375.314 153.42 375.446 152.976 375.71 152.608C375.982 152.24 376.346 151.96 376.802 151.768C377.258 151.576 377.762 151.48 378.314 151.48C378.834 151.48 379.314 151.56 379.754 151.72C380.202 151.872 380.566 152.068 380.846 152.308C381.078 152.492 381.194 152.704 381.194 152.944C381.194 153.12 381.126 153.28 380.99 153.424C380.854 153.568 380.694 153.64 380.51 153.64C380.39 153.64 380.282 153.604 380.186 153.532C380.058 153.42 379.886 153.316 379.67 153.22C379.454 153.116 379.226 153.032 378.986 152.968C378.746 152.896 378.522 152.86 378.314 152.86C377.97 152.86 377.678 152.904 377.438 152.992C377.206 153.08 377.03 153.2 376.91 153.352C376.79 153.504 376.73 153.68 376.73 153.88C376.73 154.12 376.798 154.32 376.934 154.48C377.078 154.632 377.282 154.756 377.546 154.852C377.81 154.94 378.126 155.02 378.494 155.092C378.974 155.18 379.394 155.284 379.754 155.404C380.122 155.524 380.426 155.68 380.666 155.872C380.906 156.056 381.086 156.292 381.206 156.58C381.326 156.86 381.386 157.204 381.386 157.612C381.386 158.132 381.242 158.58 380.954 158.956C380.666 159.332 380.286 159.62 379.814 159.82C379.35 160.02 378.846 160.12 378.302 160.12Z" fill="#D9D9D9"/>
<rect class="transparent-fill primary-stroke" x="1" y="1" width="26" height="90" transform="matrix(0 -1 -1 0 406.8 169)" stroke="#D9D9D9" stroke-width="2"/>
<path class="primary-fill transparent-stroke" d="M336.784 189.484L334.192 195.58C334.136 195.732 334.048 195.852 333.928 195.94C333.816 196.02 333.692 196.06 333.556 196.06C333.34 196.06 333.18 196 333.076 195.88C332.972 195.76 332.92 195.612 332.92 195.436C332.92 195.364 332.932 195.288 332.956 195.208L335.944 188.032C336.008 187.872 336.104 187.748 336.232 187.66C336.368 187.572 336.512 187.536 336.664 187.552C336.808 187.552 336.94 187.596 337.06 187.684C337.188 187.764 337.28 187.88 337.336 188.032L340.288 195.064C340.328 195.168 340.348 195.264 340.348 195.352C340.348 195.568 340.276 195.74 340.132 195.868C339.996 195.996 339.844 196.06 339.676 196.06C339.532 196.06 339.4 196.016 339.28 195.928C339.168 195.84 339.08 195.72 339.016 195.568L336.436 189.556L336.784 189.484ZM334.564 194.116L335.224 192.736H338.464L338.692 194.116H334.564ZM347.736 187.6C347.928 187.6 348.084 187.664 348.204 187.792C348.324 187.92 348.384 188.08 348.384 188.272V195.268C348.384 195.476 348.312 195.652 348.168 195.796C348.032 195.932 347.86 196 347.652 196C347.548 196 347.44 195.984 347.328 195.952C347.224 195.912 347.144 195.86 347.088 195.796L342.372 189.808L342.684 189.616V195.328C342.684 195.52 342.62 195.68 342.492 195.808C342.372 195.936 342.212 196 342.012 196C341.82 196 341.664 195.936 341.544 195.808C341.424 195.68 341.364 195.52 341.364 195.328V188.332C341.364 188.124 341.432 187.952 341.568 187.816C341.712 187.672 341.888 187.6 342.096 187.6C342.208 187.6 342.324 187.624 342.444 187.672C342.564 187.712 342.652 187.776 342.708 187.864L347.28 193.696L347.076 193.84V188.272C347.076 188.08 347.136 187.92 347.256 187.792C347.376 187.664 347.536 187.6 347.736 187.6ZM354.148 196.12C353.54 196.12 352.972 196.008 352.444 195.784C351.916 195.56 351.452 195.252 351.052 194.86C350.652 194.46 350.336 194 350.104 193.48C349.88 192.96 349.768 192.4 349.768 191.8C349.768 191.2 349.88 190.64 350.104 190.12C350.336 189.6 350.652 189.144 351.052 188.752C351.452 188.352 351.916 188.04 352.444 187.816C352.972 187.592 353.54 187.48 354.148 187.48C354.524 187.48 354.888 187.52 355.24 187.6C355.592 187.68 355.916 187.8 356.212 187.96C356.332 188.024 356.42 188.112 356.476 188.224C356.54 188.328 356.572 188.436 356.572 188.548C356.572 188.74 356.508 188.912 356.38 189.064C356.252 189.216 356.088 189.292 355.888 189.292C355.824 189.292 355.756 189.284 355.684 189.268C355.62 189.252 355.556 189.228 355.492 189.196C355.292 189.108 355.08 189.04 354.856 188.992C354.632 188.944 354.396 188.92 354.148 188.92C353.628 188.92 353.152 189.052 352.72 189.316C352.296 189.572 351.956 189.92 351.7 190.36C351.452 190.792 351.328 191.272 351.328 191.8C351.328 192.32 351.452 192.8 351.7 193.24C351.956 193.68 352.296 194.032 352.72 194.296C353.152 194.552 353.628 194.68 354.148 194.68C354.388 194.68 354.652 194.656 354.94 194.608C355.228 194.56 355.464 194.496 355.648 194.416L355.54 194.776V192.724L355.744 192.904H354.412C354.204 192.904 354.028 192.836 353.884 192.7C353.748 192.564 353.68 192.392 353.68 192.184C353.68 191.976 353.748 191.804 353.884 191.668C354.028 191.532 354.204 191.464 354.412 191.464H356.38C356.588 191.464 356.76 191.536 356.896 191.68C357.032 191.816 357.1 191.988 357.1 192.196V194.74C357.1 194.9 357.06 195.032 356.98 195.136C356.908 195.24 356.824 195.324 356.728 195.388C356.36 195.612 355.956 195.792 355.516 195.928C355.084 196.056 354.628 196.12 354.148 196.12ZM364.507 187.588C364.715 187.588 364.883 187.66 365.011 187.804C365.139 187.94 365.203 188.112 365.203 188.32V192.664C365.203 193.328 365.059 193.916 364.771 194.428C364.491 194.94 364.103 195.34 363.607 195.628C363.111 195.916 362.535 196.06 361.879 196.06C361.223 196.06 360.643 195.916 360.139 195.628C359.643 195.34 359.251 194.94 358.963 194.428C358.683 193.916 358.543 193.328 358.543 192.664V188.32C358.543 188.112 358.615 187.94 358.759 187.804C358.903 187.66 359.087 187.588 359.311 187.588C359.495 187.588 359.659 187.66 359.803 187.804C359.955 187.94 360.031 188.112 360.031 188.32V192.664C360.031 193.064 360.115 193.412 360.283 193.708C360.459 193.996 360.687 194.22 360.967 194.38C361.255 194.54 361.559 194.62 361.879 194.62C362.223 194.62 362.543 194.54 362.839 194.38C363.135 194.22 363.375 193.996 363.559 193.708C363.743 193.412 363.835 193.064 363.835 192.664V188.32C363.835 188.112 363.895 187.94 364.015 187.804C364.135 187.66 364.299 187.588 364.507 187.588ZM371.636 194.596C371.844 194.596 372.016 194.664 372.152 194.8C372.296 194.928 372.368 195.096 372.368 195.304C372.368 195.504 372.296 195.672 372.152 195.808C372.016 195.936 371.844 196 371.636 196H367.736C367.528 196 367.352 195.932 367.208 195.796C367.072 195.652 367.004 195.476 367.004 195.268V188.332C367.004 188.124 367.076 187.952 367.22 187.816C367.364 187.672 367.548 187.6 367.772 187.6C367.964 187.6 368.132 187.672 368.276 187.816C368.428 187.952 368.504 188.124 368.504 188.332V194.8L368.24 194.596H371.636ZM376.827 189.484L374.235 195.58C374.179 195.732 374.091 195.852 373.971 195.94C373.859 196.02 373.735 196.06 373.599 196.06C373.383 196.06 373.223 196 373.119 195.88C373.015 195.76 372.963 195.612 372.963 195.436C372.963 195.364 372.975 195.288 372.999 195.208L375.987 188.032C376.051 187.872 376.147 187.748 376.275 187.66C376.411 187.572 376.555 187.536 376.707 187.552C376.851 187.552 376.983 187.596 377.103 187.684C377.231 187.764 377.323 187.88 377.379 188.032L380.331 195.064C380.371 195.168 380.391 195.264 380.391 195.352C380.391 195.568 380.319 195.74 380.175 195.868C380.039 195.996 379.887 196.06 379.719 196.06C379.575 196.06 379.443 196.016 379.323 195.928C379.211 195.84 379.123 195.72 379.059 195.568L376.479 189.556L376.827 189.484ZM374.607 194.116L375.267 192.736H378.507L378.735 194.116H374.607ZM382.271 196C382.047 196 381.847 195.932 381.671 195.796C381.495 195.652 381.407 195.476 381.407 195.268V188.332C381.407 188.124 381.475 187.952 381.611 187.816C381.755 187.672 381.931 187.6 382.139 187.6H385.595C386.011 187.6 386.399 187.712 386.759 187.936C387.127 188.152 387.423 188.456 387.647 188.848C387.871 189.232 387.983 189.676 387.983 190.18C387.983 190.484 387.919 190.78 387.791 191.068C387.671 191.356 387.503 191.616 387.287 191.848C387.079 192.08 386.843 192.26 386.579 192.388L386.591 192.112C386.815 192.232 386.999 192.376 387.143 192.544C387.295 192.704 387.411 192.88 387.491 193.072C387.579 193.256 387.631 193.456 387.647 193.672C387.679 193.872 387.699 194.048 387.707 194.2C387.723 194.352 387.747 194.48 387.779 194.584C387.819 194.688 387.891 194.768 387.995 194.824C388.171 194.928 388.279 195.08 388.319 195.28C388.367 195.472 388.323 195.644 388.187 195.796C388.099 195.9 387.987 195.968 387.851 196C387.715 196.024 387.579 196.024 387.443 196C387.307 195.968 387.195 195.928 387.107 195.88C386.971 195.8 386.835 195.684 386.699 195.532C386.563 195.372 386.451 195.16 386.363 194.896C386.283 194.632 386.243 194.292 386.243 193.876C386.243 193.74 386.219 193.616 386.171 193.504C386.123 193.384 386.055 193.284 385.967 193.204C385.879 193.116 385.767 193.052 385.631 193.012C385.495 192.964 385.335 192.94 385.151 192.94H382.727L382.907 192.664V195.268C382.907 195.476 382.851 195.652 382.739 195.796C382.627 195.932 382.471 196 382.271 196ZM382.739 191.704H385.535C385.679 191.704 385.819 191.64 385.955 191.512C386.091 191.376 386.203 191.196 386.291 190.972C386.379 190.74 386.423 190.488 386.423 190.216C386.423 189.864 386.327 189.572 386.135 189.34C385.951 189.1 385.751 188.98 385.535 188.98H382.763L382.907 188.596V191.992L382.739 191.704Z" fill="#D9D9D9"/>
<rect class="transparent-fill primary-stroke" x="1" y="-1" width="90" height="26" transform="matrix(-1 0 0 1 406.8 179)" stroke="#D9D9D9" stroke-width="2"/>
<path class="primary-fill transparent-stroke" d="M540.482 146.069C540.776 146.363 540.965 146.722 541.05 147.147C541.141 147.577 541.121 148.015 540.991 148.462C540.861 148.909 540.617 149.31 540.261 149.667C539.91 150.018 539.511 150.258 539.064 150.388C538.618 150.518 538.176 150.541 537.741 150.456C537.317 150.371 536.957 150.182 536.663 149.887L535.102 148.326L535.339 148.258L533.583 150.015C533.436 150.162 533.266 150.241 533.074 150.252C532.887 150.258 532.72 150.187 532.573 150.04C532.432 149.899 532.364 149.735 532.37 149.548C532.381 149.356 532.46 149.186 532.607 149.039L537.512 144.134C537.659 143.987 537.828 143.914 538.021 143.914C538.224 143.914 538.4 143.987 538.547 144.134L540.482 146.069ZM537.63 148.92C537.738 149.028 537.888 149.087 538.08 149.098C538.273 149.11 538.473 149.078 538.683 149.005C538.898 148.926 539.084 148.807 539.243 148.649C539.407 148.485 539.526 148.298 539.599 148.089C539.673 147.879 539.701 147.681 539.684 147.495C539.673 147.302 539.613 147.152 539.506 147.045L537.927 145.467L538.182 145.416L536.018 147.579L536.061 147.35L537.63 148.92ZM546.952 152.488C547.082 152.619 547.147 152.785 547.147 152.989C547.158 153.193 547.088 153.371 546.935 153.524C546.884 153.575 546.822 153.62 546.748 153.659C546.686 153.699 546.612 153.727 546.528 153.744L541.844 154.576L542.582 154.143L540.147 156.578C540 156.725 539.824 156.799 539.621 156.799C539.428 156.799 539.267 156.734 539.137 156.604C538.996 156.462 538.922 156.293 538.916 156.095C538.922 155.897 538.998 155.724 539.145 155.577L541.513 153.21L541.309 153.549L541.912 149.281C541.929 149.151 541.96 149.041 542.005 148.95C542.05 148.86 542.101 148.786 542.158 148.73C542.31 148.577 542.494 148.512 542.709 148.534C542.924 148.557 543.094 148.631 543.218 148.755C543.377 148.913 543.436 149.131 543.397 149.408L542.777 153.286L542.573 153.015L546.273 152.319C546.562 152.268 546.788 152.324 546.952 152.488ZM544.351 161.818C544.192 161.659 544.11 161.481 544.105 161.283C544.105 161.08 544.178 160.904 544.325 160.757L549.247 155.836L550.35 156.939L545.429 161.86C545.281 162.007 545.103 162.078 544.894 162.072C544.696 162.067 544.515 161.982 544.351 161.818ZM547.44 154.979C547.292 154.832 547.213 154.662 547.202 154.47C547.196 154.283 547.267 154.116 547.414 153.969C547.561 153.822 547.725 153.754 547.906 153.765C548.099 153.777 548.268 153.856 548.415 154.003L552.183 157.77C552.33 157.917 552.406 158.084 552.412 158.271C552.423 158.463 552.355 158.633 552.208 158.78C552.061 158.927 551.891 158.995 551.699 158.984C551.518 158.972 551.354 158.893 551.207 158.746L547.44 154.979ZM554.134 159.722C554.27 159.857 554.338 160.027 554.338 160.231C554.349 160.434 554.281 160.61 554.134 160.757L549.23 165.661C549.083 165.808 548.904 165.879 548.695 165.874C548.492 165.862 548.319 165.786 548.178 165.644C548.019 165.486 547.94 165.311 547.94 165.118C547.946 164.92 548.022 164.748 548.169 164.601L553.074 159.696C553.221 159.549 553.393 159.478 553.591 159.484C553.795 159.484 553.976 159.563 554.134 159.722ZM557.893 163.481C558.052 163.639 558.128 163.817 558.122 164.015C558.122 164.208 558.049 164.377 557.902 164.524L552.997 169.429C552.85 169.576 552.675 169.65 552.471 169.65C552.279 169.65 552.101 169.567 551.937 169.403C551.801 169.268 551.727 169.098 551.716 168.894C551.716 168.691 551.789 168.515 551.937 168.368L556.841 163.464C556.988 163.317 557.163 163.249 557.367 163.26C557.576 163.266 557.752 163.339 557.893 163.481ZM551.64 162.165L555.424 165.95L554.448 166.926L550.664 163.141L551.64 162.165ZM562.185 173.712C561.76 174.136 561.294 174.461 560.785 174.688C560.275 174.914 559.749 175.038 559.206 175.061C558.675 175.084 558.151 174.996 557.637 174.798C557.127 174.606 556.664 174.3 556.245 173.882C555.826 173.463 555.521 172.999 555.329 172.49C555.136 171.981 555.049 171.458 555.065 170.92C555.094 170.383 555.221 169.86 555.447 169.35C555.674 168.841 555.999 168.375 556.423 167.95C556.847 167.526 557.314 167.201 557.823 166.975C558.332 166.748 558.853 166.624 559.384 166.601C559.928 166.579 560.454 166.663 560.963 166.856C561.472 167.048 561.936 167.354 562.354 167.772C562.773 168.191 563.078 168.655 563.271 169.164C563.469 169.678 563.554 170.205 563.525 170.742C563.508 171.279 563.387 171.803 563.16 172.312C562.934 172.821 562.609 173.288 562.185 173.712ZM561.082 172.609C561.461 172.23 561.726 171.811 561.879 171.353C562.038 170.889 562.074 170.434 561.989 169.987C561.905 169.54 561.687 169.141 561.336 168.79C560.985 168.44 560.587 168.222 560.14 168.137C559.693 168.052 559.24 168.086 558.782 168.239C558.329 168.397 557.911 168.669 557.526 169.053C557.147 169.432 556.876 169.851 556.712 170.309C556.559 170.767 556.525 171.22 556.61 171.667C556.695 172.114 556.912 172.513 557.263 172.863C557.614 173.214 558.013 173.432 558.46 173.517C558.906 173.602 559.359 173.568 559.817 173.415C560.281 173.256 560.703 172.988 561.082 172.609ZM570.634 176.222C570.77 176.357 570.835 176.513 570.829 176.688C570.824 176.864 570.753 177.019 570.617 177.155L565.67 182.102C565.523 182.249 565.348 182.323 565.144 182.323C564.952 182.323 564.782 182.249 564.635 182.102C564.562 182.028 564.496 181.941 564.44 181.839C564.395 181.737 564.375 181.644 564.381 181.559L565.28 173.99L565.636 174.075L561.597 178.114C561.462 178.25 561.303 178.318 561.122 178.318C560.947 178.323 560.788 178.255 560.647 178.114C560.511 177.978 560.446 177.823 560.452 177.647C560.457 177.472 560.528 177.316 560.664 177.181L565.611 172.234C565.758 172.087 565.928 172.013 566.12 172.013C566.324 172.013 566.499 172.087 566.646 172.234C566.725 172.313 566.79 172.412 566.841 172.531C566.898 172.644 566.915 172.751 566.892 172.853L566.001 180.21L565.755 180.167L569.692 176.23C569.828 176.094 569.984 176.024 570.159 176.018C570.334 176.012 570.493 176.08 570.634 176.222Z" fill="#D9D9D9"/>
<rect class="transparent-fill primary-stroke" x="1.41421" width="90" height="26" transform="matrix(-0.707107 -0.707107 -0.707107 0.707107 598.214 190.225)" stroke="#D9D9D9" stroke-width="2"/>
<path class="transparent-fill transparent-stroke" d="M504.8 266H487.3L454.8 235.5H282.3" stroke="#D9D9D9" stroke-width="4"/>
<path class="transparent-fill transparent-stroke" d="M501.404 232.518C501.624 233.601 500.926 234.657 499.844 234.878C498.762 235.099 497.705 234.4 497.484 233.318L501.404 232.518ZM492.536 199.07L490.577 199.47L492.536 199.07ZM467.21 198.27L467.21 196.27L467.21 198.27ZM504.747 161.147L467.917 197.977L465.089 195.149L501.919 158.318L504.747 161.147ZM467.21 196.27L491.556 196.27L491.556 200.27L467.21 200.27L467.21 196.27ZM494.496 198.67L501.404 232.518L497.484 233.318L490.577 199.47L494.496 198.67ZM491.556 196.27C492.982 196.27 494.211 197.273 494.496 198.67L490.577 199.47C490.672 199.936 491.081 200.27 491.556 200.27L491.556 196.27ZM467.917 197.977C468.547 197.347 468.101 196.27 467.21 196.27L467.21 200.27C464.537 200.27 463.199 197.039 465.089 195.149L467.917 197.977Z" fill="#D9D9D9"/>
</g>
<defs>
<clipPath id="clip0_14_260">
<rect width="700" height="400" fill="white"/>
</clipPath>
</defs>
</svg>
