<svg width="701" height="401" viewBox="0 0 701 401" fill="none" xmlns="http://www.w3.org/2000/svg">
<g clip-path="url(#clip0_17_115)">
<line class="transparent-fill transparent-stroke" x1="2.30502" y1="201.616" x2="30.5893" y2="173.331" stroke="#D9D9D9" stroke-width="4"/>
<line class="transparent-fill transparent-stroke" x1="20.3309" y1="219.642" x2="48.6152" y2="191.357" stroke="#D9D9D9" stroke-width="4"/>
<line class="transparent-fill transparent-stroke" x1="38.3568" y1="237.667" x2="66.6411" y2="209.383" stroke="#D9D9D9" stroke-width="4"/>
<line class="transparent-fill primary-stroke" x1="56.3829" y1="255.693" x2="112.951" y2="199.125" stroke="#D9D9D9" stroke-width="4"/>
<line class="transparent-fill transparent-stroke" x1="197.424" y1="150.79" x2="272.442" y2="75.7724" stroke="#D9D9D9" stroke-width="4"/>
<line class="transparent-fill transparent-stroke" x1="74.4088" y1="273.719" x2="187.546" y2="160.582" stroke="#D9D9D9" stroke-width="4"/>
<line class="transparent-fill transparent-stroke" x1="92.4347" y1="291.745" x2="149.003" y2="235.177" stroke="#D9D9D9" stroke-width="4"/>
<line class="transparent-fill transparent-stroke" x1="161.404" y1="222.251" x2="189.688" y2="193.967" stroke="#D9D9D9" stroke-width="4"/>
<line class="transparent-fill primary-stroke" x1="110.461" y1="309.771" x2="138.745" y2="281.487" stroke="#D9D9D9" stroke-width="4"/>
<path class="transparent-fill primary-stroke" d="M151.505 268.92L185.092 235.332C185.873 234.551 187.14 234.551 187.921 235.332L202.063 249.475C202.844 250.256 204.11 250.256 204.891 249.475L251.328 203.038C251.703 202.663 251.914 202.154 251.914 201.624L251.914 174" stroke="#D9D9D9" stroke-width="4"/>
<line class="transparent-fill transparent-stroke" x1="128.487" y1="327.797" x2="185.055" y2="271.229" stroke="#D9D9D9" stroke-width="4"/>
<path class="transparent-fill transparent-stroke" d="M223.629 295.79C224.41 296.571 225.677 296.571 226.458 295.79C227.239 295.009 227.239 293.743 226.458 292.962L223.629 295.79ZM147.927 347.237L211.502 283.662L208.673 280.834L145.098 344.409L147.927 347.237ZM211.502 283.662L223.629 295.79L226.458 292.962L214.33 280.834L211.502 283.662ZM211.502 283.662L214.33 280.834C212.768 279.272 210.235 279.272 208.673 280.834L211.502 283.662Z" fill="#D9D9D9"/>
<path class="primary-fill transparent-stroke" d="M236.663 294.553C237.444 293.772 237.444 292.505 236.663 291.724C235.882 290.943 234.616 290.943 233.835 291.724L236.663 294.553ZM165.953 365.263L236.663 294.553L233.835 291.724L163.124 362.435L165.953 365.263Z" fill="#D9D9D9"/>
<path class="primary-fill transparent-stroke" d="M475.209 295.139C476.313 295.139 477.209 294.243 477.209 293.139C477.209 292.034 476.313 291.139 475.209 291.139V295.139ZM235.209 295.139H475.209V291.139H235.209V295.139Z" fill="#D9D9D9"/>
<line class="transparent-fill transparent-stroke" x1="183.979" y1="380.461" x2="237.719" y2="326.721" stroke="#D9D9D9" stroke-width="4" stroke-linecap="round"/>
<line class="transparent-fill transparent-stroke" x1="202.005" y1="398.487" x2="255.745" y2="344.747" stroke="#D9D9D9" stroke-width="4" stroke-linecap="round"/>
<path class="transparent-fill transparent-stroke" d="M237.909 326.909L255.912 344.912" stroke="#D9D9D9" stroke-width="12"/>
<path class="primary-fill transparent-stroke" d="M264 252C265.92 252 267.627 252.36 269.12 253.08C270.613 253.8 271.867 254.813 272.88 256.12C273.92 257.4 274.693 258.893 275.2 260.6C275.733 262.28 276 264.08 276 266C276 268.587 275.533 270.947 274.6 273.08C273.667 275.187 272.307 276.867 270.52 278.12C268.76 279.373 266.587 280 264 280H254.44C253.747 280 253.16 279.773 252.68 279.32C252.227 278.84 252 278.253 252 277.56V254.44C252 253.747 252.227 253.173 252.68 252.72C253.16 252.24 253.747 252 254.44 252H264ZM263.6 275.4C265.28 275.4 266.653 274.973 267.72 274.12C268.787 273.24 269.56 272.093 270.04 270.68C270.547 269.24 270.8 267.68 270.8 266C270.8 264.747 270.653 263.56 270.36 262.44C270.093 261.293 269.667 260.293 269.08 259.44C268.493 258.56 267.747 257.867 266.84 257.36C265.933 256.853 264.853 256.6 263.6 256.6H256.6L257 256.24V275.84L256.76 275.4H263.6ZM283.034 252H296.434C297.127 252 297.7 252.227 298.154 252.68C298.634 253.107 298.874 253.667 298.874 254.36C298.874 255.027 298.634 255.573 298.154 256C297.7 256.4 297.127 256.6 296.434 256.6H285.234L285.594 255.92V263.72L285.274 263.4H294.634C295.327 263.4 295.9 263.627 296.354 264.08C296.834 264.507 297.074 265.067 297.074 265.76C297.074 266.427 296.834 266.973 296.354 267.4C295.9 267.8 295.327 268 294.634 268H285.394L285.594 267.68V275.76L285.274 275.4H296.434C297.127 275.4 297.7 275.64 298.154 276.12C298.634 276.573 298.874 277.107 298.874 277.72C298.874 278.387 298.634 278.933 298.154 279.36C297.7 279.787 297.127 280 296.434 280H283.034C282.34 280 281.754 279.773 281.274 279.32C280.82 278.84 280.594 278.253 280.594 277.56V254.44C280.594 253.747 280.82 253.173 281.274 252.72C281.754 252.24 282.34 252 283.034 252ZM323.924 251.92C324.591 251.92 325.164 252.147 325.644 252.6C326.151 253.027 326.404 253.573 326.404 254.24C326.404 254.587 326.324 254.947 326.164 255.32L316.284 278.44C316.044 278.973 315.698 279.373 315.244 279.64C314.818 279.88 314.378 280 313.924 280C313.498 279.973 313.084 279.84 312.684 279.6C312.284 279.333 311.978 278.96 311.764 278.48L301.884 255.28C301.804 255.12 301.751 254.96 301.724 254.8C301.698 254.613 301.684 254.44 301.684 254.28C301.684 253.507 301.964 252.92 302.524 252.52C303.084 252.093 303.618 251.88 304.124 251.88C305.138 251.88 305.871 252.4 306.324 253.44L315.084 274.04L313.684 274.08L321.724 253.44C322.178 252.427 322.911 251.92 323.924 251.92ZM333.034 252H346.434C347.127 252 347.7 252.227 348.154 252.68C348.634 253.107 348.874 253.667 348.874 254.36C348.874 255.027 348.634 255.573 348.154 256C347.7 256.4 347.127 256.6 346.434 256.6H335.234L335.594 255.92V263.72L335.274 263.4H344.634C345.327 263.4 345.9 263.627 346.354 264.08C346.834 264.507 347.074 265.067 347.074 265.76C347.074 266.427 346.834 266.973 346.354 267.4C345.9 267.8 345.327 268 344.634 268H335.394L335.594 267.68V275.76L335.274 275.4H346.434C347.127 275.4 347.7 275.64 348.154 276.12C348.634 276.573 348.874 277.107 348.874 277.72C348.874 278.387 348.634 278.933 348.154 279.36C347.7 279.787 347.127 280 346.434 280H333.034C332.34 280 331.754 279.773 331.274 279.32C330.82 278.84 330.594 278.253 330.594 277.56V254.44C330.594 253.747 330.82 253.173 331.274 252.72C331.754 252.24 332.34 252 333.034 252ZM368.924 275.32C369.618 275.32 370.191 275.547 370.644 276C371.124 276.427 371.364 276.987 371.364 277.68C371.364 278.347 371.124 278.907 370.644 279.36C370.191 279.787 369.618 280 368.924 280H355.924C355.231 280 354.644 279.773 354.164 279.32C353.711 278.84 353.484 278.253 353.484 277.56V254.44C353.484 253.747 353.724 253.173 354.204 252.72C354.684 252.24 355.298 252 356.044 252C356.684 252 357.244 252.24 357.724 252.72C358.231 253.173 358.484 253.747 358.484 254.44V276L357.604 275.32H368.924ZM401.315 266C401.315 268 400.981 269.867 400.315 271.6C399.648 273.333 398.701 274.867 397.475 276.2C396.275 277.507 394.835 278.533 393.155 279.28C391.501 280.027 389.688 280.4 387.715 280.4C385.741 280.4 383.928 280.027 382.275 279.28C380.621 278.533 379.181 277.507 377.955 276.2C376.755 274.867 375.821 273.333 375.155 271.6C374.488 269.867 374.155 268 374.155 266C374.155 264 374.488 262.133 375.155 260.4C375.821 258.667 376.755 257.147 377.955 255.84C379.181 254.507 380.621 253.467 382.275 252.72C383.928 251.973 385.741 251.6 387.715 251.6C389.688 251.6 391.501 251.973 393.155 252.72C394.835 253.467 396.275 254.507 397.475 255.84C398.701 257.147 399.648 258.667 400.315 260.4C400.981 262.133 401.315 264 401.315 266ZM396.115 266C396.115 264.213 395.755 262.6 395.035 261.16C394.315 259.693 393.328 258.533 392.075 257.68C390.821 256.827 389.368 256.4 387.715 256.4C386.061 256.4 384.608 256.827 383.355 257.68C382.101 258.533 381.115 259.68 380.395 261.12C379.701 262.56 379.355 264.187 379.355 266C379.355 267.787 379.701 269.413 380.395 270.88C381.115 272.32 382.101 273.467 383.355 274.32C384.608 275.173 386.061 275.6 387.715 275.6C389.368 275.6 390.821 275.173 392.075 274.32C393.328 273.467 394.315 272.32 395.035 270.88C395.755 269.413 396.115 267.787 396.115 266ZM417.466 252C418.853 252 420.146 252.4 421.346 253.2C422.573 254 423.56 255.08 424.306 256.44C425.053 257.8 425.426 259.32 425.426 261C425.426 262.653 425.053 264.16 424.306 265.52C423.56 266.88 422.573 267.973 421.346 268.8C420.146 269.6 418.853 270 417.466 270H410.106L410.506 269.28V277.56C410.506 278.253 410.293 278.84 409.866 279.32C409.44 279.773 408.88 280 408.186 280C407.52 280 406.973 279.773 406.546 279.32C406.12 278.84 405.906 278.253 405.906 277.56V254.44C405.906 253.747 406.133 253.173 406.586 252.72C407.066 252.24 407.653 252 408.346 252H417.466ZM417.466 265.44C417.973 265.44 418.466 265.227 418.946 264.8C419.426 264.373 419.826 263.827 420.146 263.16C420.466 262.467 420.626 261.747 420.626 261C420.626 260.227 420.466 259.507 420.146 258.84C419.826 258.173 419.426 257.64 418.946 257.24C418.466 256.813 417.973 256.6 417.466 256.6H410.026L410.506 255.88V266.08L410.066 265.44H417.466ZM432.448 252H445.848C446.541 252 447.114 252.227 447.568 252.68C448.048 253.107 448.288 253.667 448.288 254.36C448.288 255.027 448.048 255.573 447.568 256C447.114 256.4 446.541 256.6 445.848 256.6H434.648L435.008 255.92V263.72L434.688 263.4H444.048C444.741 263.4 445.314 263.627 445.768 264.08C446.248 264.507 446.488 265.067 446.488 265.76C446.488 266.427 446.248 266.973 445.768 267.4C445.314 267.8 444.741 268 444.048 268H434.808L435.008 267.68V275.76L434.688 275.4H445.848C446.541 275.4 447.114 275.64 447.568 276.12C448.048 276.573 448.288 277.107 448.288 277.72C448.288 278.387 448.048 278.933 447.568 279.36C447.114 279.787 446.541 280 445.848 280H432.448C431.754 280 431.168 279.773 430.688 279.32C430.234 278.84 430.008 278.253 430.008 277.56V254.44C430.008 253.747 430.234 253.173 430.688 252.72C431.168 252.24 431.754 252 432.448 252ZM455.778 280C455.032 280 454.365 279.773 453.778 279.32C453.192 278.84 452.898 278.253 452.898 277.56V254.44C452.898 253.747 453.125 253.173 453.578 252.72C454.058 252.24 454.645 252 455.338 252H466.858C468.245 252 469.538 252.373 470.738 253.12C471.965 253.84 472.952 254.853 473.698 256.16C474.445 257.44 474.818 258.92 474.818 260.6C474.818 261.613 474.605 262.6 474.178 263.56C473.778 264.52 473.218 265.387 472.498 266.16C471.805 266.933 471.018 267.533 470.138 267.96L470.178 267.04C470.925 267.44 471.538 267.92 472.018 268.48C472.525 269.013 472.912 269.6 473.178 270.24C473.472 270.853 473.645 271.52 473.698 272.24C473.805 272.907 473.872 273.493 473.898 274C473.952 274.507 474.032 274.933 474.138 275.28C474.272 275.627 474.512 275.893 474.858 276.08C475.445 276.427 475.805 276.933 475.938 277.6C476.098 278.24 475.952 278.813 475.498 279.32C475.205 279.667 474.832 279.893 474.378 280C473.925 280.08 473.472 280.08 473.018 280C472.565 279.893 472.192 279.76 471.898 279.6C471.445 279.333 470.992 278.947 470.538 278.44C470.085 277.907 469.712 277.2 469.418 276.32C469.152 275.44 469.018 274.307 469.018 272.92C469.018 272.467 468.938 272.053 468.778 271.68C468.618 271.28 468.392 270.947 468.098 270.68C467.805 270.387 467.432 270.173 466.978 270.04C466.525 269.88 465.992 269.8 465.378 269.8H457.298L457.898 268.88V277.56C457.898 278.253 457.712 278.84 457.338 279.32C456.965 279.773 456.445 280 455.778 280ZM457.338 265.68H466.658C467.138 265.68 467.605 265.467 468.058 265.04C468.512 264.587 468.885 263.987 469.178 263.24C469.472 262.467 469.618 261.627 469.618 260.72C469.618 259.547 469.298 258.573 468.658 257.8C468.045 257 467.378 256.6 466.658 256.6H457.418L457.898 255.32V266.64L457.338 265.68Z" fill="#D9D9D9"/>
<circle class="primary-fill transparent-stroke" cx="140.409" cy="279.909" r="4" fill="#D9D9D9"/>
<circle class="primary-fill transparent-stroke" cx="151.505" cy="268.435" r="4" fill="#D9D9D9"/>
<path class="transparent-fill transparent-stroke" d="M234.236 303.568L263.581 332.913L376.718 332.913" stroke="#D9D9D9" stroke-width="4" stroke-linecap="round"/>
<circle class="transparent-fill transparent-stroke" cx="189.193" cy="267.011" r="6" transform="rotate(45 189.193 267.011)" stroke="#D9D9D9" stroke-width="4"/>
<circle class="transparent-fill transparent-stroke" cx="192.314" cy="156.314" r="6" transform="rotate(45 192.314 156.314)" stroke="#D9D9D9" stroke-width="4"/>
<circle class="transparent-fill transparent-stroke" cx="193.224" cy="190.431" r="6" transform="rotate(45 193.224 190.431)" stroke="#D9D9D9" stroke-width="4"/>
<rect class="transparent-fill transparent-stroke" x="157.869" y="218.715" width="11" height="18" transform="rotate(45 157.869 218.715)" fill="#D9D9D9"/>
<path class="primary-fill transparent-stroke" d="M244.864 164C244.453 164 244.116 163.875 243.852 163.626C243.588 163.362 243.456 163.039 243.456 162.658V149.898H246.316V162.658C246.316 163.039 246.177 163.362 245.898 163.626C245.634 163.875 245.289 164 244.864 164ZM240.002 151.13C239.621 151.13 239.298 151.013 239.034 150.778C238.785 150.543 238.66 150.235 238.66 149.854C238.66 149.473 238.785 149.172 239.034 148.952C239.298 148.717 239.621 148.6 240.002 148.6H249.77C250.151 148.6 250.467 148.717 250.716 148.952C250.98 149.187 251.112 149.495 251.112 149.876C251.112 150.257 250.98 150.565 250.716 150.8C250.467 151.02 250.151 151.13 249.77 151.13H240.002ZM258.371 164.22C257.345 164.22 256.421 164.095 255.599 163.846C254.778 163.582 253.993 163.127 253.245 162.482C253.055 162.321 252.908 162.137 252.805 161.932C252.703 161.727 252.651 161.521 252.651 161.316C252.651 160.979 252.769 160.685 253.003 160.436C253.253 160.172 253.561 160.04 253.927 160.04C254.206 160.04 254.455 160.128 254.675 160.304C255.233 160.759 255.783 161.103 256.325 161.338C256.883 161.573 257.565 161.69 258.371 161.69C258.914 161.69 259.413 161.609 259.867 161.448C260.322 161.272 260.689 161.045 260.967 160.766C261.246 160.473 261.385 160.143 261.385 159.776C261.385 159.336 261.253 158.962 260.989 158.654C260.725 158.346 260.322 158.089 259.779 157.884C259.237 157.664 258.547 157.495 257.711 157.378C256.919 157.261 256.223 157.085 255.621 156.85C255.02 156.601 254.514 156.293 254.103 155.926C253.707 155.545 253.407 155.105 253.201 154.606C252.996 154.093 252.893 153.521 252.893 152.89C252.893 151.937 253.135 151.123 253.619 150.448C254.118 149.773 254.785 149.26 255.621 148.908C256.457 148.556 257.381 148.38 258.393 148.38C259.347 148.38 260.227 148.527 261.033 148.82C261.855 149.099 262.522 149.458 263.035 149.898C263.461 150.235 263.673 150.624 263.673 151.064C263.673 151.387 263.549 151.68 263.299 151.944C263.05 152.208 262.757 152.34 262.419 152.34C262.199 152.34 262.001 152.274 261.825 152.142C261.591 151.937 261.275 151.746 260.879 151.57C260.483 151.379 260.065 151.225 259.625 151.108C259.185 150.976 258.775 150.91 258.393 150.91C257.763 150.91 257.227 150.991 256.787 151.152C256.362 151.313 256.039 151.533 255.819 151.812C255.599 152.091 255.489 152.413 255.489 152.78C255.489 153.22 255.614 153.587 255.863 153.88C256.127 154.159 256.501 154.386 256.985 154.562C257.469 154.723 258.049 154.87 258.723 155.002C259.603 155.163 260.373 155.354 261.033 155.574C261.708 155.794 262.265 156.08 262.705 156.432C263.145 156.769 263.475 157.202 263.695 157.73C263.915 158.243 264.025 158.874 264.025 159.622C264.025 160.575 263.761 161.397 263.233 162.086C262.705 162.775 262.009 163.303 261.143 163.67C260.293 164.037 259.369 164.22 258.371 164.22Z" fill="#D9D9D9"/>
<rect class="transparent-fill primary-stroke" x="235" y="139" width="34" height="34" stroke="#D9D9D9" stroke-width="2"/>
<path class="transparent-fill primary-stroke" d="M270 156L287 156H296" stroke="#D9D9D9" stroke-width="2"/>
<path class="transparent-fill primary-stroke" d="M270 146H287V120H294" stroke="#D9D9D9" stroke-width="2"/>
<path class="transparent-fill primary-stroke" d="M270 166H287V192H294" stroke="#D9D9D9" stroke-width="2"/>
<path class="primary-fill transparent-stroke" d="M322.764 125C322.54 125 322.34 124.932 322.164 124.796C321.988 124.652 321.9 124.476 321.9 124.268V117.332C321.9 117.124 321.968 116.952 322.104 116.816C322.248 116.672 322.424 116.6 322.632 116.6H326.088C326.504 116.6 326.892 116.712 327.252 116.936C327.62 117.152 327.916 117.456 328.14 117.848C328.364 118.232 328.476 118.676 328.476 119.18C328.476 119.484 328.412 119.78 328.284 120.068C328.164 120.356 327.996 120.616 327.78 120.848C327.572 121.08 327.336 121.26 327.072 121.388L327.084 121.112C327.308 121.232 327.492 121.376 327.636 121.544C327.788 121.704 327.904 121.88 327.984 122.072C328.072 122.256 328.124 122.456 328.14 122.672C328.172 122.872 328.192 123.048 328.2 123.2C328.216 123.352 328.24 123.48 328.272 123.584C328.312 123.688 328.384 123.768 328.488 123.824C328.664 123.928 328.772 124.08 328.812 124.28C328.86 124.472 328.816 124.644 328.68 124.796C328.592 124.9 328.48 124.968 328.344 125C328.208 125.024 328.072 125.024 327.936 125C327.8 124.968 327.688 124.928 327.6 124.88C327.464 124.8 327.328 124.684 327.192 124.532C327.056 124.372 326.944 124.16 326.856 123.896C326.776 123.632 326.736 123.292 326.736 122.876C326.736 122.74 326.712 122.616 326.664 122.504C326.616 122.384 326.548 122.284 326.46 122.204C326.372 122.116 326.26 122.052 326.124 122.012C325.988 121.964 325.828 121.94 325.644 121.94H323.22L323.4 121.664V124.268C323.4 124.476 323.344 124.652 323.232 124.796C323.12 124.932 322.964 125 322.764 125ZM323.232 120.704H326.028C326.172 120.704 326.312 120.64 326.448 120.512C326.584 120.376 326.696 120.196 326.784 119.972C326.872 119.74 326.916 119.488 326.916 119.216C326.916 118.864 326.82 118.572 326.628 118.34C326.444 118.1 326.244 117.98 326.028 117.98H323.256L323.4 117.596V120.992L323.232 120.704ZM330.87 116.6H334.89C335.098 116.6 335.27 116.668 335.406 116.804C335.55 116.932 335.622 117.1 335.622 117.308C335.622 117.508 335.55 117.672 335.406 117.8C335.27 117.92 335.098 117.98 334.89 117.98H331.53L331.638 117.776V120.116L331.542 120.02H334.35C334.558 120.02 334.73 120.088 334.866 120.224C335.01 120.352 335.082 120.52 335.082 120.728C335.082 120.928 335.01 121.092 334.866 121.22C334.73 121.34 334.558 121.4 334.35 121.4H331.578L331.638 121.304V123.728L331.542 123.62H334.89C335.098 123.62 335.27 123.692 335.406 123.836C335.55 123.972 335.622 124.132 335.622 124.316C335.622 124.516 335.55 124.68 335.406 124.808C335.27 124.936 335.098 125 334.89 125H330.87C330.662 125 330.486 124.932 330.342 124.796C330.206 124.652 330.138 124.476 330.138 124.268V117.332C330.138 117.124 330.206 116.952 330.342 116.816C330.486 116.672 330.662 116.6 330.87 116.6ZM340.089 118.484L337.497 124.58C337.441 124.732 337.353 124.852 337.233 124.94C337.121 125.02 336.997 125.06 336.861 125.06C336.645 125.06 336.485 125 336.381 124.88C336.277 124.76 336.225 124.612 336.225 124.436C336.225 124.364 336.237 124.288 336.261 124.208L339.249 117.032C339.313 116.872 339.409 116.748 339.537 116.66C339.673 116.572 339.817 116.536 339.969 116.552C340.113 116.552 340.245 116.596 340.365 116.684C340.493 116.764 340.585 116.88 340.641 117.032L343.593 124.064C343.633 124.168 343.653 124.264 343.653 124.352C343.653 124.568 343.581 124.74 343.437 124.868C343.301 124.996 343.149 125.06 342.981 125.06C342.837 125.06 342.705 125.016 342.585 124.928C342.473 124.84 342.385 124.72 342.321 124.568L339.741 118.556L340.089 118.484ZM337.869 123.116L338.529 121.736H341.769L341.997 123.116H337.869ZM350.491 117.008C350.699 117.112 350.819 117.276 350.851 117.5C350.891 117.724 350.835 117.928 350.683 118.112C350.579 118.256 350.443 118.336 350.275 118.352C350.115 118.368 349.951 118.336 349.783 118.256C349.591 118.168 349.387 118.1 349.171 118.052C348.963 118.004 348.743 117.98 348.511 117.98C348.079 117.98 347.691 118.048 347.347 118.184C347.011 118.32 346.723 118.516 346.483 118.772C346.243 119.02 346.059 119.316 345.931 119.66C345.811 120.004 345.751 120.384 345.751 120.8C345.751 121.288 345.819 121.712 345.955 122.072C346.099 122.432 346.295 122.732 346.543 122.972C346.791 123.212 347.083 123.392 347.419 123.512C347.755 123.624 348.119 123.68 348.511 123.68C348.727 123.68 348.943 123.66 349.159 123.62C349.375 123.58 349.583 123.508 349.783 123.404C349.951 123.324 350.115 123.296 350.275 123.32C350.443 123.344 350.583 123.428 350.695 123.572C350.855 123.772 350.911 123.98 350.863 124.196C350.823 124.404 350.703 124.556 350.503 124.652C350.295 124.756 350.079 124.844 349.855 124.916C349.639 124.98 349.419 125.028 349.195 125.06C348.971 125.1 348.743 125.12 348.511 125.12C347.935 125.12 347.387 125.028 346.867 124.844C346.355 124.66 345.895 124.388 345.487 124.028C345.087 123.668 344.771 123.22 344.539 122.684C344.307 122.14 344.191 121.512 344.191 120.8C344.191 120.184 344.295 119.616 344.503 119.096C344.719 118.576 345.019 118.128 345.403 117.752C345.795 117.368 346.255 117.072 346.783 116.864C347.311 116.648 347.887 116.54 348.511 116.54C348.863 116.54 349.207 116.58 349.543 116.66C349.879 116.74 350.195 116.856 350.491 117.008ZM354.978 125C354.754 125 354.57 124.932 354.426 124.796C354.282 124.652 354.21 124.476 354.21 124.268V117.308H355.77V124.268C355.77 124.476 355.694 124.652 355.542 124.796C355.398 124.932 355.21 125 354.978 125ZM352.326 117.98C352.118 117.98 351.942 117.916 351.798 117.788C351.662 117.66 351.594 117.492 351.594 117.284C351.594 117.076 351.662 116.912 351.798 116.792C351.942 116.664 352.118 116.6 352.326 116.6H357.654C357.862 116.6 358.034 116.664 358.17 116.792C358.314 116.92 358.386 117.088 358.386 117.296C358.386 117.504 358.314 117.672 358.17 117.8C358.034 117.92 357.862 117.98 357.654 117.98H352.326Z" fill="#D9D9D9"/>
<rect class="transparent-fill primary-stroke" x="295" y="107" width="90" height="26" stroke="#D9D9D9" stroke-width="2"/>
<path class="primary-fill transparent-stroke" d="M325.272 152.6C325.464 152.6 325.62 152.664 325.74 152.792C325.86 152.92 325.92 153.08 325.92 153.272V160.268C325.92 160.476 325.848 160.652 325.704 160.796C325.568 160.932 325.396 161 325.188 161C325.084 161 324.976 160.984 324.864 160.952C324.76 160.912 324.68 160.86 324.624 160.796L319.908 154.808L320.22 154.616V160.328C320.22 160.52 320.156 160.68 320.028 160.808C319.908 160.936 319.748 161 319.548 161C319.356 161 319.2 160.936 319.08 160.808C318.96 160.68 318.9 160.52 318.9 160.328V153.332C318.9 153.124 318.968 152.952 319.104 152.816C319.248 152.672 319.424 152.6 319.632 152.6C319.744 152.6 319.86 152.624 319.98 152.672C320.1 152.712 320.188 152.776 320.244 152.864L324.816 158.696L324.612 158.84V153.272C324.612 153.08 324.672 152.92 324.792 152.792C324.912 152.664 325.072 152.6 325.272 152.6ZM328.456 152.6H332.476C332.684 152.6 332.856 152.668 332.992 152.804C333.136 152.932 333.208 153.1 333.208 153.308C333.208 153.508 333.136 153.672 332.992 153.8C332.856 153.92 332.684 153.98 332.476 153.98H329.116L329.224 153.776V156.116L329.128 156.02H331.936C332.144 156.02 332.316 156.088 332.452 156.224C332.596 156.352 332.668 156.52 332.668 156.728C332.668 156.928 332.596 157.092 332.452 157.22C332.316 157.34 332.144 157.4 331.936 157.4H329.164L329.224 157.304V159.728L329.128 159.62H332.476C332.684 159.62 332.856 159.692 332.992 159.836C333.136 159.972 333.208 160.132 333.208 160.316C333.208 160.516 333.136 160.68 332.992 160.808C332.856 160.936 332.684 161 332.476 161H328.456C328.248 161 328.072 160.932 327.928 160.796C327.792 160.652 327.724 160.476 327.724 160.268V153.332C327.724 153.124 327.792 152.952 327.928 152.816C328.072 152.672 328.248 152.6 328.456 152.6ZM340.339 152.588C340.523 152.588 340.679 152.66 340.807 152.804C340.943 152.948 341.011 153.1 341.011 153.26C341.011 153.412 340.959 153.556 340.855 153.692L338.443 156.872L337.627 155.756L339.751 152.936C339.919 152.704 340.115 152.588 340.339 152.588ZM334.987 152.564C335.219 152.564 335.415 152.668 335.575 152.876L340.855 159.896C340.951 160.024 340.999 160.172 340.999 160.34C340.999 160.564 340.919 160.74 340.759 160.868C340.599 160.996 340.439 161.06 340.279 161.06C340.047 161.06 339.851 160.956 339.691 160.748L334.411 153.728C334.307 153.6 334.255 153.456 334.255 153.296C334.255 153.088 334.331 152.916 334.483 152.78C334.643 152.636 334.811 152.564 334.987 152.564ZM334.879 161.06C334.703 161.06 334.551 160.996 334.423 160.868C334.295 160.732 334.231 160.584 334.231 160.424C334.231 160.248 334.291 160.084 334.411 159.932L336.847 156.632L337.639 157.796L335.479 160.724C335.319 160.948 335.119 161.06 334.879 161.06ZM345.299 161C345.075 161 344.891 160.932 344.747 160.796C344.603 160.652 344.531 160.476 344.531 160.268V153.308H346.091V160.268C346.091 160.476 346.015 160.652 345.863 160.796C345.719 160.932 345.531 161 345.299 161ZM342.647 153.98C342.439 153.98 342.263 153.916 342.119 153.788C341.983 153.66 341.915 153.492 341.915 153.284C341.915 153.076 341.983 152.912 342.119 152.792C342.263 152.664 342.439 152.6 342.647 152.6H347.975C348.183 152.6 348.355 152.664 348.491 152.792C348.635 152.92 348.707 153.088 348.707 153.296C348.707 153.504 348.635 153.672 348.491 153.8C348.355 153.92 348.183 153.98 347.975 153.98H342.647ZM351.137 161.12C350.681 161.12 350.257 161.028 349.865 160.844C349.473 160.66 349.153 160.396 348.905 160.052C348.809 159.908 348.761 159.768 348.761 159.632C348.761 159.432 348.837 159.264 348.989 159.128C349.149 158.992 349.305 158.924 349.457 158.924C349.577 158.924 349.693 158.96 349.805 159.032C349.925 159.104 350.033 159.188 350.129 159.284C350.289 159.428 350.445 159.532 350.597 159.596C350.757 159.652 350.937 159.68 351.137 159.68C351.377 159.68 351.601 159.62 351.809 159.5C352.017 159.38 352.185 159.22 352.313 159.02C352.441 158.82 352.505 158.604 352.505 158.372V153.332C352.505 153.124 352.581 152.952 352.733 152.816C352.885 152.672 353.061 152.6 353.261 152.6C353.485 152.6 353.665 152.672 353.801 152.816C353.937 152.952 354.005 153.124 354.005 153.332V158.372C354.005 158.86 353.877 159.312 353.621 159.728C353.365 160.144 353.021 160.48 352.589 160.736C352.157 160.992 351.673 161.12 351.137 161.12ZM358.502 161.12C357.942 161.12 357.438 161.052 356.99 160.916C356.542 160.772 356.114 160.524 355.706 160.172C355.602 160.084 355.522 159.984 355.466 159.872C355.41 159.76 355.382 159.648 355.382 159.536C355.382 159.352 355.446 159.192 355.574 159.056C355.71 158.912 355.878 158.84 356.078 158.84C356.23 158.84 356.366 158.888 356.486 158.984C356.79 159.232 357.09 159.42 357.386 159.548C357.69 159.676 358.062 159.74 358.502 159.74C358.798 159.74 359.07 159.696 359.318 159.608C359.566 159.512 359.766 159.388 359.918 159.236C360.07 159.076 360.146 158.896 360.146 158.696C360.146 158.456 360.074 158.252 359.93 158.084C359.786 157.916 359.566 157.776 359.27 157.664C358.974 157.544 358.598 157.452 358.142 157.388C357.71 157.324 357.33 157.228 357.002 157.1C356.674 156.964 356.398 156.796 356.174 156.596C355.958 156.388 355.794 156.148 355.682 155.876C355.57 155.596 355.514 155.284 355.514 154.94C355.514 154.42 355.646 153.976 355.91 153.608C356.182 153.24 356.546 152.96 357.002 152.768C357.458 152.576 357.962 152.48 358.514 152.48C359.034 152.48 359.514 152.56 359.954 152.72C360.402 152.872 360.766 153.068 361.046 153.308C361.278 153.492 361.394 153.704 361.394 153.944C361.394 154.12 361.326 154.28 361.19 154.424C361.054 154.568 360.894 154.64 360.71 154.64C360.59 154.64 360.482 154.604 360.386 154.532C360.258 154.42 360.086 154.316 359.87 154.22C359.654 154.116 359.426 154.032 359.186 153.968C358.946 153.896 358.722 153.86 358.514 153.86C358.17 153.86 357.878 153.904 357.638 153.992C357.406 154.08 357.23 154.2 357.11 154.352C356.99 154.504 356.93 154.68 356.93 154.88C356.93 155.12 356.998 155.32 357.134 155.48C357.278 155.632 357.482 155.756 357.746 155.852C358.01 155.94 358.326 156.02 358.694 156.092C359.174 156.18 359.594 156.284 359.954 156.404C360.322 156.524 360.626 156.68 360.866 156.872C361.106 157.056 361.286 157.292 361.406 157.58C361.526 157.86 361.586 158.204 361.586 158.612C361.586 159.132 361.442 159.58 361.154 159.956C360.866 160.332 360.486 160.62 360.014 160.82C359.55 161.02 359.046 161.12 358.502 161.12Z" fill="#D9D9D9"/>
<rect class="transparent-fill primary-stroke" x="295" y="169" width="26" height="90" transform="rotate(-90 295 169)" stroke="#D9D9D9" stroke-width="2"/>
<path class="primary-fill transparent-stroke" d="M315.984 190.484L313.392 196.58C313.336 196.732 313.248 196.852 313.128 196.94C313.016 197.02 312.892 197.06 312.756 197.06C312.54 197.06 312.38 197 312.276 196.88C312.172 196.76 312.12 196.612 312.12 196.436C312.12 196.364 312.132 196.288 312.156 196.208L315.144 189.032C315.208 188.872 315.304 188.748 315.432 188.66C315.568 188.572 315.712 188.536 315.864 188.552C316.008 188.552 316.14 188.596 316.26 188.684C316.388 188.764 316.48 188.88 316.536 189.032L319.488 196.064C319.528 196.168 319.548 196.264 319.548 196.352C319.548 196.568 319.476 196.74 319.332 196.868C319.196 196.996 319.044 197.06 318.876 197.06C318.732 197.06 318.6 197.016 318.48 196.928C318.368 196.84 318.28 196.72 318.216 196.568L315.636 190.556L315.984 190.484ZM313.764 195.116L314.424 193.736H317.664L317.892 195.116H313.764ZM326.936 188.6C327.128 188.6 327.284 188.664 327.404 188.792C327.524 188.92 327.584 189.08 327.584 189.272V196.268C327.584 196.476 327.512 196.652 327.368 196.796C327.232 196.932 327.06 197 326.852 197C326.748 197 326.64 196.984 326.528 196.952C326.424 196.912 326.344 196.86 326.288 196.796L321.572 190.808L321.884 190.616V196.328C321.884 196.52 321.82 196.68 321.692 196.808C321.572 196.936 321.412 197 321.212 197C321.02 197 320.864 196.936 320.744 196.808C320.624 196.68 320.564 196.52 320.564 196.328V189.332C320.564 189.124 320.632 188.952 320.768 188.816C320.912 188.672 321.088 188.6 321.296 188.6C321.408 188.6 321.524 188.624 321.644 188.672C321.764 188.712 321.852 188.776 321.908 188.864L326.48 194.696L326.276 194.84V189.272C326.276 189.08 326.336 188.92 326.456 188.792C326.576 188.664 326.736 188.6 326.936 188.6ZM333.348 197.12C332.74 197.12 332.172 197.008 331.644 196.784C331.116 196.56 330.652 196.252 330.252 195.86C329.852 195.46 329.536 195 329.304 194.48C329.08 193.96 328.968 193.4 328.968 192.8C328.968 192.2 329.08 191.64 329.304 191.12C329.536 190.6 329.852 190.144 330.252 189.752C330.652 189.352 331.116 189.04 331.644 188.816C332.172 188.592 332.74 188.48 333.348 188.48C333.724 188.48 334.088 188.52 334.44 188.6C334.792 188.68 335.116 188.8 335.412 188.96C335.532 189.024 335.62 189.112 335.676 189.224C335.74 189.328 335.772 189.436 335.772 189.548C335.772 189.74 335.708 189.912 335.58 190.064C335.452 190.216 335.288 190.292 335.088 190.292C335.024 190.292 334.956 190.284 334.884 190.268C334.82 190.252 334.756 190.228 334.692 190.196C334.492 190.108 334.28 190.04 334.056 189.992C333.832 189.944 333.596 189.92 333.348 189.92C332.828 189.92 332.352 190.052 331.92 190.316C331.496 190.572 331.156 190.92 330.9 191.36C330.652 191.792 330.528 192.272 330.528 192.8C330.528 193.32 330.652 193.8 330.9 194.24C331.156 194.68 331.496 195.032 331.92 195.296C332.352 195.552 332.828 195.68 333.348 195.68C333.588 195.68 333.852 195.656 334.14 195.608C334.428 195.56 334.664 195.496 334.848 195.416L334.74 195.776V193.724L334.944 193.904H333.612C333.404 193.904 333.228 193.836 333.084 193.7C332.948 193.564 332.88 193.392 332.88 193.184C332.88 192.976 332.948 192.804 333.084 192.668C333.228 192.532 333.404 192.464 333.612 192.464H335.58C335.788 192.464 335.96 192.536 336.096 192.68C336.232 192.816 336.3 192.988 336.3 193.196V195.74C336.3 195.9 336.26 196.032 336.18 196.136C336.108 196.24 336.024 196.324 335.928 196.388C335.56 196.612 335.156 196.792 334.716 196.928C334.284 197.056 333.828 197.12 333.348 197.12ZM343.708 188.588C343.916 188.588 344.084 188.66 344.212 188.804C344.34 188.94 344.404 189.112 344.404 189.32V193.664C344.404 194.328 344.26 194.916 343.972 195.428C343.692 195.94 343.304 196.34 342.808 196.628C342.312 196.916 341.736 197.06 341.08 197.06C340.424 197.06 339.844 196.916 339.34 196.628C338.844 196.34 338.452 195.94 338.164 195.428C337.884 194.916 337.744 194.328 337.744 193.664V189.32C337.744 189.112 337.816 188.94 337.96 188.804C338.104 188.66 338.288 188.588 338.512 188.588C338.696 188.588 338.86 188.66 339.004 188.804C339.156 188.94 339.232 189.112 339.232 189.32V193.664C339.232 194.064 339.316 194.412 339.484 194.708C339.66 194.996 339.888 195.22 340.168 195.38C340.456 195.54 340.76 195.62 341.08 195.62C341.424 195.62 341.744 195.54 342.04 195.38C342.336 195.22 342.576 194.996 342.76 194.708C342.944 194.412 343.036 194.064 343.036 193.664V189.32C343.036 189.112 343.096 188.94 343.216 188.804C343.336 188.66 343.5 188.588 343.708 188.588ZM350.837 195.596C351.045 195.596 351.217 195.664 351.353 195.8C351.497 195.928 351.569 196.096 351.569 196.304C351.569 196.504 351.497 196.672 351.353 196.808C351.217 196.936 351.045 197 350.837 197H346.937C346.729 197 346.553 196.932 346.409 196.796C346.273 196.652 346.205 196.476 346.205 196.268V189.332C346.205 189.124 346.277 188.952 346.421 188.816C346.565 188.672 346.749 188.6 346.973 188.6C347.165 188.6 347.333 188.672 347.477 188.816C347.629 188.952 347.705 189.124 347.705 189.332V195.8L347.441 195.596H350.837ZM356.027 190.484L353.435 196.58C353.379 196.732 353.291 196.852 353.171 196.94C353.059 197.02 352.935 197.06 352.799 197.06C352.583 197.06 352.423 197 352.319 196.88C352.215 196.76 352.163 196.612 352.163 196.436C352.163 196.364 352.175 196.288 352.199 196.208L355.187 189.032C355.251 188.872 355.347 188.748 355.475 188.66C355.611 188.572 355.755 188.536 355.907 188.552C356.051 188.552 356.183 188.596 356.303 188.684C356.431 188.764 356.523 188.88 356.579 189.032L359.531 196.064C359.571 196.168 359.591 196.264 359.591 196.352C359.591 196.568 359.519 196.74 359.375 196.868C359.239 196.996 359.087 197.06 358.919 197.06C358.775 197.06 358.643 197.016 358.523 196.928C358.411 196.84 358.323 196.72 358.259 196.568L355.679 190.556L356.027 190.484ZM353.807 195.116L354.467 193.736H357.707L357.935 195.116H353.807ZM361.471 197C361.247 197 361.047 196.932 360.871 196.796C360.695 196.652 360.607 196.476 360.607 196.268V189.332C360.607 189.124 360.675 188.952 360.811 188.816C360.955 188.672 361.131 188.6 361.339 188.6H364.795C365.211 188.6 365.599 188.712 365.959 188.936C366.327 189.152 366.623 189.456 366.847 189.848C367.071 190.232 367.183 190.676 367.183 191.18C367.183 191.484 367.119 191.78 366.991 192.068C366.871 192.356 366.703 192.616 366.487 192.848C366.279 193.08 366.043 193.26 365.779 193.388L365.791 193.112C366.015 193.232 366.199 193.376 366.343 193.544C366.495 193.704 366.611 193.88 366.691 194.072C366.779 194.256 366.831 194.456 366.847 194.672C366.879 194.872 366.899 195.048 366.907 195.2C366.923 195.352 366.947 195.48 366.979 195.584C367.019 195.688 367.091 195.768 367.195 195.824C367.371 195.928 367.479 196.08 367.519 196.28C367.567 196.472 367.523 196.644 367.387 196.796C367.299 196.9 367.187 196.968 367.051 197C366.915 197.024 366.779 197.024 366.643 197C366.507 196.968 366.395 196.928 366.307 196.88C366.171 196.8 366.035 196.684 365.899 196.532C365.763 196.372 365.651 196.16 365.563 195.896C365.483 195.632 365.443 195.292 365.443 194.876C365.443 194.74 365.419 194.616 365.371 194.504C365.323 194.384 365.255 194.284 365.167 194.204C365.079 194.116 364.967 194.052 364.831 194.012C364.695 193.964 364.535 193.94 364.351 193.94H361.927L362.107 193.664V196.268C362.107 196.476 362.051 196.652 361.939 196.796C361.827 196.932 361.671 197 361.471 197ZM361.939 192.704H364.735C364.879 192.704 365.019 192.64 365.155 192.512C365.291 192.376 365.403 192.196 365.491 191.972C365.579 191.74 365.623 191.488 365.623 191.216C365.623 190.864 365.527 190.572 365.335 190.34C365.151 190.1 364.951 189.98 364.735 189.98H361.963L362.107 189.596V192.992L361.939 192.704Z" fill="#D9D9D9"/>
<rect class="transparent-fill primary-stroke" x="295" y="179" width="90" height="26" stroke="#D9D9D9" stroke-width="2"/>
<path class="primary-fill transparent-stroke" d="M125.483 181.904C125.778 181.61 126.137 181.42 126.561 181.336C126.991 181.245 127.429 181.265 127.876 181.395C128.323 181.525 128.725 181.768 129.081 182.125C129.432 182.475 129.672 182.874 129.802 183.321C129.932 183.768 129.955 184.209 129.87 184.645C129.785 185.069 129.596 185.428 129.302 185.722L127.74 187.284L127.673 187.046L129.429 188.803C129.576 188.95 129.655 189.119 129.667 189.312C129.672 189.498 129.602 189.665 129.454 189.812C129.313 189.954 129.149 190.022 128.962 190.016C128.77 190.005 128.6 189.926 128.453 189.778L123.549 184.874C123.402 184.727 123.328 184.557 123.328 184.365C123.328 184.161 123.402 183.986 123.549 183.839L125.483 181.904ZM128.334 184.755C128.442 184.648 128.501 184.498 128.513 184.305C128.524 184.113 128.493 183.912 128.419 183.703C128.34 183.488 128.221 183.301 128.063 183.143C127.899 182.979 127.712 182.86 127.503 182.787C127.294 182.713 127.096 182.685 126.909 182.702C126.717 182.713 126.567 182.772 126.459 182.88L124.881 184.458L124.83 184.204L126.994 186.367L126.765 186.325L128.334 184.755ZM131.903 175.434C132.033 175.304 132.2 175.239 132.403 175.239C132.607 175.227 132.785 175.298 132.938 175.451C132.989 175.502 133.034 175.564 133.074 175.637C133.113 175.7 133.142 175.773 133.159 175.858L133.99 180.542L133.557 179.804L135.993 182.239C136.14 182.386 136.213 182.561 136.213 182.765C136.213 182.957 136.148 183.119 136.018 183.249C135.877 183.39 135.707 183.464 135.509 183.469C135.311 183.464 135.139 183.387 134.991 183.24L132.624 180.873L132.963 181.076L128.695 180.474C128.565 180.457 128.455 180.426 128.364 180.381C128.274 180.335 128.2 180.284 128.144 180.228C127.991 180.075 127.926 179.891 127.949 179.676C127.971 179.461 128.045 179.292 128.169 179.167C128.328 179.009 128.545 178.949 128.823 178.989L132.7 179.608L132.429 179.812L131.733 176.113C131.682 175.824 131.739 175.598 131.903 175.434ZM141.232 178.035C141.074 178.193 140.896 178.275 140.698 178.281C140.494 178.281 140.319 178.207 140.171 178.06L135.25 173.139L136.353 172.036L141.275 176.957C141.422 177.104 141.492 177.282 141.487 177.492C141.481 177.69 141.396 177.871 141.232 178.035ZM134.393 174.946C134.246 175.093 134.076 175.172 133.884 175.184C133.697 175.189 133.53 175.119 133.383 174.972C133.236 174.824 133.168 174.66 133.18 174.479C133.191 174.287 133.27 174.117 133.417 173.97L137.185 170.203C137.332 170.056 137.499 169.979 137.685 169.974C137.878 169.962 138.047 170.03 138.194 170.177C138.341 170.324 138.409 170.494 138.398 170.686C138.387 170.867 138.308 171.032 138.16 171.179L134.393 174.946ZM139.136 168.251C139.272 168.116 139.442 168.048 139.645 168.048C139.849 168.036 140.024 168.104 140.171 168.251L145.076 173.156C145.223 173.303 145.294 173.481 145.288 173.69C145.277 173.894 145.2 174.067 145.059 174.208C144.9 174.366 144.725 174.446 144.533 174.446C144.335 174.44 144.162 174.364 144.015 174.217L139.111 169.312C138.963 169.165 138.893 168.992 138.898 168.794C138.898 168.591 138.978 168.41 139.136 168.251ZM142.895 164.492C143.053 164.334 143.232 164.258 143.43 164.263C143.622 164.263 143.792 164.337 143.939 164.484L148.843 169.388C148.99 169.536 149.064 169.711 149.064 169.915C149.064 170.107 148.982 170.285 148.818 170.449C148.682 170.585 148.512 170.658 148.309 170.67C148.105 170.67 147.93 170.596 147.783 170.449L142.878 165.545C142.731 165.398 142.663 165.222 142.674 165.019C142.68 164.809 142.754 164.634 142.895 164.492ZM141.58 170.746L145.364 166.962L146.34 167.937L142.556 171.722L141.58 170.746ZM153.126 160.201C153.55 160.625 153.876 161.092 154.102 161.601C154.328 162.11 154.453 162.636 154.475 163.179C154.498 163.711 154.41 164.234 154.212 164.749C154.02 165.258 153.714 165.722 153.296 166.141C152.877 166.559 152.413 166.865 151.904 167.057C151.395 167.249 150.872 167.337 150.334 167.32C149.797 167.292 149.274 167.165 148.765 166.938C148.256 166.712 147.789 166.387 147.365 165.962C146.94 165.538 146.615 165.072 146.389 164.562C146.163 164.053 146.038 163.533 146.015 163.001C145.993 162.458 146.078 161.932 146.27 161.423C146.462 160.914 146.768 160.45 147.186 160.031C147.605 159.613 148.069 159.307 148.578 159.115C149.093 158.917 149.619 158.832 150.156 158.86C150.694 158.877 151.217 158.999 151.726 159.225C152.235 159.451 152.702 159.777 153.126 160.201ZM152.023 161.304C151.644 160.925 151.225 160.659 150.767 160.506C150.303 160.348 149.848 160.311 149.401 160.396C148.954 160.481 148.555 160.699 148.205 161.05C147.854 161.4 147.636 161.799 147.551 162.246C147.466 162.693 147.5 163.145 147.653 163.604C147.812 164.056 148.083 164.475 148.468 164.859C148.847 165.238 149.265 165.51 149.724 165.674C150.182 165.827 150.634 165.861 151.081 165.776C151.528 165.691 151.927 165.473 152.278 165.122C152.628 164.772 152.846 164.373 152.931 163.926C153.016 163.479 152.982 163.027 152.829 162.568C152.671 162.105 152.402 161.683 152.023 161.304ZM155.636 151.751C155.772 151.616 155.927 151.551 156.103 151.556C156.278 151.562 156.434 151.633 156.569 151.768L161.516 156.715C161.663 156.862 161.737 157.038 161.737 157.241C161.737 157.434 161.663 157.603 161.516 157.751C161.443 157.824 161.355 157.889 161.253 157.946C161.151 157.991 161.058 158.011 160.973 158.005L153.404 157.106L153.489 156.749L157.528 160.788C157.664 160.924 157.732 161.082 157.732 161.263C157.738 161.439 157.67 161.597 157.528 161.739C157.392 161.874 157.237 161.939 157.062 161.934C156.886 161.928 156.731 161.857 156.595 161.722L151.648 156.775C151.501 156.628 151.427 156.458 151.427 156.266C151.427 156.062 151.501 155.887 151.648 155.74C151.727 155.66 151.826 155.595 151.945 155.544C152.058 155.488 152.166 155.471 152.267 155.493L159.624 156.384L159.582 156.63L155.644 152.693C155.509 152.558 155.438 152.402 155.432 152.227C155.427 152.051 155.495 151.893 155.636 151.751Z" fill="#D9D9D9"/>
<rect class="transparent-fill primary-stroke" x="103.586" y="190.225" width="90" height="26" transform="rotate(-45 103.586 190.225)" stroke="#D9D9D9" stroke-width="2"/>
<path class="transparent-fill transparent-stroke" d="M196 267H213.5L246 236.5H418.5" stroke="#D9D9D9" stroke-width="4"/>
<path class="transparent-fill transparent-stroke" d="M199.396 233.518C199.175 234.601 199.873 235.657 200.956 235.878C202.038 236.099 203.094 235.4 203.315 234.318L199.396 233.518ZM208.263 200.07L210.223 200.47L208.263 200.07ZM233.59 199.27L233.59 197.27L233.59 199.27ZM196.052 162.147L232.883 198.977L235.711 196.149L198.881 159.318L196.052 162.147ZM233.59 197.27L209.243 197.27V201.27L233.59 201.27L233.59 197.27ZM206.304 199.67L199.396 233.518L203.315 234.318L210.223 200.47L206.304 199.67ZM209.243 197.27C207.818 197.27 206.589 198.273 206.304 199.67L210.223 200.47C210.128 200.936 209.718 201.27 209.243 201.27V197.27ZM232.883 198.977C232.253 198.347 232.699 197.27 233.59 197.27L233.59 201.27C236.262 201.27 237.601 198.039 235.711 196.149L232.883 198.977Z" fill="#D9D9D9"/>
</g>
<defs>
<clipPath id="clip0_17_115">
<rect width="700" height="400" fill="white" transform="translate(0.908691 0.908691)"/>
</clipPath>
</defs>
</svg>
