<svg width="1145" height="887" viewBox="0 0 1145 887" fill="none" xmlns="http://www.w3.org/2000/svg">
<rect x="573.709" y="327.268" width="164" height="164" transform="rotate(45 573.709 327.268)" fill="#D9D9D9"/>
<line y1="-2" x2="40" y2="-2" transform="matrix(0.707107 -0.707107 -0.707107 -0.707107 573.709 327.268)" stroke="#D9D9D9" stroke-width="4"/>
<line y1="-2" x2="40" y2="-2" transform="matrix(0.707107 -0.707107 -0.707107 -0.707107 587.851 341.41)" stroke="#D9D9D9" stroke-width="4"/>
<line y1="-2" x2="40" y2="-2" transform="matrix(0.707107 -0.707107 -0.707107 -0.707107 601.993 355.552)" stroke="#D9D9D9" stroke-width="4"/>
<line y1="-2" x2="40" y2="-2" transform="matrix(0.707107 -0.707107 -0.707107 -0.707107 616.135 369.694)" stroke="#D9D9D9" stroke-width="4"/>
<line y1="-2" x2="40" y2="-2" transform="matrix(0.707107 -0.707107 -0.707107 -0.707107 630.277 383.836)" stroke="#D9D9D9" stroke-width="4"/>
<line y1="-2" x2="40" y2="-2" transform="matrix(0.707107 -0.707107 -0.707107 -0.707107 644.419 397.978)" stroke="#D9D9D9" stroke-width="4"/>
<line y1="-2" x2="40" y2="-2" transform="matrix(0.707107 -0.707107 -0.707107 -0.707107 658.561 412.121)" stroke="#D9D9D9" stroke-width="4"/>
<line y1="-2" x2="40" y2="-2" transform="matrix(0.707107 -0.707107 -0.707107 -0.707107 672.704 426.263)" stroke="#D9D9D9" stroke-width="4"/>
<line y1="-2" x2="40" y2="-2" transform="matrix(0.707107 -0.707107 -0.707107 -0.707107 686.846 440.405)" stroke="#D9D9D9" stroke-width="4"/>
<line y1="-2" x2="40" y2="-2" transform="matrix(0.707107 -0.707107 -0.707107 -0.707107 429.459 471.517)" stroke="#D9D9D9" stroke-width="4"/>
<line y1="-2" x2="40" y2="-2" transform="matrix(0.707107 -0.707107 -0.707107 -0.707107 443.601 485.66)" stroke="#D9D9D9" stroke-width="4"/>
<line y1="-2" x2="40" y2="-2" transform="matrix(0.707107 -0.707107 -0.707107 -0.707107 457.743 499.802)" stroke="#D9D9D9" stroke-width="4"/>
<line y1="-2" x2="40" y2="-2" transform="matrix(0.707107 -0.707107 -0.707107 -0.707107 471.885 513.944)" stroke="#D9D9D9" stroke-width="4"/>
<line y1="-2" x2="40" y2="-2" transform="matrix(0.707107 -0.707107 -0.707107 -0.707107 486.027 528.086)" stroke="#D9D9D9" stroke-width="4"/>
<line y1="-2" x2="40" y2="-2" transform="matrix(0.707107 -0.707107 -0.707107 -0.707107 500.17 542.228)" stroke="#D9D9D9" stroke-width="4"/>
<line y1="-2" x2="40" y2="-2" transform="matrix(0.707107 -0.707107 -0.707107 -0.707107 514.312 556.37)" stroke="#D9D9D9" stroke-width="4"/>
<line y1="-2" x2="40" y2="-2" transform="matrix(0.707107 -0.707107 -0.707107 -0.707107 528.454 570.512)" stroke="#D9D9D9" stroke-width="4"/>
<line y1="-2" x2="40" y2="-2" transform="matrix(0.707107 -0.707107 -0.707107 -0.707107 542.596 584.655)" stroke="#D9D9D9" stroke-width="4"/>
<line y1="-2" x2="40" y2="-2" transform="matrix(0.707107 0.707107 0.707107 -0.707107 689.674 443.233)" stroke="#D9D9D9" stroke-width="4"/>
<line y1="-2" x2="40" y2="-2" transform="matrix(0.707107 0.707107 0.707107 -0.707107 675.532 457.375)" stroke="#D9D9D9" stroke-width="4"/>
<line y1="-2" x2="40" y2="-2" transform="matrix(0.707107 0.707107 0.707107 -0.707107 661.39 471.517)" stroke="#D9D9D9" stroke-width="4"/>
<line y1="-2" x2="40" y2="-2" transform="matrix(0.707107 0.707107 0.707107 -0.707107 647.248 485.66)" stroke="#D9D9D9" stroke-width="4"/>
<line y1="-2" x2="40" y2="-2" transform="matrix(0.707107 0.707107 0.707107 -0.707107 633.106 499.802)" stroke="#D9D9D9" stroke-width="4"/>
<line y1="-2" x2="40" y2="-2" transform="matrix(0.707107 0.707107 0.707107 -0.707107 618.963 513.944)" stroke="#D9D9D9" stroke-width="4"/>
<line y1="-2" x2="40" y2="-2" transform="matrix(0.707107 0.707107 0.707107 -0.707107 604.821 528.086)" stroke="#D9D9D9" stroke-width="4"/>
<line y1="-2" x2="40" y2="-2" transform="matrix(0.707107 0.707107 0.707107 -0.707107 590.679 542.228)" stroke="#D9D9D9" stroke-width="4"/>
<line y1="-2" x2="40" y2="-2" transform="matrix(0.707107 0.707107 0.707107 -0.707107 576.537 556.37)" stroke="#D9D9D9" stroke-width="4"/>
<line y1="-2" x2="40" y2="-2" transform="matrix(0.707107 0.707107 0.707107 -0.707107 545.424 298.983)" stroke="#D9D9D9" stroke-width="4"/>
<line y1="-2" x2="40" y2="-2" transform="matrix(0.707107 0.707107 0.707107 -0.707107 531.282 313.126)" stroke="#D9D9D9" stroke-width="4"/>
<line y1="-2" x2="40" y2="-2" transform="matrix(0.707107 0.707107 0.707107 -0.707107 517.14 327.268)" stroke="#D9D9D9" stroke-width="4"/>
<line y1="-2" x2="40" y2="-2" transform="matrix(0.707107 0.707107 0.707107 -0.707107 502.998 341.41)" stroke="#D9D9D9" stroke-width="4"/>
<line y1="-2" x2="40" y2="-2" transform="matrix(0.707107 0.707107 0.707107 -0.707107 488.856 355.552)" stroke="#D9D9D9" stroke-width="4"/>
<line y1="-2" x2="40" y2="-2" transform="matrix(0.707107 0.707107 0.707107 -0.707107 474.714 369.694)" stroke="#D9D9D9" stroke-width="4"/>
<line y1="-2" x2="40" y2="-2" transform="matrix(0.707107 0.707107 0.707107 -0.707107 460.572 383.836)" stroke="#D9D9D9" stroke-width="4"/>
<line y1="-2" x2="40" y2="-2" transform="matrix(0.707107 0.707107 0.707107 -0.707107 446.429 397.978)" stroke="#D9D9D9" stroke-width="4"/>
<line y1="-2" x2="40" y2="-2" transform="matrix(0.707107 0.707107 0.707107 -0.707107 432.287 412.121)" stroke="#D9D9D9" stroke-width="4"/>
<rect x="682.603" y="300.397" width="8" height="16" transform="rotate(45 682.603 300.397)" fill="#D9D9D9"/>
<path d="M677.812 224.188C677.401 224.188 677.064 224.063 676.8 223.814C676.536 223.55 676.404 223.227 676.404 222.846V210.086H679.264V222.846C679.264 223.227 679.124 223.55 678.846 223.814C678.582 224.063 678.237 224.188 677.812 224.188ZM672.95 211.318C672.568 211.318 672.246 211.201 671.982 210.966C671.732 210.731 671.608 210.423 671.608 210.042C671.608 209.661 671.732 209.36 671.982 209.14C672.246 208.905 672.568 208.788 672.95 208.788H682.718C683.099 208.788 683.414 208.905 683.664 209.14C683.928 209.375 684.06 209.683 684.06 210.064C684.06 210.445 683.928 210.753 683.664 210.988C683.414 211.208 683.099 211.318 682.718 211.318H672.95ZM691.319 224.408C690.293 224.408 689.369 224.283 688.547 224.034C687.726 223.77 686.941 223.315 686.193 222.67C686.003 222.509 685.856 222.325 685.753 222.12C685.651 221.915 685.599 221.709 685.599 221.504C685.599 221.167 685.717 220.873 685.951 220.624C686.201 220.36 686.509 220.228 686.875 220.228C687.154 220.228 687.403 220.316 687.623 220.492C688.181 220.947 688.731 221.291 689.273 221.526C689.831 221.761 690.513 221.878 691.319 221.878C691.862 221.878 692.361 221.797 692.815 221.636C693.27 221.46 693.637 221.233 693.915 220.954C694.194 220.661 694.333 220.331 694.333 219.964C694.333 219.524 694.201 219.15 693.937 218.842C693.673 218.534 693.27 218.277 692.727 218.072C692.185 217.852 691.495 217.683 690.659 217.566C689.867 217.449 689.171 217.273 688.569 217.038C687.968 216.789 687.462 216.481 687.051 216.114C686.655 215.733 686.355 215.293 686.149 214.794C685.944 214.281 685.841 213.709 685.841 213.078C685.841 212.125 686.083 211.311 686.567 210.636C687.066 209.961 687.733 209.448 688.569 209.096C689.405 208.744 690.329 208.568 691.341 208.568C692.295 208.568 693.175 208.715 693.981 209.008C694.803 209.287 695.47 209.646 695.983 210.086C696.409 210.423 696.621 210.812 696.621 211.252C696.621 211.575 696.497 211.868 696.247 212.132C695.998 212.396 695.705 212.528 695.367 212.528C695.147 212.528 694.949 212.462 694.773 212.33C694.539 212.125 694.223 211.934 693.827 211.758C693.431 211.567 693.013 211.413 692.573 211.296C692.133 211.164 691.723 211.098 691.341 211.098C690.711 211.098 690.175 211.179 689.735 211.34C689.31 211.501 688.987 211.721 688.767 212C688.547 212.279 688.437 212.601 688.437 212.968C688.437 213.408 688.562 213.775 688.811 214.068C689.075 214.347 689.449 214.574 689.933 214.75C690.417 214.911 690.997 215.058 691.671 215.19C692.551 215.351 693.321 215.542 693.981 215.762C694.656 215.982 695.213 216.268 695.653 216.62C696.093 216.957 696.423 217.39 696.643 217.918C696.863 218.431 696.973 219.062 696.973 219.81C696.973 220.763 696.709 221.585 696.181 222.274C695.653 222.963 694.957 223.491 694.091 223.858C693.241 224.225 692.317 224.408 691.319 224.408Z" fill="white"/>
<rect x="666.701" y="199.642" width="34" height="34" stroke="#D9D9D9" stroke-width="2"/>
<path d="M484.793 192.5C484.382 192.5 484.015 192.375 483.693 192.126C483.37 191.862 483.209 191.539 483.209 191.158V178.442C483.209 178.061 483.333 177.745 483.583 177.496C483.847 177.232 484.169 177.1 484.551 177.1H490.887C491.649 177.1 492.361 177.305 493.021 177.716C493.695 178.112 494.238 178.669 494.649 179.388C495.059 180.092 495.265 180.906 495.265 181.83C495.265 182.387 495.147 182.93 494.913 183.458C494.693 183.986 494.385 184.463 493.989 184.888C493.607 185.313 493.175 185.643 492.691 185.878L492.713 185.372C493.123 185.592 493.461 185.856 493.725 186.164C494.003 186.457 494.216 186.78 494.363 187.132C494.524 187.469 494.619 187.836 494.649 188.232C494.707 188.599 494.744 188.921 494.759 189.2C494.788 189.479 494.832 189.713 494.891 189.904C494.964 190.095 495.096 190.241 495.287 190.344C495.609 190.535 495.807 190.813 495.881 191.18C495.969 191.532 495.888 191.847 495.639 192.126C495.477 192.317 495.272 192.441 495.023 192.5C494.773 192.544 494.524 192.544 494.275 192.5C494.025 192.441 493.82 192.368 493.659 192.28C493.409 192.133 493.16 191.921 492.911 191.642C492.661 191.349 492.456 190.96 492.295 190.476C492.148 189.992 492.075 189.369 492.075 188.606C492.075 188.357 492.031 188.129 491.943 187.924C491.855 187.704 491.73 187.521 491.569 187.374C491.407 187.213 491.202 187.095 490.953 187.022C490.703 186.934 490.41 186.89 490.073 186.89H485.629L485.959 186.384V191.158C485.959 191.539 485.856 191.862 485.651 192.126C485.445 192.375 485.159 192.5 484.793 192.5ZM485.651 184.624H490.777C491.041 184.624 491.297 184.507 491.547 184.272C491.796 184.023 492.001 183.693 492.163 183.282C492.324 182.857 492.405 182.395 492.405 181.896C492.405 181.251 492.229 180.715 491.877 180.29C491.539 179.85 491.173 179.63 490.777 179.63H485.695L485.959 178.926V185.152L485.651 184.624ZM499.654 177.1H507.024C507.406 177.1 507.721 177.225 507.97 177.474C508.234 177.709 508.366 178.017 508.366 178.398C508.366 178.765 508.234 179.065 507.97 179.3C507.721 179.52 507.406 179.63 507.024 179.63H500.864L501.062 179.256V183.546L500.886 183.37H506.034C506.416 183.37 506.731 183.495 506.98 183.744C507.244 183.979 507.376 184.287 507.376 184.668C507.376 185.035 507.244 185.335 506.98 185.57C506.731 185.79 506.416 185.9 506.034 185.9H500.952L501.062 185.724V190.168L500.886 189.97H507.024C507.406 189.97 507.721 190.102 507.97 190.366C508.234 190.615 508.366 190.909 508.366 191.246C508.366 191.613 508.234 191.913 507.97 192.148C507.721 192.383 507.406 192.5 507.024 192.5H499.654C499.273 192.5 498.95 192.375 498.686 192.126C498.437 191.862 498.312 191.539 498.312 191.158V178.442C498.312 178.061 498.437 177.745 498.686 177.496C498.95 177.232 499.273 177.1 499.654 177.1ZM516.556 180.554L511.804 191.73C511.701 192.009 511.54 192.229 511.32 192.39C511.115 192.537 510.887 192.61 510.638 192.61C510.242 192.61 509.949 192.5 509.758 192.28C509.567 192.06 509.472 191.789 509.472 191.466C509.472 191.334 509.494 191.195 509.538 191.048L515.016 177.892C515.133 177.599 515.309 177.371 515.544 177.21C515.793 177.049 516.057 176.983 516.336 177.012C516.6 177.012 516.842 177.093 517.062 177.254C517.297 177.401 517.465 177.613 517.568 177.892L522.98 190.784C523.053 190.975 523.09 191.151 523.09 191.312C523.09 191.708 522.958 192.023 522.694 192.258C522.445 192.493 522.166 192.61 521.858 192.61C521.594 192.61 521.352 192.529 521.132 192.368C520.927 192.207 520.765 191.987 520.648 191.708L515.918 180.686L516.556 180.554ZM512.486 189.046L513.696 186.516H519.636L520.054 189.046H512.486ZM535.625 177.848C536.007 178.039 536.227 178.339 536.285 178.75C536.359 179.161 536.256 179.535 535.977 179.872C535.787 180.136 535.537 180.283 535.229 180.312C534.936 180.341 534.635 180.283 534.327 180.136C533.975 179.975 533.601 179.85 533.205 179.762C532.824 179.674 532.421 179.63 531.995 179.63C531.203 179.63 530.492 179.755 529.861 180.004C529.245 180.253 528.717 180.613 528.277 181.082C527.837 181.537 527.5 182.079 527.265 182.71C527.045 183.341 526.935 184.037 526.935 184.8C526.935 185.695 527.06 186.472 527.309 187.132C527.573 187.792 527.933 188.342 528.387 188.782C528.842 189.222 529.377 189.552 529.993 189.772C530.609 189.977 531.277 190.08 531.995 190.08C532.391 190.08 532.787 190.043 533.183 189.97C533.579 189.897 533.961 189.765 534.327 189.574C534.635 189.427 534.936 189.376 535.229 189.42C535.537 189.464 535.794 189.618 535.999 189.882C536.293 190.249 536.395 190.63 536.307 191.026C536.234 191.407 536.014 191.686 535.647 191.862C535.266 192.053 534.87 192.214 534.459 192.346C534.063 192.463 533.66 192.551 533.249 192.61C532.839 192.683 532.421 192.72 531.995 192.72C530.939 192.72 529.935 192.551 528.981 192.214C528.043 191.877 527.199 191.378 526.451 190.718C525.718 190.058 525.139 189.237 524.713 188.254C524.288 187.257 524.075 186.105 524.075 184.8C524.075 183.671 524.266 182.629 524.647 181.676C525.043 180.723 525.593 179.901 526.297 179.212C527.016 178.508 527.859 177.965 528.827 177.584C529.795 177.188 530.851 176.99 531.995 176.99C532.641 176.99 533.271 177.063 533.887 177.21C534.503 177.357 535.083 177.569 535.625 177.848ZM543.852 192.5C543.442 192.5 543.104 192.375 542.84 192.126C542.576 191.862 542.444 191.539 542.444 191.158V178.398H545.304V191.158C545.304 191.539 545.165 191.862 544.886 192.126C544.622 192.375 544.278 192.5 543.852 192.5ZM538.99 179.63C538.609 179.63 538.286 179.513 538.022 179.278C537.773 179.043 537.648 178.735 537.648 178.354C537.648 177.973 537.773 177.672 538.022 177.452C538.286 177.217 538.609 177.1 538.99 177.1H548.758C549.14 177.1 549.455 177.217 549.704 177.452C549.968 177.687 550.1 177.995 550.1 178.376C550.1 178.757 549.968 179.065 549.704 179.3C549.455 179.52 549.14 179.63 548.758 179.63H538.99ZM552.608 195.448C552.359 195.448 552.102 195.345 551.838 195.14C551.574 194.935 551.442 194.671 551.442 194.348C551.442 194.172 551.486 193.996 551.574 193.82L560.506 175.538C560.609 175.333 560.748 175.171 560.924 175.054C561.1 174.937 561.283 174.878 561.474 174.878C561.723 174.878 561.973 174.981 562.222 175.186C562.486 175.377 562.618 175.641 562.618 175.978C562.618 176.154 562.574 176.33 562.486 176.506L553.576 194.788C553.473 194.993 553.334 195.155 553.158 195.272C552.997 195.389 552.813 195.448 552.608 195.448ZM576.596 177.1C576.948 177.1 577.234 177.217 577.454 177.452C577.674 177.687 577.784 177.98 577.784 178.332V191.158C577.784 191.539 577.652 191.862 577.388 192.126C577.138 192.375 576.823 192.5 576.442 192.5C576.251 192.5 576.053 192.471 575.848 192.412C575.657 192.339 575.51 192.243 575.408 192.126L566.762 181.148L567.334 180.796V191.268C567.334 191.62 567.216 191.913 566.982 192.148C566.762 192.383 566.468 192.5 566.102 192.5C565.75 192.5 565.464 192.383 565.244 192.148C565.024 191.913 564.914 191.62 564.914 191.268V178.442C564.914 178.061 565.038 177.745 565.288 177.496C565.552 177.232 565.874 177.1 566.256 177.1C566.461 177.1 566.674 177.144 566.894 177.232C567.114 177.305 567.275 177.423 567.378 177.584L575.76 188.276L575.386 188.54V178.332C575.386 177.98 575.496 177.687 575.716 177.452C575.936 177.217 576.229 177.1 576.596 177.1ZM582.434 177.1H589.804C590.185 177.1 590.5 177.225 590.75 177.474C591.014 177.709 591.146 178.017 591.146 178.398C591.146 178.765 591.014 179.065 590.75 179.3C590.5 179.52 590.185 179.63 589.804 179.63H583.644L583.842 179.256V183.546L583.666 183.37H588.814C589.195 183.37 589.51 183.495 589.76 183.744C590.024 183.979 590.156 184.287 590.156 184.668C590.156 185.035 590.024 185.335 589.76 185.57C589.51 185.79 589.195 185.9 588.814 185.9H583.732L583.842 185.724V190.168L583.666 189.97H589.804C590.185 189.97 590.5 190.102 590.75 190.366C591.014 190.615 591.146 190.909 591.146 191.246C591.146 191.613 591.014 191.913 590.75 192.148C590.5 192.383 590.185 192.5 589.804 192.5H582.434C582.052 192.5 581.73 192.375 581.466 192.126C581.216 191.862 581.092 191.539 581.092 191.158V178.442C581.092 178.061 581.216 177.745 581.466 177.496C581.73 177.232 582.052 177.1 582.434 177.1ZM604.219 177.078C604.557 177.078 604.843 177.21 605.077 177.474C605.327 177.738 605.451 178.017 605.451 178.31C605.451 178.589 605.356 178.853 605.165 179.102L600.743 184.932L599.247 182.886L603.141 177.716C603.449 177.291 603.809 177.078 604.219 177.078ZM594.407 177.034C594.833 177.034 595.192 177.225 595.485 177.606L605.165 190.476C605.341 190.711 605.429 190.982 605.429 191.29C605.429 191.701 605.283 192.023 604.989 192.258C604.696 192.493 604.403 192.61 604.109 192.61C603.684 192.61 603.325 192.419 603.031 192.038L593.351 179.168C593.161 178.933 593.065 178.669 593.065 178.376C593.065 177.995 593.205 177.679 593.483 177.43C593.777 177.166 594.085 177.034 594.407 177.034ZM594.209 192.61C593.887 192.61 593.608 192.493 593.373 192.258C593.139 192.009 593.021 191.737 593.021 191.444C593.021 191.121 593.131 190.821 593.351 190.542L597.817 184.492L599.269 186.626L595.309 191.994C595.016 192.405 594.649 192.61 594.209 192.61ZM613.311 192.5C612.901 192.5 612.563 192.375 612.299 192.126C612.035 191.862 611.903 191.539 611.903 191.158V178.398H614.763V191.158C614.763 191.539 614.624 191.862 614.345 192.126C614.081 192.375 613.737 192.5 613.311 192.5ZM608.449 179.63C608.068 179.63 607.745 179.513 607.481 179.278C607.232 179.043 607.107 178.735 607.107 178.354C607.107 177.973 607.232 177.672 607.481 177.452C607.745 177.217 608.068 177.1 608.449 177.1H618.217C618.599 177.1 618.914 177.217 619.163 177.452C619.427 177.687 619.559 177.995 619.559 178.376C619.559 178.757 619.427 179.065 619.163 179.3C618.914 179.52 618.599 179.63 618.217 179.63H608.449ZM624.015 192.72C623.179 192.72 622.402 192.551 621.683 192.214C620.965 191.877 620.378 191.393 619.923 190.762C619.747 190.498 619.659 190.241 619.659 189.992C619.659 189.625 619.799 189.317 620.077 189.068C620.371 188.819 620.657 188.694 620.935 188.694C621.155 188.694 621.368 188.76 621.573 188.892C621.793 189.024 621.991 189.178 622.167 189.354C622.461 189.618 622.747 189.809 623.025 189.926C623.319 190.029 623.649 190.08 624.015 190.08C624.455 190.08 624.866 189.97 625.247 189.75C625.629 189.53 625.937 189.237 626.171 188.87C626.406 188.503 626.523 188.107 626.523 187.682V178.442C626.523 178.061 626.663 177.745 626.941 177.496C627.22 177.232 627.543 177.1 627.909 177.1C628.32 177.1 628.65 177.232 628.899 177.496C629.149 177.745 629.273 178.061 629.273 178.442V187.682C629.273 188.577 629.039 189.405 628.569 190.168C628.1 190.931 627.469 191.547 626.677 192.016C625.885 192.485 624.998 192.72 624.015 192.72ZM637.518 192.72C636.491 192.72 635.567 192.595 634.746 192.346C633.925 192.082 633.14 191.627 632.392 190.982C632.201 190.821 632.055 190.637 631.952 190.432C631.849 190.227 631.798 190.021 631.798 189.816C631.798 189.479 631.915 189.185 632.15 188.936C632.399 188.672 632.707 188.54 633.074 188.54C633.353 188.54 633.602 188.628 633.822 188.804C634.379 189.259 634.929 189.603 635.472 189.838C636.029 190.073 636.711 190.19 637.518 190.19C638.061 190.19 638.559 190.109 639.014 189.948C639.469 189.772 639.835 189.545 640.114 189.266C640.393 188.973 640.532 188.643 640.532 188.276C640.532 187.836 640.4 187.462 640.136 187.154C639.872 186.846 639.469 186.589 638.926 186.384C638.383 186.164 637.694 185.995 636.858 185.878C636.066 185.761 635.369 185.585 634.768 185.35C634.167 185.101 633.661 184.793 633.25 184.426C632.854 184.045 632.553 183.605 632.348 183.106C632.143 182.593 632.04 182.021 632.04 181.39C632.04 180.437 632.282 179.623 632.766 178.948C633.265 178.273 633.932 177.76 634.768 177.408C635.604 177.056 636.528 176.88 637.54 176.88C638.493 176.88 639.373 177.027 640.18 177.32C641.001 177.599 641.669 177.958 642.182 178.398C642.607 178.735 642.82 179.124 642.82 179.564C642.82 179.887 642.695 180.18 642.446 180.444C642.197 180.708 641.903 180.84 641.566 180.84C641.346 180.84 641.148 180.774 640.972 180.642C640.737 180.437 640.422 180.246 640.026 180.07C639.63 179.879 639.212 179.725 638.772 179.608C638.332 179.476 637.921 179.41 637.54 179.41C636.909 179.41 636.374 179.491 635.934 179.652C635.509 179.813 635.186 180.033 634.966 180.312C634.746 180.591 634.636 180.913 634.636 181.28C634.636 181.72 634.761 182.087 635.01 182.38C635.274 182.659 635.648 182.886 636.132 183.062C636.616 183.223 637.195 183.37 637.87 183.502C638.75 183.663 639.52 183.854 640.18 184.074C640.855 184.294 641.412 184.58 641.852 184.932C642.292 185.269 642.622 185.702 642.842 186.23C643.062 186.743 643.172 187.374 643.172 188.122C643.172 189.075 642.908 189.897 642.38 190.586C641.852 191.275 641.155 191.803 640.29 192.17C639.439 192.537 638.515 192.72 637.518 192.72Z" fill="white"/>
<rect x="478.559" y="167.5" width="170" height="34" stroke="#D9D9D9" stroke-width="2"/>
<path d="M743.863 182.554L739.111 193.73C739.008 194.008 738.847 194.228 738.627 194.39C738.421 194.536 738.194 194.61 737.945 194.61C737.549 194.61 737.255 194.5 737.065 194.28C736.874 194.06 736.779 193.788 736.779 193.466C736.779 193.334 736.801 193.194 736.845 193.048L742.323 179.892C742.44 179.598 742.616 179.371 742.851 179.21C743.1 179.048 743.364 178.982 743.643 179.012C743.907 179.012 744.149 179.092 744.369 179.254C744.603 179.4 744.772 179.613 744.875 179.892L750.287 192.784C750.36 192.974 750.397 193.15 750.397 193.312C750.397 193.708 750.265 194.023 750.001 194.258C749.751 194.492 749.473 194.61 749.165 194.61C748.901 194.61 748.659 194.529 748.439 194.368C748.233 194.206 748.072 193.986 747.955 193.708L743.225 182.686L743.863 182.554ZM739.793 191.046L741.003 188.516H746.943L747.361 191.046H739.793ZM763.941 179.1C764.293 179.1 764.579 179.217 764.799 179.452C765.019 179.686 765.129 179.98 765.129 180.332V193.158C765.129 193.539 764.997 193.862 764.733 194.126C764.484 194.375 764.169 194.5 763.787 194.5C763.597 194.5 763.399 194.47 763.193 194.412C763.003 194.338 762.856 194.243 762.753 194.126L754.107 183.148L754.679 182.796V193.268C754.679 193.62 754.562 193.913 754.327 194.148C754.107 194.382 753.814 194.5 753.447 194.5C753.095 194.5 752.809 194.382 752.589 194.148C752.369 193.913 752.259 193.62 752.259 193.268V180.442C752.259 180.06 752.384 179.745 752.633 179.496C752.897 179.232 753.22 179.1 753.601 179.1C753.807 179.1 754.019 179.144 754.239 179.232C754.459 179.305 754.621 179.422 754.723 179.584L763.105 190.276L762.731 190.54V180.332C762.731 179.98 762.841 179.686 763.061 179.452C763.281 179.217 763.575 179.1 763.941 179.1ZM775.697 194.72C774.582 194.72 773.541 194.514 772.573 194.104C771.605 193.693 770.754 193.128 770.021 192.41C769.288 191.676 768.708 190.833 768.283 189.88C767.872 188.926 767.667 187.9 767.667 186.8C767.667 185.7 767.872 184.673 768.283 183.72C768.708 182.766 769.288 181.93 770.021 181.212C770.754 180.478 771.605 179.906 772.573 179.496C773.541 179.085 774.582 178.88 775.697 178.88C776.386 178.88 777.054 178.953 777.699 179.1C778.344 179.246 778.938 179.466 779.481 179.76C779.701 179.877 779.862 180.038 779.965 180.244C780.082 180.434 780.141 180.632 780.141 180.838C780.141 181.19 780.024 181.505 779.789 181.784C779.554 182.062 779.254 182.202 778.887 182.202C778.77 182.202 778.645 182.187 778.513 182.158C778.396 182.128 778.278 182.084 778.161 182.026C777.794 181.864 777.406 181.74 776.995 181.652C776.584 181.564 776.152 181.52 775.697 181.52C774.744 181.52 773.871 181.762 773.079 182.246C772.302 182.715 771.678 183.353 771.209 184.16C770.754 184.952 770.527 185.832 770.527 186.8C770.527 187.753 770.754 188.633 771.209 189.44C771.678 190.246 772.302 190.892 773.079 191.376C773.871 191.845 774.744 192.08 775.697 192.08C776.137 192.08 776.621 192.036 777.149 191.948C777.677 191.86 778.11 191.742 778.447 191.596L778.249 192.256V188.494L778.623 188.824H776.181C775.8 188.824 775.477 188.699 775.213 188.45C774.964 188.2 774.839 187.885 774.839 187.504C774.839 187.122 774.964 186.807 775.213 186.558C775.477 186.308 775.8 186.184 776.181 186.184H779.789C780.17 186.184 780.486 186.316 780.735 186.58C780.984 186.829 781.109 187.144 781.109 187.526V192.19C781.109 192.483 781.036 192.725 780.889 192.916C780.757 193.106 780.603 193.26 780.427 193.378C779.752 193.788 779.012 194.118 778.205 194.368C777.413 194.602 776.577 194.72 775.697 194.72ZM794.689 179.078C795.071 179.078 795.379 179.21 795.613 179.474C795.848 179.723 795.965 180.038 795.965 180.42V188.384C795.965 189.601 795.701 190.679 795.173 191.618C794.66 192.556 793.949 193.29 793.039 193.818C792.13 194.346 791.074 194.61 789.871 194.61C788.669 194.61 787.605 194.346 786.681 193.818C785.772 193.29 785.053 192.556 784.525 191.618C784.012 190.679 783.755 189.601 783.755 188.384V180.42C783.755 180.038 783.887 179.723 784.151 179.474C784.415 179.21 784.753 179.078 785.163 179.078C785.501 179.078 785.801 179.21 786.065 179.474C786.344 179.723 786.483 180.038 786.483 180.42V188.384C786.483 189.117 786.637 189.755 786.945 190.298C787.268 190.826 787.686 191.236 788.199 191.53C788.727 191.823 789.285 191.97 789.871 191.97C790.502 191.97 791.089 191.823 791.631 191.53C792.174 191.236 792.614 190.826 792.951 190.298C793.289 189.755 793.457 189.117 793.457 188.384V180.42C793.457 180.038 793.567 179.723 793.787 179.474C794.007 179.21 794.308 179.078 794.689 179.078ZM807.759 191.926C808.14 191.926 808.456 192.05 808.705 192.3C808.969 192.534 809.101 192.842 809.101 193.224C809.101 193.59 808.969 193.898 808.705 194.148C808.456 194.382 808.14 194.5 807.759 194.5H800.609C800.228 194.5 799.905 194.375 799.641 194.126C799.392 193.862 799.267 193.539 799.267 193.158V180.442C799.267 180.06 799.399 179.745 799.663 179.496C799.927 179.232 800.264 179.1 800.675 179.1C801.027 179.1 801.335 179.232 801.599 179.496C801.878 179.745 802.017 180.06 802.017 180.442V192.3L801.533 191.926H807.759ZM817.275 182.554L812.523 193.73C812.42 194.008 812.259 194.228 812.039 194.39C811.833 194.536 811.606 194.61 811.357 194.61C810.961 194.61 810.667 194.5 810.477 194.28C810.286 194.06 810.191 193.788 810.191 193.466C810.191 193.334 810.213 193.194 810.257 193.048L815.735 179.892C815.852 179.598 816.028 179.371 816.263 179.21C816.512 179.048 816.776 178.982 817.055 179.012C817.319 179.012 817.561 179.092 817.781 179.254C818.015 179.4 818.184 179.613 818.287 179.892L823.699 192.784C823.772 192.974 823.809 193.15 823.809 193.312C823.809 193.708 823.677 194.023 823.413 194.258C823.163 194.492 822.885 194.61 822.577 194.61C822.313 194.61 822.071 194.529 821.851 194.368C821.645 194.206 821.484 193.986 821.367 193.708L816.637 182.686L817.275 182.554ZM813.205 191.046L814.415 188.516H820.355L820.773 191.046H813.205ZM827.255 194.5C826.845 194.5 826.478 194.375 826.155 194.126C825.833 193.862 825.671 193.539 825.671 193.158V180.442C825.671 180.06 825.796 179.745 826.045 179.496C826.309 179.232 826.632 179.1 827.013 179.1H833.349C834.112 179.1 834.823 179.305 835.483 179.716C836.158 180.112 836.701 180.669 837.111 181.388C837.522 182.092 837.727 182.906 837.727 183.83C837.727 184.387 837.61 184.93 837.375 185.458C837.155 185.986 836.847 186.462 836.451 186.888C836.07 187.313 835.637 187.643 835.153 187.878L835.175 187.372C835.586 187.592 835.923 187.856 836.187 188.164C836.466 188.457 836.679 188.78 836.825 189.132C836.987 189.469 837.082 189.836 837.111 190.232C837.17 190.598 837.207 190.921 837.221 191.2C837.251 191.478 837.295 191.713 837.353 191.904C837.427 192.094 837.559 192.241 837.749 192.344C838.072 192.534 838.27 192.813 838.343 193.18C838.431 193.532 838.351 193.847 838.101 194.126C837.94 194.316 837.735 194.441 837.485 194.5C837.236 194.544 836.987 194.544 836.737 194.5C836.488 194.441 836.283 194.368 836.121 194.28C835.872 194.133 835.623 193.92 835.373 193.642C835.124 193.348 834.919 192.96 834.757 192.476C834.611 191.992 834.537 191.368 834.537 190.606C834.537 190.356 834.493 190.129 834.405 189.924C834.317 189.704 834.193 189.52 834.031 189.374C833.87 189.212 833.665 189.095 833.415 189.022C833.166 188.934 832.873 188.89 832.535 188.89H828.091L828.421 188.384V193.158C828.421 193.539 828.319 193.862 828.113 194.126C827.908 194.375 827.622 194.5 827.255 194.5ZM828.113 186.624H833.239C833.503 186.624 833.76 186.506 834.009 186.272C834.259 186.022 834.464 185.692 834.625 185.282C834.787 184.856 834.867 184.394 834.867 183.896C834.867 183.25 834.691 182.715 834.339 182.29C834.002 181.85 833.635 181.63 833.239 181.63H828.157L828.421 180.926V187.152L828.113 186.624Z" fill="white"/>
<rect x="733.559" y="169.5" width="110" height="34" stroke="#D9D9D9" stroke-width="2"/>
<line x1="645.834" y1="342.824" x2="674.118" y2="314.54" stroke="#D9D9D9" stroke-width="4"/>
<path d="M617.549 314.54L684.853 247.236C685.228 246.861 685.439 246.352 685.439 245.822L685.439 234.642" stroke="#D9D9D9" stroke-width="4"/>
<line x1="685.76" y1="303.716" x2="742.329" y2="247.148" stroke="#D9D9D9" stroke-width="4"/>
<path d="M732.1 372.522C732.881 371.741 732.881 370.475 732.1 369.694C731.319 368.913 730.053 368.913 729.272 369.694L732.1 372.522ZM703.816 400.807L732.1 372.522L729.272 369.694L700.988 397.978L703.816 400.807Z" fill="#D9D9D9"/>
<path d="M717.958 358.38C718.739 357.599 718.739 356.333 717.958 355.552C717.177 354.771 715.911 354.771 715.13 355.552L717.958 358.38ZM689.674 386.664L717.958 358.38L715.13 355.552L686.845 383.836L689.674 386.664Z" fill="#D9D9D9"/>
<line x1="659.975" y1="356.966" x2="773.113" y2="243.829" stroke="#D9D9D9" stroke-width="4"/>
<path d="M649.559 184.5C648.454 184.5 647.559 185.395 647.559 186.5C647.559 187.605 648.454 188.5 649.559 188.5L649.559 184.5ZM649.559 188.5L733.059 188.5L733.059 184.5L649.559 184.5L649.559 188.5Z" fill="#D9D9D9"/>
<path d="M628.559 202.5C628.559 201.395 627.663 200.5 626.559 200.5C625.454 200.5 624.559 201.395 624.559 202.5L628.559 202.5ZM626.559 216.25L624.559 216.25L624.559 218.25L626.559 218.25L626.559 216.25ZM624.559 202.5L624.559 216.25L628.559 216.25L628.559 202.5L624.559 202.5ZM626.559 218.25L667.059 218.25L667.059 214.25L626.559 214.25L626.559 218.25Z" fill="#D9D9D9"/>
<path d="M644.419 315.954L700.988 259.385" stroke="#D9D9D9" stroke-width="4" stroke-linecap="round"/>
<path d="M645.834 318.782C644.662 319.954 642.763 319.954 641.591 318.782C640.419 317.611 640.419 315.711 641.591 314.54C642.763 313.368 644.662 313.368 645.834 314.54C647.005 315.711 647.005 317.611 645.834 318.782Z" fill="#D9D9D9"/>
<path d="M704.524 260.092C703.352 261.264 701.453 261.264 700.281 260.092C699.109 258.921 699.109 257.021 700.281 255.85C701.453 254.678 703.352 254.678 704.524 255.85C705.695 257.021 705.695 258.921 704.524 260.092Z" fill="#D9D9D9"/>
<circle cx="634.52" cy="325.853" r="6" transform="rotate(45 634.52 325.853)" fill="#D9D9D9"/>
<circle cx="745.488" cy="242.876" r="6.5" transform="rotate(45 745.488 242.876)" stroke="#D9D9D9" stroke-width="3"/>
<path d="M674.118 371.108L699.591 346.134C699.965 345.767 700.468 345.562 700.991 345.562L973.559 345.562" stroke="#D9D9D9" stroke-width="4" stroke-linecap="round"/>
<path d="M748.559 303.5C750.479 303.5 752.185 303.86 753.679 304.58C755.172 305.3 756.425 306.313 757.439 307.62C758.479 308.9 759.252 310.393 759.759 312.1C760.292 313.78 760.559 315.58 760.559 317.5C760.559 320.086 760.092 322.446 759.159 324.58C758.225 326.686 756.865 328.366 755.079 329.62C753.319 330.873 751.145 331.5 748.559 331.5H738.999C738.305 331.5 737.719 331.273 737.239 330.82C736.785 330.34 736.559 329.753 736.559 329.06V305.94C736.559 305.246 736.785 304.673 737.239 304.22C737.719 303.74 738.305 303.5 738.999 303.5H748.559ZM748.159 326.9C749.839 326.9 751.212 326.473 752.279 325.62C753.345 324.74 754.119 323.593 754.599 322.18C755.105 320.74 755.359 319.18 755.359 317.5C755.359 316.246 755.212 315.06 754.919 313.94C754.652 312.793 754.225 311.793 753.639 310.94C753.052 310.06 752.305 309.366 751.399 308.86C750.492 308.353 749.412 308.1 748.159 308.1H741.159L741.559 307.74V327.34L741.319 326.9H748.159ZM767.592 303.5H780.992C781.686 303.5 782.259 303.726 782.712 304.18C783.192 304.606 783.432 305.166 783.432 305.86C783.432 306.526 783.192 307.073 782.712 307.5C782.259 307.9 781.686 308.1 780.992 308.1H769.792L770.152 307.42V315.22L769.832 314.9H779.192C779.886 314.9 780.459 315.126 780.912 315.58C781.392 316.006 781.632 316.566 781.632 317.26C781.632 317.926 781.392 318.473 780.912 318.9C780.459 319.3 779.886 319.5 779.192 319.5H769.952L770.152 319.18V327.26L769.832 326.9H780.992C781.686 326.9 782.259 327.14 782.712 327.62C783.192 328.073 783.432 328.606 783.432 329.22C783.432 329.886 783.192 330.433 782.712 330.86C782.259 331.286 781.686 331.5 780.992 331.5H767.592C766.899 331.5 766.312 331.273 765.832 330.82C765.379 330.34 765.152 329.753 765.152 329.06V305.94C765.152 305.246 765.379 304.673 765.832 304.22C766.312 303.74 766.899 303.5 767.592 303.5ZM808.483 303.42C809.15 303.42 809.723 303.646 810.203 304.1C810.71 304.526 810.963 305.073 810.963 305.74C810.963 306.086 810.883 306.446 810.723 306.82L800.843 329.94C800.603 330.473 800.256 330.873 799.803 331.14C799.376 331.38 798.936 331.5 798.483 331.5C798.056 331.473 797.643 331.34 797.243 331.1C796.843 330.833 796.536 330.46 796.323 329.98L786.443 306.78C786.363 306.62 786.31 306.46 786.283 306.3C786.256 306.113 786.243 305.94 786.243 305.78C786.243 305.006 786.523 304.42 787.083 304.02C787.643 303.593 788.176 303.38 788.683 303.38C789.696 303.38 790.43 303.9 790.883 304.94L799.643 325.54L798.243 325.58L806.283 304.94C806.736 303.926 807.47 303.42 808.483 303.42ZM817.592 303.5H830.992C831.686 303.5 832.259 303.726 832.712 304.18C833.192 304.606 833.432 305.166 833.432 305.86C833.432 306.526 833.192 307.073 832.712 307.5C832.259 307.9 831.686 308.1 830.992 308.1H819.792L820.152 307.42V315.22L819.832 314.9H829.192C829.886 314.9 830.459 315.126 830.912 315.58C831.392 316.006 831.632 316.566 831.632 317.26C831.632 317.926 831.392 318.473 830.912 318.9C830.459 319.3 829.886 319.5 829.192 319.5H819.952L820.152 319.18V327.26L819.832 326.9H830.992C831.686 326.9 832.259 327.14 832.712 327.62C833.192 328.073 833.432 328.606 833.432 329.22C833.432 329.886 833.192 330.433 832.712 330.86C832.259 331.286 831.686 331.5 830.992 331.5H817.592C816.899 331.5 816.312 331.273 815.832 330.82C815.379 330.34 815.152 329.753 815.152 329.06V305.94C815.152 305.246 815.379 304.673 815.832 304.22C816.312 303.74 816.899 303.5 817.592 303.5ZM853.483 326.82C854.176 326.82 854.75 327.046 855.203 327.5C855.683 327.926 855.923 328.486 855.923 329.18C855.923 329.846 855.683 330.406 855.203 330.86C854.75 331.286 854.176 331.5 853.483 331.5H840.483C839.79 331.5 839.203 331.273 838.723 330.82C838.27 330.34 838.043 329.753 838.043 329.06V305.94C838.043 305.246 838.283 304.673 838.763 304.22C839.243 303.74 839.856 303.5 840.603 303.5C841.243 303.5 841.803 303.74 842.283 304.22C842.79 304.673 843.043 305.246 843.043 305.94V327.5L842.163 326.82H853.483ZM885.873 317.5C885.873 319.5 885.54 321.366 884.873 323.1C884.207 324.833 883.26 326.366 882.033 327.7C880.833 329.006 879.393 330.033 877.713 330.78C876.06 331.526 874.247 331.9 872.273 331.9C870.3 331.9 868.487 331.526 866.833 330.78C865.18 330.033 863.74 329.006 862.513 327.7C861.313 326.366 860.38 324.833 859.713 323.1C859.047 321.366 858.713 319.5 858.713 317.5C858.713 315.5 859.047 313.633 859.713 311.9C860.38 310.166 861.313 308.646 862.513 307.34C863.74 306.006 865.18 304.966 866.833 304.22C868.487 303.473 870.3 303.1 872.273 303.1C874.247 303.1 876.06 303.473 877.713 304.22C879.393 304.966 880.833 306.006 882.033 307.34C883.26 308.646 884.207 310.166 884.873 311.9C885.54 313.633 885.873 315.5 885.873 317.5ZM880.673 317.5C880.673 315.713 880.313 314.1 879.593 312.66C878.873 311.193 877.887 310.033 876.633 309.18C875.38 308.326 873.927 307.9 872.273 307.9C870.62 307.9 869.167 308.326 867.913 309.18C866.66 310.033 865.673 311.18 864.953 312.62C864.26 314.06 863.913 315.686 863.913 317.5C863.913 319.286 864.26 320.913 864.953 322.38C865.673 323.82 866.66 324.966 867.913 325.82C869.167 326.673 870.62 327.1 872.273 327.1C873.927 327.1 875.38 326.673 876.633 325.82C877.887 324.966 878.873 323.82 879.593 322.38C880.313 320.913 880.673 319.286 880.673 317.5ZM902.025 303.5C903.412 303.5 904.705 303.9 905.905 304.7C907.132 305.5 908.118 306.58 908.865 307.94C909.612 309.3 909.985 310.82 909.985 312.5C909.985 314.153 909.612 315.66 908.865 317.02C908.118 318.38 907.132 319.473 905.905 320.3C904.705 321.1 903.412 321.5 902.025 321.5H894.665L895.065 320.78V329.06C895.065 329.753 894.852 330.34 894.425 330.82C893.998 331.273 893.438 331.5 892.745 331.5C892.078 331.5 891.532 331.273 891.105 330.82C890.678 330.34 890.465 329.753 890.465 329.06V305.94C890.465 305.246 890.692 304.673 891.145 304.22C891.625 303.74 892.212 303.5 892.905 303.5H902.025ZM902.025 316.94C902.532 316.94 903.025 316.726 903.505 316.3C903.985 315.873 904.385 315.326 904.705 314.66C905.025 313.966 905.185 313.246 905.185 312.5C905.185 311.726 905.025 311.006 904.705 310.34C904.385 309.673 903.985 309.14 903.505 308.74C903.025 308.313 902.532 308.1 902.025 308.1H894.585L895.065 307.38V317.58L894.625 316.94H902.025ZM917.006 303.5H930.406C931.1 303.5 931.673 303.726 932.126 304.18C932.606 304.606 932.846 305.166 932.846 305.86C932.846 306.526 932.606 307.073 932.126 307.5C931.673 307.9 931.1 308.1 930.406 308.1H919.206L919.566 307.42V315.22L919.246 314.9H928.606C929.3 314.9 929.873 315.126 930.326 315.58C930.806 316.006 931.046 316.566 931.046 317.26C931.046 317.926 930.806 318.473 930.326 318.9C929.873 319.3 929.3 319.5 928.606 319.5H919.366L919.566 319.18V327.26L919.246 326.9H930.406C931.1 326.9 931.673 327.14 932.126 327.62C932.606 328.073 932.846 328.606 932.846 329.22C932.846 329.886 932.606 330.433 932.126 330.86C931.673 331.286 931.1 331.5 930.406 331.5H917.006C916.313 331.5 915.726 331.273 915.246 330.82C914.793 330.34 914.566 329.753 914.566 329.06V305.94C914.566 305.246 914.793 304.673 915.246 304.22C915.726 303.74 916.313 303.5 917.006 303.5ZM940.337 331.5C939.59 331.5 938.924 331.273 938.337 330.82C937.75 330.34 937.457 329.753 937.457 329.06V305.94C937.457 305.246 937.684 304.673 938.137 304.22C938.617 303.74 939.204 303.5 939.897 303.5H951.417C952.804 303.5 954.097 303.873 955.297 304.62C956.524 305.34 957.51 306.353 958.257 307.66C959.004 308.94 959.377 310.42 959.377 312.1C959.377 313.113 959.164 314.1 958.737 315.06C958.337 316.02 957.777 316.886 957.057 317.66C956.364 318.433 955.577 319.033 954.697 319.46L954.737 318.54C955.484 318.94 956.097 319.42 956.577 319.98C957.084 320.513 957.47 321.1 957.737 321.74C958.03 322.353 958.204 323.02 958.257 323.74C958.364 324.406 958.43 324.993 958.457 325.5C958.51 326.006 958.59 326.433 958.697 326.78C958.83 327.126 959.07 327.393 959.417 327.58C960.004 327.926 960.364 328.433 960.497 329.1C960.657 329.74 960.51 330.313 960.057 330.82C959.764 331.166 959.39 331.393 958.937 331.5C958.484 331.58 958.03 331.58 957.577 331.5C957.124 331.393 956.75 331.26 956.457 331.1C956.004 330.833 955.55 330.446 955.097 329.94C954.644 329.406 954.27 328.7 953.977 327.82C953.71 326.94 953.577 325.806 953.577 324.42C953.577 323.966 953.497 323.553 953.337 323.18C953.177 322.78 952.95 322.446 952.657 322.18C952.364 321.886 951.99 321.673 951.537 321.54C951.084 321.38 950.55 321.3 949.937 321.3H941.857L942.457 320.38V329.06C942.457 329.753 942.27 330.34 941.897 330.82C941.524 331.273 941.004 331.5 940.337 331.5ZM941.897 317.18H951.217C951.697 317.18 952.164 316.966 952.617 316.54C953.07 316.086 953.444 315.486 953.737 314.74C954.03 313.966 954.177 313.126 954.177 312.22C954.177 311.046 953.857 310.073 953.217 309.3C952.604 308.5 951.937 308.1 951.217 308.1H941.977L942.457 306.82V318.14L941.897 317.18Z" fill="#D9D9D9"/>
<rect x="719.373" y="354.137" width="20" height="8" transform="rotate(45 719.373 354.137)" fill="#D9D9D9"/>
<rect y="-25" width="1145" height="935" fill="#D9D9D9" fill-opacity="0.1"/>
</svg>
