<!--?xml version="1.0" standalone="no"?-->
<svg viewBox="0 0 100 100" xmlns="http://www.w3.org/2000/svg" version="1.1">
    <path fill="var(--tertiary)" d="M21.6,-25C29.3,-19.3,37.7,-13.7,40,-6.2C42.3,1.2,38.4,10.6,33.2,18.6C27.9,26.6,21.2,33.2,13.3,35.7C5.3,38.3,-3.8,36.9,-11.8,33.5C-19.8,30.1,-26.7,24.7,-29.8,17.9C-33,11,-32.5,2.7,-32,-6.6C-31.4,-15.8,-30.9,-26,-25.5,-32.1C-20.2,-38.3,-10.1,-40.5,-1.6,-38.7C6.9,-36.8,13.9,-30.8,21.6,-25Z" width="100%" height="100%" transform="translate(50 50)" stroke-width="0" style="transition: all 0.3s ease 0s;"></path>
</svg>