<svg id="Layer_1" enable-background="new 0 0 512 512" height="512" viewBox="0 0 512 512" width="512" xmlns="http://www.w3.org/2000/svg"><path d="m451 512h-345c-24.853 0-45-20.147-45-45v-422h30c0 8.276 6.724 15 15 15h315c16.569 0 30 13.431 30 30z" fill="#766e6e"/><path d="m256 512h195v-422c0-16.569-13.431-30-30-30h-165z" fill="#5b5555"/><path d="m211 405h90v30h-90z" fill="#ffe6b3"/><path d="m256 405h45v30h-45z" fill="#ffca80"/><path d="m301 375h-90v-40.503c-36.284-17.271-60-53.994-60-94.497 0-57.891 47.109-105 105-105s105 47.109 105 105c0 40.503-23.716 77.227-60 94.497z" fill="#ffe6b3"/><path d="m301 375v-40.503c36.284-17.271 60-53.994 60-94.497 0-57.891-47.109-105-105-105v240z" fill="#ffca80"/><path d="m256 291.211-40.605-40.606 21.21-21.21 19.395 19.394 19.395-19.394 21.21 21.21z" fill="#766e6e"/><path d="m296.605 250.605-21.21-21.21-19.395 19.394v42.422z" fill="#5b5555"/><path d="m451 90h-345c-24.814 0-45-20.186-45-45s20.186-45 45-45h345z" fill="#d9f2ff"/><path d="m256 0h195v90h-195z" fill="#cdf"/></svg>