<?xml version="1.0" encoding="utf-8"?>
<!-- Generator: Adobe Illustrator 17.0.0, SVG Export Plug-In . SVG Version: 6.00 Build 0)  -->
<!DOCTYPE svg PUBLIC "-//W3C//DTD SVG 1.1//EN" "http://www.w3.org/Graphics/SVG/1.1/DTD/svg11.dtd">
<svg version="1.1" id="Capa_1" xmlns="http://www.w3.org/2000/svg" xmlns:xlink="http://www.w3.org/1999/xlink" x="0px" y="0px"
	 width="512px" height="512px" viewBox="0 0 512 512" enable-background="new 0 0 512 512" xml:space="preserve">
<g>
	<path fill="#F07F22" d="M187,213.565v-37.663h23.088v36.98c0,10.468,4.011,14.38,10.468,14.38c6.458,0,10.467-3.913,10.467-14.38
		v-36.98h22.697v37.663c0,20.544-12.326,32.382-33.36,32.382C199.326,245.946,187,234.11,187,213.565z"/>
	<path fill="#F3C86A" d="M307.538,244.382l-11.837-18.294l-11.544,18.294h-26.316l24.751-34.534l-23.87-33.947h25.925l11.641,17.218
		l11.348-17.218h24.849l-23.772,33.066l25.239,35.414H307.538z"/>
</g>
<g>
	<path fill="#F07F22" d="M420.925,256L420.925,256H512l0,0c0-68.38-26.629-132.667-74.98-181.019C388.667,26.629,324.381,0,256,0
		v91.075C346.939,91.076,420.925,165.061,420.925,256z"/>
	<path fill="#6598EA" d="M420.925,256c0,90.939-73.985,164.925-164.925,164.925v91.074c68.381,0,132.667-26.628,181.02-74.98
		C485.371,388.668,512,324.38,512,256L420.925,256L420.925,256z"/>
	<path fill="#326ED3" d="M91.075,256H0c0,68.38,26.629,132.668,74.98,181.02C123.332,485.372,187.619,512,256,512v-91.074
		C165.061,420.925,91.076,346.94,91.075,256z"/>
	<path fill="#F3C86A" d="M91.075,256c0-90.939,73.985-164.924,164.925-164.924V0C187.619,0,123.332,26.629,74.98,74.981
		C26.629,123.333,0,187.62,0,256l0,0H91.075L91.075,256z"/>
</g>
<g>
	<g>
		<g>
			<path fill="#FC0E3C" d="M372.078,302.991"/>
			<path fill="#FC0E3C" d="M371.002,269.924"/>
		</g>
	</g>
</g>
<g>
	<rect x="284.549" y="266.568" fill="#326ED3" width="22.697" height="70.045"/>
</g>
<path fill="#6598EA" d="M187,304.231v-37.663h23.088v36.98c0,10.468,4.011,14.38,10.468,14.38c6.458,0,10.467-3.913,10.467-14.38
	v-36.98h22.697v37.663c0,20.544-12.326,32.382-33.36,32.382C199.326,336.613,187,324.776,187,304.231z"/>
<path fill="none" stroke="#EF7F22" stroke-miterlimit="10" d="M420.925,256"/>
<path fill="none" stroke="#EF7F22" stroke-miterlimit="10" d="M91.075,256"/>
</svg>
